{"glyphs":{"0":{"ha":1013,"x_min":58,"x_max":957,"o":"m 647 26 q 528 -1 589 1 q 388 15 457 -4 q 260 72 318 35 q 210 113 232 90 q 169 160 189 136 q 116 242 139 199 q 79 332 93 285 q 60 442 63 385 q 64 556 58 499 q 94 703 72 631 q 156 838 115 775 q 263 965 200 908 q 310 1003 286 985 q 358 1039 335 1021 q 445 1080 399 1065 q 540 1092 492 1094 q 659 1071 600 1088 q 771 1022 718 1054 q 821 985 799 1007 q 861 936 843 963 q 918 820 896 882 q 947 693 940 758 q 947 527 957 610 q 910 365 938 444 q 867 256 892 310 q 808 157 843 203 q 735 82 776 115 q 647 26 694 49 m 433 403 q 511 367 468 374 q 594 378 554 360 q 642 417 622 389 q 676 480 663 444 q 697 552 690 515 q 701 618 703 589 q 699 662 701 640 q 686 703 696 683 q 651 744 674 729 q 603 763 629 758 q 548 760 576 767 q 494 739 519 754 q 451 704 471 724 q 417 663 432 685 q 403 633 408 649 q 394 601 397 617 q 385 543 388 574 q 388 483 382 513 q 403 439 390 460 q 433 403 415 418 z "},"1":{"ha":638,"x_min":38,"x_max":565,"o":"m 447 -7 q 390 -23 424 -19 q 322 -23 357 -26 q 256 -9 288 -19 q 203 18 224 1 q 171 65 179 38 q 167 98 167 81 q 169 131 167 115 q 194 261 178 197 q 226 390 211 325 q 233 417 228 397 q 243 458 238 436 q 253 500 249 481 q 258 526 257 519 q 263 565 260 540 q 267 615 265 589 q 266 664 268 640 q 256 699 264 688 q 243 709 251 706 q 226 714 235 713 q 166 719 197 719 q 107 729 135 718 q 63 764 81 739 q 42 813 46 785 q 40 869 38 842 q 51 921 44 896 q 74 968 58 946 q 109 999 88 988 q 153 1019 131 1011 q 278 1049 213 1043 q 408 1043 344 1054 q 444 1031 426 1040 q 472 1008 461 1022 q 494 976 486 993 q 510 939 503 958 q 535 831 526 886 q 551 719 544 775 q 564 531 563 625 q 558 343 565 438 q 533 146 553 244 q 519 90 528 118 q 496 39 511 63 q 447 -7 479 8 z "},"2":{"ha":886,"x_min":58,"x_max":831,"o":"m 726 19 q 678 -2 706 3 q 622 -6 650 -7 q 464 3 543 -6 q 306 26 385 11 q 259 36 285 31 q 207 49 233 42 q 157 65 181 56 q 115 86 133 74 q 73 143 83 108 q 70 215 63 178 q 102 284 78 251 q 167 333 126 317 q 238 361 203 349 q 308 390 274 374 q 454 508 396 433 q 480 547 468 528 q 499 588 492 565 q 506 629 506 607 q 501 672 507 651 q 493 694 499 683 q 476 711 488 704 q 451 719 465 718 q 425 721 438 721 q 379 713 401 719 q 338 694 357 706 q 275 660 306 679 q 210 633 244 640 q 149 638 181 626 q 100 672 118 650 q 80 705 88 688 q 68 742 72 722 q 60 776 63 758 q 61 813 58 794 q 85 865 65 842 q 163 930 117 904 q 257 971 208 956 q 314 986 285 981 q 371 999 343 992 q 473 1013 421 1011 q 575 1007 525 1014 q 673 978 625 1000 q 754 919 721 956 q 805 832 788 882 q 825 733 822 782 q 805 583 831 658 q 736 444 779 508 q 680 374 713 407 q 614 311 647 342 q 596 295 610 307 q 567 270 582 283 q 538 246 551 257 q 519 231 524 235 q 611 228 565 229 q 701 217 657 226 q 749 189 732 210 q 763 161 758 176 q 769 131 767 146 q 761 70 772 101 q 726 19 750 39 z "},"3":{"ha":890,"x_min":50,"x_max":828,"o":"m 475 -21 q 420 -23 447 -24 q 367 -15 393 -22 q 277 13 321 -4 q 193 53 233 29 q 139 94 165 69 q 101 150 113 118 q 99 233 88 188 q 139 307 111 278 q 185 331 158 328 q 221 326 204 332 q 254 313 238 319 q 325 283 290 299 q 396 260 360 267 q 438 257 417 256 q 479 269 460 258 q 503 290 493 276 q 518 317 514 303 q 518 344 522 331 q 500 365 514 357 q 457 378 482 375 q 408 379 433 382 q 358 378 383 376 q 326 382 343 378 q 299 397 310 386 q 270 454 278 421 q 269 518 263 488 q 280 547 272 533 q 299 568 288 560 q 328 581 311 578 q 360 588 344 585 q 426 595 392 592 q 489 614 460 599 q 519 642 507 622 q 524 682 531 663 q 508 703 521 694 q 483 714 496 711 q 409 713 447 721 q 335 693 371 704 q 297 683 321 689 q 245 674 272 678 q 194 669 218 669 q 157 675 169 668 q 136 689 146 681 q 118 707 126 697 q 84 751 99 728 q 61 803 69 775 q 53 837 56 819 q 53 871 50 854 q 80 926 57 900 q 135 975 103 953 q 201 1013 167 997 q 265 1035 236 1028 q 447 1053 353 1057 q 488 1049 467 1051 q 528 1039 508 1046 q 574 1031 551 1036 q 618 1019 596 1026 q 669 999 644 1011 q 715 971 694 988 q 767 916 744 947 q 804 850 789 885 q 824 775 819 814 q 826 696 828 736 q 788 554 824 621 q 747 499 771 525 q 694 451 722 472 q 760 379 736 422 q 789 288 783 336 q 781 192 794 240 q 733 101 767 143 q 687 56 714 75 q 631 22 660 38 q 475 -21 560 -12 z "},"4":{"ha":1029,"x_min":60,"x_max":971,"o":"m 707 -17 q 670 -12 689 -17 q 638 3 651 -8 q 613 51 617 21 q 610 92 610 71 q 611 133 610 113 q 616 192 614 163 q 622 251 618 222 l 622 258 q 601 257 608 258 q 463 233 531 251 q 324 204 394 215 q 254 195 290 199 q 188 207 218 192 q 162 226 172 214 q 144 253 151 238 q 129 293 135 272 q 121 335 124 314 q 101 486 107 410 q 92 639 96 563 q 91 646 92 642 q 90 656 90 650 q 88 668 89 663 q 88 676 88 674 q 78 733 85 696 q 67 813 72 771 q 61 894 63 856 q 67 954 60 933 q 68 958 67 957 l 68 960 l 68 961 q 89 987 75 976 q 117 1006 103 997 q 200 1040 156 1029 q 289 1053 244 1050 q 333 1053 311 1054 q 378 1047 356 1053 q 404 1038 392 1044 q 425 1021 417 1032 q 449 948 442 999 q 456 840 456 897 q 456 730 457 783 q 454 649 454 676 q 455 606 454 626 q 458 563 456 585 q 463 540 461 551 q 472 518 465 529 q 494 502 479 506 q 524 500 510 499 q 575 510 553 503 l 575 513 q 576 557 575 524 q 577 628 576 590 q 578 699 578 665 q 579 743 579 732 q 584 855 581 799 q 601 965 588 911 q 620 1013 607 989 q 657 1049 633 1038 q 728 1067 689 1065 q 803 1065 767 1068 q 858 1059 831 1063 q 910 1046 885 1056 q 934 1035 922 1042 q 953 1017 946 1028 q 963 994 960 1006 q 968 969 967 982 q 968 908 971 939 q 961 847 965 878 q 931 631 947 739 q 900 414 914 522 q 888 303 893 358 q 876 193 883 249 q 869 139 874 165 q 854 88 864 113 q 836 50 847 68 q 808 19 825 32 q 761 -6 788 3 q 707 -17 735 -15 z "},"5":{"ha":931,"x_min":67,"x_max":874,"o":"m 443 -65 q 350 -70 397 -71 q 258 -60 303 -69 q 165 -17 206 -49 q 97 90 113 25 q 91 133 93 108 q 92 184 89 158 q 102 232 94 210 q 124 267 110 254 q 155 281 136 278 q 190 281 174 283 q 254 271 222 276 q 318 265 286 265 q 411 281 365 265 q 436 292 424 286 q 458 308 449 297 q 469 356 478 329 q 432 390 460 382 q 400 396 417 396 q 317 391 358 397 q 236 385 276 385 q 183 390 210 383 q 136 415 156 397 q 112 444 121 428 q 96 478 103 460 q 76 553 82 514 q 68 633 69 593 q 74 734 67 683 q 96 833 81 785 q 126 904 108 869 q 171 963 143 939 q 216 990 190 981 q 268 1004 242 1000 q 444 1015 356 1018 q 621 997 533 1013 q 626 997 622 997 q 631 996 629 996 q 719 983 675 990 q 806 964 763 976 q 836 951 821 960 q 858 928 851 942 q 872 874 874 904 q 868 817 871 844 q 858 759 864 788 q 838 704 851 731 q 790 660 819 672 q 738 646 765 649 q 683 644 711 643 q 615 656 649 646 q 547 676 581 665 q 481 699 514 688 q 413 715 447 710 q 390 717 404 717 q 363 717 376 718 q 336 714 349 717 q 318 704 324 711 q 307 681 308 693 q 300 652 303 669 q 297 617 297 635 q 300 585 297 600 q 311 561 303 569 q 328 553 317 554 q 353 552 340 551 q 379 554 367 553 q 400 557 392 556 q 509 569 454 564 q 617 564 564 575 q 703 534 661 556 q 775 479 744 513 q 813 400 803 447 q 821 301 824 353 q 805 199 818 249 q 771 113 792 149 q 724 53 751 81 q 665 6 697 25 q 559 -42 617 -25 q 443 -65 501 -58 z "},"6":{"ha":919,"x_min":53,"x_max":874,"o":"m 614 -12 q 556 -24 586 -21 q 497 -28 526 -26 q 388 -19 443 -29 q 283 11 333 -10 q 219 47 250 26 q 164 93 189 67 q 97 197 122 138 q 64 317 72 256 q 62 462 53 389 q 92 606 71 535 q 127 709 107 658 q 172 808 147 760 q 206 887 188 849 q 244 961 225 925 q 265 996 254 979 q 289 1026 275 1013 q 328 1051 303 1044 q 381 1052 351 1057 q 439 1035 410 1047 q 493 1006 468 1024 q 532 968 518 988 q 549 922 546 950 q 546 887 550 904 q 535 854 542 869 q 500 777 519 814 q 461 703 481 740 q 408 594 433 649 q 363 481 382 539 q 369 488 365 485 q 375 496 372 492 q 442 560 407 529 q 518 611 478 590 q 613 636 561 633 q 711 628 664 639 q 752 615 732 624 q 789 593 772 607 q 820 560 807 578 q 844 522 833 542 q 868 440 863 483 q 869 353 874 396 q 826 199 863 274 q 735 67 789 125 q 680 19 711 39 q 614 -12 649 -1 m 408 215 q 448 208 422 204 q 489 218 474 211 q 550 269 524 235 q 579 342 576 303 q 576 376 582 358 q 554 404 569 394 q 523 401 539 406 q 492 389 507 396 q 431 336 456 369 q 399 263 406 303 q 397 236 396 250 q 408 215 399 222 z "},"7":{"ha":843,"x_min":49,"x_max":790,"o":"m 438 -14 q 335 -20 388 -25 q 235 3 282 -15 q 194 21 214 10 q 161 49 174 32 q 143 88 147 65 q 142 133 139 111 q 162 230 147 182 q 194 325 176 278 q 208 355 197 332 q 225 393 218 378 q 186 390 206 390 q 147 392 167 389 q 126 397 136 394 q 108 407 117 400 q 84 455 85 425 q 103 507 83 485 q 130 527 114 519 q 163 539 146 535 q 203 546 182 543 q 244 549 224 549 q 272 547 258 549 q 297 543 285 546 q 357 644 328 596 q 401 711 386 692 q 414 727 404 715 q 434 752 424 739 q 454 778 444 765 q 467 794 464 790 q 476 808 469 799 q 481 824 482 817 q 461 827 475 826 q 440 828 447 828 q 303 811 371 824 q 165 792 235 799 q 131 791 149 790 q 99 799 114 792 q 58 847 67 811 q 60 915 49 882 q 83 952 67 936 q 119 979 100 968 q 210 1006 161 1003 q 308 1013 260 1010 q 406 1023 357 1017 q 503 1034 454 1029 q 599 1040 551 1039 q 696 1035 647 1040 q 741 1024 718 1032 q 778 999 764 1017 q 789 957 790 981 q 785 911 788 933 q 737 729 769 818 q 676 551 704 640 q 669 525 671 536 q 724 516 697 522 q 765 499 750 510 q 783 472 778 489 q 788 439 789 456 q 779 407 788 422 q 757 385 771 392 q 729 376 743 378 q 700 375 715 375 q 664 376 682 375 q 626 376 646 376 q 605 303 615 340 q 583 231 594 267 q 559 156 572 193 q 531 83 546 119 q 514 46 522 64 q 490 13 506 28 q 438 -14 465 -8 z "},"8":{"ha":979,"x_min":58,"x_max":921,"o":"m 572 -18 q 451 -27 511 -26 q 331 -17 390 -28 q 262 0 296 -11 q 199 31 228 11 q 138 85 165 54 q 90 150 110 115 q 72 189 79 169 q 63 231 65 208 q 69 322 58 274 q 97 414 78 369 q 139 500 115 458 q 157 526 146 511 q 183 554 168 542 q 157 572 171 561 q 138 589 143 582 q 103 656 113 617 q 94 735 93 696 q 119 825 97 781 q 174 901 142 869 q 266 967 214 942 q 371 1008 318 992 q 492 1036 431 1026 q 617 1043 554 1046 q 698 1035 657 1042 q 775 1008 739 1028 q 828 962 807 992 q 863 900 850 932 q 874 863 869 881 q 878 825 878 844 q 863 738 878 781 q 825 658 849 696 q 796 621 815 643 q 754 582 776 599 q 792 566 774 575 q 826 546 810 557 q 863 517 846 535 q 890 481 879 500 q 909 424 903 453 q 918 365 915 394 q 908 260 921 313 q 865 164 894 207 q 740 42 815 89 q 572 -18 664 -6 m 378 622 q 409 610 390 611 q 449 615 428 610 q 490 628 469 619 q 524 644 510 636 q 558 672 546 656 q 568 713 569 692 q 547 746 567 735 q 517 756 535 754 q 479 756 499 758 q 442 748 460 754 q 413 733 425 742 q 388 708 397 722 q 375 687 381 699 q 367 663 369 675 q 367 641 365 651 q 378 622 369 631 m 360 299 q 406 275 378 279 q 460 274 433 271 q 531 288 494 276 q 586 328 567 300 q 602 356 596 340 q 610 386 608 371 q 605 414 611 401 q 585 433 599 426 q 556 442 571 440 q 526 444 542 444 q 454 434 490 444 q 386 404 418 424 q 372 394 379 400 q 358 382 364 389 q 346 339 347 364 q 360 299 344 314 z "},"9":{"ha":924,"x_min":63,"x_max":863,"o":"m 547 21 q 461 8 506 8 q 375 19 417 8 q 264 61 315 35 q 174 100 217 78 q 132 123 153 111 q 93 150 111 135 q 67 197 74 168 q 69 253 63 225 q 89 306 76 281 q 119 348 100 328 q 161 375 138 368 q 195 379 178 381 q 228 372 213 378 q 308 338 269 358 q 388 301 347 317 q 417 293 400 296 q 451 290 435 290 q 483 295 468 290 q 507 311 499 300 q 522 343 515 321 q 535 391 529 365 q 544 441 540 417 q 549 478 549 465 l 549 500 q 540 494 540 494 q 467 452 507 469 q 388 432 428 435 q 286 442 338 428 q 194 488 235 457 q 126 556 156 515 q 85 643 96 597 q 77 770 69 704 q 108 894 85 836 q 145 960 124 929 q 197 1015 167 992 q 298 1073 242 1051 q 413 1097 354 1094 q 516 1092 464 1099 q 617 1069 568 1085 q 755 985 696 1044 q 840 847 814 926 q 860 741 857 796 q 858 633 863 686 q 840 473 851 553 q 800 318 828 393 q 754 209 779 263 q 689 111 729 156 q 624 57 660 79 q 547 21 588 35 m 399 717 q 437 681 413 690 q 486 676 461 671 q 533 699 511 681 q 565 744 554 717 q 549 784 558 763 q 527 823 540 806 q 498 851 514 840 q 463 860 482 863 q 419 833 440 857 q 392 788 399 808 q 389 751 388 769 q 399 717 390 732 z "},"\u0000":{"ha":0,"x_min":0,"x_max":0,"o":""},"\r":{"ha":347,"x_min":0,"x_max":0,"o":""}," ":{"ha":347,"x_min":0,"x_max":0,"o":""},"!":{"ha":485,"x_min":67,"x_max":417,"o":"m 289 424 q 250 408 272 413 q 207 406 228 403 q 185 408 196 407 q 167 417 175 410 q 138 457 150 429 q 116 518 125 485 q 101 584 107 551 q 94 636 96 617 q 88 768 88 703 q 93 900 89 833 q 97 940 96 919 q 104 979 99 960 q 110 1002 106 988 q 121 1019 114 1017 q 151 1041 132 1035 q 188 1050 169 1047 q 278 1047 232 1058 q 360 1008 324 1036 q 400 957 385 988 q 416 881 415 921 q 413 803 417 842 q 400 715 408 758 q 381 628 392 671 q 361 563 371 594 q 339 499 351 531 q 318 458 329 478 q 289 424 307 438 m 311 -4 q 254 -19 286 -15 q 192 -19 222 -24 q 134 -3 161 -15 q 90 32 107 10 q 72 73 76 50 q 67 118 67 96 q 75 181 67 150 q 104 236 83 213 q 166 282 131 267 q 238 299 201 297 q 310 286 275 300 q 374 243 346 272 q 399 204 390 226 q 411 158 408 182 q 409 111 414 135 q 392 67 404 88 q 356 25 376 43 q 311 -4 335 7 z "},"\"":{"ha":594,"x_min":42,"x_max":550,"o":"m 218 707 q 174 680 200 689 q 124 674 149 671 q 99 678 111 674 q 79 694 86 683 q 74 720 75 701 q 72 760 72 739 q 71 801 71 782 q 71 829 71 821 q 54 908 67 869 q 44 988 42 947 q 60 1018 46 1004 q 82 1031 69 1026 q 107 1036 94 1035 q 143 1039 121 1038 q 188 1038 165 1040 q 228 1030 210 1036 q 257 1013 247 1024 q 269 985 268 1001 q 272 953 271 968 q 271 869 275 911 q 257 786 267 826 q 242 743 251 764 q 218 707 233 722 m 493 699 q 449 673 474 682 q 399 667 424 664 q 373 672 386 667 q 354 688 360 676 q 349 713 350 694 q 347 753 347 732 q 346 794 346 775 q 344 821 346 813 q 328 901 340 861 q 319 981 317 940 q 335 1011 322 1000 q 357 1023 344 1019 q 382 1029 369 1026 q 418 1031 396 1031 q 463 1030 440 1032 q 503 1022 485 1028 q 532 1006 522 1017 q 544 978 543 994 q 547 946 546 961 q 546 862 550 904 q 532 779 542 819 q 517 735 526 757 q 493 699 508 714 z "},"«":{"ha":594,"x_min":42,"x_max":550,"o":"m 218 707 q 174 680 200 689 q 124 674 149 671 q 99 678 111 674 q 79 694 86 683 q 74 720 75 701 q 72 760 72 739 q 71 801 71 782 q 71 829 71 821 q 54 908 67 869 q 44 988 42 947 q 60 1018 46 1004 q 82 1031 69 1026 q 107 1036 94 1035 q 143 1039 121 1038 q 188 1038 165 1040 q 228 1030 210 1036 q 257 1013 247 1024 q 269 985 268 1001 q 272 953 271 968 q 271 869 275 911 q 257 786 267 826 q 242 743 251 764 q 218 707 233 722 m 493 699 q 449 673 474 682 q 399 667 424 664 q 373 672 386 667 q 354 688 360 676 q 349 713 350 694 q 347 753 347 732 q 346 794 346 775 q 344 821 346 813 q 328 901 340 861 q 319 981 317 940 q 335 1011 322 1000 q 357 1023 344 1019 q 382 1029 369 1026 q 418 1031 396 1031 q 463 1030 440 1032 q 503 1022 485 1028 q 532 1006 522 1017 q 544 978 543 994 q 547 946 546 961 q 546 862 550 904 q 532 779 542 819 q 517 735 526 757 q 493 699 508 714 z "},"»":{"ha":594,"x_min":42,"x_max":550,"o":"m 218 707 q 174 680 200 689 q 124 674 149 671 q 99 678 111 674 q 79 694 86 683 q 74 720 75 701 q 72 760 72 739 q 71 801 71 782 q 71 829 71 821 q 54 908 67 869 q 44 988 42 947 q 60 1018 46 1004 q 82 1031 69 1026 q 107 1036 94 1035 q 143 1039 121 1038 q 188 1038 165 1040 q 228 1030 210 1036 q 257 1013 247 1024 q 269 985 268 1001 q 272 953 271 968 q 271 869 275 911 q 257 786 267 826 q 242 743 251 764 q 218 707 233 722 m 493 699 q 449 673 474 682 q 399 667 424 664 q 373 672 386 667 q 354 688 360 676 q 349 713 350 694 q 347 753 347 732 q 346 794 346 775 q 344 821 346 813 q 328 901 340 861 q 319 981 317 940 q 335 1011 322 1000 q 357 1023 344 1019 q 382 1029 369 1026 q 418 1031 396 1031 q 463 1030 440 1032 q 503 1022 485 1028 q 532 1006 522 1017 q 544 978 543 994 q 547 946 546 961 q 546 862 550 904 q 532 779 542 819 q 517 735 526 757 q 493 699 508 714 z "},"“":{"ha":594,"x_min":42,"x_max":550,"o":"m 218 707 q 174 680 200 689 q 124 674 149 671 q 99 678 111 674 q 79 694 86 683 q 74 720 75 701 q 72 760 72 739 q 71 801 71 782 q 71 829 71 821 q 54 908 67 869 q 44 988 42 947 q 60 1018 46 1004 q 82 1031 69 1026 q 107 1036 94 1035 q 143 1039 121 1038 q 188 1038 165 1040 q 228 1030 210 1036 q 257 1013 247 1024 q 269 985 268 1001 q 272 953 271 968 q 271 869 275 911 q 257 786 267 826 q 242 743 251 764 q 218 707 233 722 m 493 699 q 449 673 474 682 q 399 667 424 664 q 373 672 386 667 q 354 688 360 676 q 349 713 350 694 q 347 753 347 732 q 346 794 346 775 q 344 821 346 813 q 328 901 340 861 q 319 981 317 940 q 335 1011 322 1000 q 357 1023 344 1019 q 382 1029 369 1026 q 418 1031 396 1031 q 463 1030 440 1032 q 503 1022 485 1028 q 532 1006 522 1017 q 544 978 543 994 q 547 946 546 961 q 546 862 550 904 q 532 779 542 819 q 517 735 526 757 q 493 699 508 714 z "},"”":{"ha":594,"x_min":42,"x_max":550,"o":"m 218 707 q 174 680 200 689 q 124 674 149 671 q 99 678 111 674 q 79 694 86 683 q 74 720 75 701 q 72 760 72 739 q 71 801 71 782 q 71 829 71 821 q 54 908 67 869 q 44 988 42 947 q 60 1018 46 1004 q 82 1031 69 1026 q 107 1036 94 1035 q 143 1039 121 1038 q 188 1038 165 1040 q 228 1030 210 1036 q 257 1013 247 1024 q 269 985 268 1001 q 272 953 271 968 q 271 869 275 911 q 257 786 267 826 q 242 743 251 764 q 218 707 233 722 m 493 699 q 449 673 474 682 q 399 667 424 664 q 373 672 386 667 q 354 688 360 676 q 349 713 350 694 q 347 753 347 732 q 346 794 346 775 q 344 821 346 813 q 328 901 340 861 q 319 981 317 940 q 335 1011 322 1000 q 357 1023 344 1019 q 382 1029 369 1026 q 418 1031 396 1031 q 463 1030 440 1032 q 503 1022 485 1028 q 532 1006 522 1017 q 544 978 543 994 q 547 946 546 961 q 546 862 550 904 q 532 779 542 819 q 517 735 526 757 q 493 699 508 714 z "},"„":{"ha":594,"x_min":42,"x_max":550,"o":"m 218 707 q 174 680 200 689 q 124 674 149 671 q 99 678 111 674 q 79 694 86 683 q 74 720 75 701 q 72 760 72 739 q 71 801 71 782 q 71 829 71 821 q 54 908 67 869 q 44 988 42 947 q 60 1018 46 1004 q 82 1031 69 1026 q 107 1036 94 1035 q 143 1039 121 1038 q 188 1038 165 1040 q 228 1030 210 1036 q 257 1013 247 1024 q 269 985 268 1001 q 272 953 271 968 q 271 869 275 911 q 257 786 267 826 q 242 743 251 764 q 218 707 233 722 m 493 699 q 449 673 474 682 q 399 667 424 664 q 373 672 386 667 q 354 688 360 676 q 349 713 350 694 q 347 753 347 732 q 346 794 346 775 q 344 821 346 813 q 328 901 340 861 q 319 981 317 940 q 335 1011 322 1000 q 357 1023 344 1019 q 382 1029 369 1026 q 418 1031 396 1031 q 463 1030 440 1032 q 503 1022 485 1028 q 532 1006 522 1017 q 544 978 543 994 q 547 946 546 961 q 546 862 550 904 q 532 779 542 819 q 517 735 526 757 q 493 699 508 714 z "},"‟":{"ha":594,"x_min":42,"x_max":550,"o":"m 218 707 q 174 680 200 689 q 124 674 149 671 q 99 678 111 674 q 79 694 86 683 q 74 720 75 701 q 72 760 72 739 q 71 801 71 782 q 71 829 71 821 q 54 908 67 869 q 44 988 42 947 q 60 1018 46 1004 q 82 1031 69 1026 q 107 1036 94 1035 q 143 1039 121 1038 q 188 1038 165 1040 q 228 1030 210 1036 q 257 1013 247 1024 q 269 985 268 1001 q 272 953 271 968 q 271 869 275 911 q 257 786 267 826 q 242 743 251 764 q 218 707 233 722 m 493 699 q 449 673 474 682 q 399 667 424 664 q 373 672 386 667 q 354 688 360 676 q 349 713 350 694 q 347 753 347 732 q 346 794 346 775 q 344 821 346 813 q 328 901 340 861 q 319 981 317 940 q 335 1011 322 1000 q 357 1023 344 1019 q 382 1029 369 1026 q 418 1031 396 1031 q 463 1030 440 1032 q 503 1022 485 1028 q 532 1006 522 1017 q 544 978 543 994 q 547 946 546 961 q 546 862 550 904 q 532 779 542 819 q 517 735 526 757 q 493 699 508 714 z "},"#":{"ha":1129,"x_min":49,"x_max":1078,"o":"m 315 22 q 288 19 301 18 q 258 24 274 21 q 231 31 244 26 q 207 46 217 35 q 197 70 200 57 q 192 97 193 83 q 189 164 189 131 q 192 232 189 197 q 147 224 169 228 q 103 228 124 221 q 72 249 83 233 q 56 285 61 265 q 49 326 50 304 q 51 368 49 349 q 63 409 56 389 q 83 446 69 429 q 112 467 94 460 q 146 479 129 475 q 181 487 164 485 q 215 492 197 489 q 222 541 218 517 q 229 589 225 565 q 195 589 213 589 q 161 590 178 589 q 140 593 150 592 q 121 600 131 594 q 103 629 106 610 q 103 670 100 646 q 122 704 107 694 q 153 714 133 711 q 203 718 178 718 q 254 717 228 718 q 260 743 257 731 q 265 768 263 756 q 286 862 275 815 q 315 953 297 908 q 320 963 317 956 q 328 980 324 971 q 337 997 333 989 q 342 1007 340 1004 q 350 1013 343 1008 q 383 1033 363 1026 q 426 1038 403 1039 q 471 1032 449 1038 q 510 1018 493 1026 q 535 999 524 1010 q 554 972 547 988 q 559 932 561 953 q 553 892 557 911 q 526 806 542 847 q 497 721 511 764 q 496 715 496 718 q 494 710 496 713 q 565 709 531 710 q 635 707 599 708 l 651 757 q 696 864 669 808 q 717 899 706 882 q 747 926 729 915 q 782 938 763 936 q 819 939 801 940 q 870 931 842 938 q 924 914 899 925 q 970 886 950 903 q 997 849 990 869 q 1002 814 1003 832 q 999 779 1001 796 q 988 734 996 756 q 972 692 981 713 q 997 690 986 690 q 1011 688 1007 689 q 1033 682 1018 686 q 1051 675 1047 678 q 1058 665 1054 672 q 1065 656 1063 658 q 1070 640 1068 650 q 1074 619 1072 631 q 1077 597 1076 607 q 1076 581 1078 586 q 1065 559 1074 569 q 1046 543 1057 549 q 1022 536 1035 538 q 996 535 1008 535 q 967 538 986 536 q 921 542 947 539 q 908 502 914 522 q 897 461 903 482 q 942 454 919 458 q 983 440 964 450 q 1018 418 1006 431 q 1035 386 1032 406 q 1038 349 1039 367 q 1031 295 1038 321 q 1008 247 1024 269 q 951 210 986 215 q 901 210 926 206 q 849 219 875 214 q 837 144 843 181 q 826 96 831 108 q 810 66 821 81 q 783 44 799 51 q 738 34 765 36 q 681 35 710 32 q 625 47 651 39 q 582 67 599 54 q 551 102 563 81 q 538 147 540 124 q 535 204 533 175 q 540 261 536 233 q 463 260 501 263 q 386 256 425 258 q 373 181 379 218 q 358 106 367 143 q 352 84 356 97 q 344 58 349 71 q 331 35 339 46 q 315 22 324 25 m 436 493 q 506 490 471 492 q 575 486 540 489 q 581 509 578 497 q 586 532 583 521 q 592 553 589 543 q 597 574 594 563 q 458 582 526 581 q 447 538 451 560 q 436 493 442 517 z "},"$":{"ha":878,"x_min":54,"x_max":831,"o":"m 458 -61 q 434 -60 447 -62 q 414 -46 421 -57 q 409 -32 411 -42 q 406 -12 407 -22 q 406 8 406 -1 q 406 24 406 18 l 406 25 q 337 11 371 15 q 268 10 303 7 q 224 15 246 13 q 183 28 203 18 q 145 57 163 38 q 116 100 128 76 q 99 149 104 124 q 97 196 94 175 q 106 231 100 214 q 126 260 113 247 q 153 277 138 271 q 183 289 168 283 q 260 307 221 300 q 336 328 299 314 q 382 349 360 336 q 419 382 404 363 q 426 394 422 386 q 426 406 429 401 q 408 415 422 411 q 388 422 394 419 q 299 436 343 433 q 210 449 254 439 q 166 461 188 454 q 128 482 144 468 q 90 524 104 500 q 67 574 75 549 q 57 651 54 611 q 75 728 60 692 q 147 835 100 786 q 250 915 193 883 q 381 963 310 950 q 378 1000 379 978 q 379 1031 376 1022 q 403 1056 383 1049 q 428 1063 413 1060 q 460 1066 443 1065 q 492 1064 476 1067 q 515 1056 507 1061 q 528 1036 525 1049 q 532 1013 532 1024 q 533 996 533 1006 q 531 974 532 986 q 654 960 593 972 q 772 924 715 949 q 803 903 789 917 q 824 871 818 889 q 828 819 831 846 q 815 768 826 792 q 789 719 804 743 q 750 678 774 694 q 692 660 725 657 q 640 674 664 661 q 592 697 615 686 q 549 713 571 707 q 503 721 526 719 q 447 710 475 721 q 403 679 418 700 q 391 651 394 667 q 393 621 388 635 q 406 606 397 613 q 424 596 414 600 q 461 585 433 592 q 520 572 489 579 q 580 560 551 565 q 618 551 608 554 q 722 488 690 532 q 756 389 754 443 q 733 278 757 335 q 669 179 708 222 q 604 123 640 147 q 529 78 568 99 q 535 47 532 61 q 539 28 538 33 q 542 -1 542 14 q 535 -28 543 -15 q 521 -40 531 -35 q 500 -50 511 -46 q 477 -58 489 -54 q 458 -61 465 -61 z "},"%":{"ha":1565,"x_min":43,"x_max":1519,"o":"m 601 19 q 515 -6 563 -11 q 436 39 467 0 q 423 72 425 53 q 424 110 421 92 q 440 170 431 140 q 460 229 449 200 q 509 355 483 293 q 563 479 535 417 q 602 561 582 521 q 642 642 622 601 q 697 754 669 699 q 756 863 724 810 q 809 948 781 907 q 872 1025 838 989 q 899 1048 885 1038 q 931 1061 914 1058 q 944 1060 935 1061 q 963 1058 953 1060 q 983 1053 974 1056 q 997 1050 993 1051 q 1054 1028 1026 1042 q 1108 999 1082 1015 q 1137 978 1124 989 q 1160 953 1150 968 q 1176 874 1181 917 q 1163 808 1174 840 q 1138 743 1153 775 q 1082 644 1114 690 q 1017 551 1050 597 q 979 499 1006 536 q 918 416 953 463 q 845 318 883 369 q 772 220 807 267 q 709 138 736 174 q 669 89 682 103 q 638 52 654 69 q 601 19 621 35 m 451 454 q 351 430 404 433 q 247 438 297 426 q 174 460 210 444 q 110 503 138 476 q 65 563 82 528 q 46 633 49 597 q 48 702 43 668 q 63 769 53 736 q 96 851 75 811 q 149 921 117 890 q 210 965 175 946 q 282 994 244 983 q 358 1006 319 1004 q 435 999 397 1007 q 531 947 490 986 q 583 880 563 918 q 614 801 604 842 q 621 750 621 776 q 618 697 621 724 q 590 599 611 647 q 533 515 568 551 q 451 454 500 475 m 294 660 q 340 658 317 654 q 381 675 364 661 q 411 731 403 693 q 410 794 419 768 q 394 819 406 808 q 368 832 382 829 q 334 832 351 836 q 301 817 317 828 q 272 792 285 807 q 253 763 260 778 q 249 699 238 731 q 294 660 261 668 m 1350 42 q 1249 18 1303 21 q 1146 25 1196 15 q 1072 48 1108 32 q 1008 90 1036 64 q 964 151 981 115 q 944 222 947 186 q 947 290 942 256 q 961 357 951 325 q 994 438 974 399 q 1047 508 1015 478 q 1108 553 1074 535 q 1181 581 1143 571 q 1257 593 1218 592 q 1333 586 1296 594 q 1431 535 1390 574 q 1482 467 1461 506 q 1513 389 1503 429 q 1519 338 1519 364 q 1517 286 1519 311 q 1488 188 1510 236 q 1432 103 1467 140 q 1394 68 1415 83 q 1350 42 1374 53 m 1193 249 q 1239 247 1215 243 q 1281 264 1263 250 q 1298 287 1290 272 q 1310 319 1306 301 q 1313 353 1314 336 q 1308 383 1313 371 q 1292 406 1304 396 q 1267 421 1281 417 q 1233 421 1250 425 q 1199 406 1215 417 q 1171 381 1183 396 q 1151 351 1158 367 q 1149 288 1138 319 q 1193 249 1160 257 z "},"&":{"ha":1018,"x_min":54,"x_max":971,"o":"m 551 -29 q 449 -60 503 -53 q 342 -61 394 -67 q 249 -37 294 -56 q 167 11 204 -18 q 108 69 135 36 q 69 142 82 103 q 59 240 54 188 q 83 336 64 292 q 131 420 103 381 q 200 488 160 460 q 210 494 201 489 q 208 497 208 496 q 206 500 207 499 q 147 598 171 544 q 117 708 124 651 q 117 777 113 742 q 135 846 122 813 q 169 909 149 879 q 214 961 189 939 q 253 990 232 978 q 299 1011 275 1001 q 408 1042 351 1033 q 522 1049 465 1051 q 593 1041 558 1046 q 660 1022 628 1036 q 749 960 708 1001 q 804 869 789 919 q 814 822 813 846 q 813 774 815 797 q 796 686 810 729 q 759 603 782 643 q 705 528 736 563 q 639 467 674 493 q 621 454 632 463 q 596 439 610 446 q 619 417 606 431 q 644 392 632 403 q 685 436 665 413 q 703 460 690 443 q 730 495 715 476 q 758 531 744 514 q 781 551 772 547 q 807 558 792 561 q 826 553 817 557 q 844 546 836 550 q 883 522 861 538 q 923 488 904 507 q 954 449 942 469 q 967 410 967 429 q 964 394 965 401 q 960 379 963 386 q 930 322 949 349 q 889 271 911 294 q 872 251 885 264 q 843 224 858 238 q 844 223 844 224 q 846 222 844 222 q 905 166 874 192 q 958 106 936 140 q 968 65 971 86 q 946 22 965 40 q 910 -6 933 10 q 861 -33 888 -21 q 809 -54 835 -46 q 765 -61 783 -62 q 722 -46 744 -60 q 707 -33 717 -43 q 686 -11 697 -24 q 663 14 675 1 q 643 38 651 26 q 638 34 640 35 q 632 31 635 33 q 595 -5 621 11 q 551 -29 569 -21 m 399 715 q 410 662 399 688 q 436 613 421 636 q 447 620 439 615 q 457 628 454 625 q 506 666 482 646 q 546 714 531 686 q 560 747 556 729 q 558 781 564 765 q 533 813 551 803 q 494 822 515 824 q 453 810 474 821 q 418 779 432 799 q 403 749 407 765 q 399 715 399 732 m 311 268 q 350 236 322 244 q 403 235 378 228 q 422 241 413 238 q 439 249 431 244 q 401 287 419 268 q 363 325 382 306 l 343 344 q 330 331 336 338 q 321 321 324 324 q 310 295 313 310 q 311 268 307 281 z "},"'":{"ha":319,"x_min":42,"x_max":275,"o":"m 218 707 q 174 680 200 689 q 124 674 149 671 q 99 678 111 674 q 79 694 86 683 q 74 720 75 701 q 72 760 72 739 q 71 801 71 782 q 71 829 71 821 q 54 908 67 869 q 44 988 42 947 q 60 1018 46 1004 q 82 1031 69 1026 q 107 1036 94 1035 q 143 1039 121 1038 q 188 1038 165 1040 q 228 1030 210 1036 q 257 1013 247 1024 q 269 985 268 1001 q 272 953 271 968 q 271 869 275 911 q 257 786 267 826 q 242 743 251 764 q 218 707 233 722 z "},"‘":{"ha":319,"x_min":42,"x_max":275,"o":"m 218 707 q 174 680 200 689 q 124 674 149 671 q 99 678 111 674 q 79 694 86 683 q 74 720 75 701 q 72 760 72 739 q 71 801 71 782 q 71 829 71 821 q 54 908 67 869 q 44 988 42 947 q 60 1018 46 1004 q 82 1031 69 1026 q 107 1036 94 1035 q 143 1039 121 1038 q 188 1038 165 1040 q 228 1030 210 1036 q 257 1013 247 1024 q 269 985 268 1001 q 272 953 271 968 q 271 869 275 911 q 257 786 267 826 q 242 743 251 764 q 218 707 233 722 z "},"’":{"ha":319,"x_min":42,"x_max":275,"o":"m 218 707 q 174 680 200 689 q 124 674 149 671 q 99 678 111 674 q 79 694 86 683 q 74 720 75 701 q 72 760 72 739 q 71 801 71 782 q 71 829 71 821 q 54 908 67 869 q 44 988 42 947 q 60 1018 46 1004 q 82 1031 69 1026 q 107 1036 94 1035 q 143 1039 121 1038 q 188 1038 165 1040 q 228 1030 210 1036 q 257 1013 247 1024 q 269 985 268 1001 q 272 953 271 968 q 271 869 275 911 q 257 786 267 826 q 242 743 251 764 q 218 707 233 722 z "},"‚":{"ha":319,"x_min":42,"x_max":275,"o":"m 218 707 q 174 680 200 689 q 124 674 149 671 q 99 678 111 674 q 79 694 86 683 q 74 720 75 701 q 72 760 72 739 q 71 801 71 782 q 71 829 71 821 q 54 908 67 869 q 44 988 42 947 q 60 1018 46 1004 q 82 1031 69 1026 q 107 1036 94 1035 q 143 1039 121 1038 q 188 1038 165 1040 q 228 1030 210 1036 q 257 1013 247 1024 q 269 985 268 1001 q 272 953 271 968 q 271 869 275 911 q 257 786 267 826 q 242 743 251 764 q 218 707 233 722 z "},"‛":{"ha":319,"x_min":42,"x_max":275,"o":"m 218 707 q 174 680 200 689 q 124 674 149 671 q 99 678 111 674 q 79 694 86 683 q 74 720 75 701 q 72 760 72 739 q 71 801 71 782 q 71 829 71 821 q 54 908 67 869 q 44 988 42 947 q 60 1018 46 1004 q 82 1031 69 1026 q 107 1036 94 1035 q 143 1039 121 1038 q 188 1038 165 1040 q 228 1030 210 1036 q 257 1013 247 1024 q 269 985 268 1001 q 272 953 271 968 q 271 869 275 911 q 257 786 267 826 q 242 743 251 764 q 218 707 233 722 z "},"‹":{"ha":319,"x_min":42,"x_max":275,"o":"m 218 707 q 174 680 200 689 q 124 674 149 671 q 99 678 111 674 q 79 694 86 683 q 74 720 75 701 q 72 760 72 739 q 71 801 71 782 q 71 829 71 821 q 54 908 67 869 q 44 988 42 947 q 60 1018 46 1004 q 82 1031 69 1026 q 107 1036 94 1035 q 143 1039 121 1038 q 188 1038 165 1040 q 228 1030 210 1036 q 257 1013 247 1024 q 269 985 268 1001 q 272 953 271 968 q 271 869 275 911 q 257 786 267 826 q 242 743 251 764 q 218 707 233 722 z "},"›":{"ha":319,"x_min":42,"x_max":275,"o":"m 218 707 q 174 680 200 689 q 124 674 149 671 q 99 678 111 674 q 79 694 86 683 q 74 720 75 701 q 72 760 72 739 q 71 801 71 782 q 71 829 71 821 q 54 908 67 869 q 44 988 42 947 q 60 1018 46 1004 q 82 1031 69 1026 q 107 1036 94 1035 q 143 1039 121 1038 q 188 1038 165 1040 q 228 1030 210 1036 q 257 1013 247 1024 q 269 985 268 1001 q 272 953 271 968 q 271 869 275 911 q 257 786 267 826 q 242 743 251 764 q 218 707 233 722 z "},"(":{"ha":861,"x_min":64,"x_max":832,"o":"m 575 -89 q 429 -75 499 -93 q 362 -51 394 -65 q 300 -17 329 -36 q 199 72 243 19 q 128 186 156 125 q 78 347 92 263 q 65 515 64 432 q 83 686 67 601 q 132 850 100 771 q 181 946 151 900 q 247 1031 211 992 q 330 1104 286 1071 q 424 1160 374 1138 q 472 1177 447 1169 q 521 1189 496 1185 q 544 1191 525 1189 q 567 1194 563 1193 q 690 1199 628 1206 q 735 1192 713 1196 q 776 1178 757 1188 q 808 1156 794 1171 q 826 1122 821 1142 q 831 1085 832 1104 q 828 1046 831 1065 q 817 1001 825 1029 q 798 943 810 972 q 772 890 786 914 q 744 856 758 865 q 720 846 733 849 q 694 846 707 843 q 651 851 672 849 q 606 851 629 853 q 542 842 574 850 q 485 814 510 833 q 442 760 458 792 q 417 696 426 728 q 401 591 404 644 q 401 485 397 538 q 426 358 406 421 q 441 328 433 343 q 460 300 449 314 q 494 272 474 283 q 536 254 514 261 q 586 248 560 247 q 638 251 613 249 q 674 253 656 253 q 710 249 693 254 q 746 222 731 242 q 771 174 761 201 q 786 119 781 147 q 793 68 792 90 q 792 24 796 46 q 776 -15 788 3 q 750 -42 765 -31 q 718 -61 735 -53 q 649 -82 686 -76 q 575 -89 611 -87 z "},")":{"ha":858,"x_min":28,"x_max":794,"o":"m 431 -75 q 283 -89 361 -93 q 210 -82 247 -87 q 140 -61 174 -76 q 109 -42 124 -53 q 83 -15 94 -31 q 67 24 71 3 q 65 68 63 46 q 72 119 67 90 q 88 174 78 147 q 113 222 97 201 q 149 249 128 242 q 185 253 167 254 q 221 251 203 253 q 273 248 247 249 q 324 254 299 247 q 365 272 346 261 q 400 300 385 283 q 432 358 422 329 q 449 422 443 390 q 457 485 454 453 q 458 591 461 538 q 442 696 456 644 q 417 760 433 728 q 374 814 401 792 q 317 842 350 833 q 253 851 285 850 q 208 851 231 853 q 164 846 186 849 q 138 846 151 843 q 114 856 125 849 q 85 890 99 865 q 61 943 72 914 q 42 1001 50 972 q 31 1046 33 1029 q 28 1085 28 1065 q 33 1122 28 1104 q 51 1156 38 1142 q 82 1178 65 1171 q 124 1192 103 1188 q 169 1199 146 1196 q 293 1194 232 1206 q 315 1191 297 1193 q 338 1189 333 1189 q 387 1177 363 1185 q 435 1160 411 1169 q 529 1104 485 1138 q 611 1031 574 1071 q 728 850 688 953 q 776 686 758 771 q 793 515 793 601 q 781 347 794 432 q 732 186 767 263 q 660 72 704 125 q 560 -17 615 19 q 497 -51 529 -36 q 431 -75 465 -65 z "},"*":{"ha":669,"x_min":44,"x_max":625,"o":"m 414 444 q 390 433 406 438 q 356 426 374 428 q 321 424 338 424 q 293 429 304 425 q 279 434 286 432 q 267 442 272 436 q 255 465 258 450 q 251 499 251 481 q 253 534 251 517 q 254 563 254 551 q 256 571 256 565 q 257 583 256 576 q 220 548 238 564 q 192 525 203 532 q 163 518 178 515 q 142 526 154 519 q 119 540 131 532 q 97 558 107 549 q 82 574 86 567 q 78 591 78 581 q 81 610 78 601 q 92 628 85 621 q 106 643 99 636 q 153 681 129 667 q 176 694 160 685 q 208 714 192 704 q 188 725 197 719 q 168 736 178 731 q 122 758 144 747 q 79 783 99 768 q 59 803 68 792 q 47 828 50 814 q 65 885 44 854 q 108 928 85 915 q 140 929 122 933 q 188 906 156 925 q 247 865 219 886 l 247 868 q 240 906 244 883 q 235 949 236 928 q 238 990 235 971 q 253 1017 240 1008 q 281 1029 263 1024 q 319 1038 299 1035 q 357 1040 339 1040 q 388 1035 375 1039 q 419 1003 410 1029 q 422 976 422 994 q 422 938 422 958 q 419 899 421 918 q 415 872 417 881 q 415 864 415 869 q 413 851 414 858 q 441 883 425 865 q 475 917 457 901 q 510 943 493 932 q 542 954 528 954 q 568 949 556 956 q 590 933 581 943 q 614 896 603 919 q 617 854 625 872 q 596 830 613 843 q 559 803 579 817 q 519 779 539 790 q 490 763 500 768 q 474 751 482 757 q 456 740 465 746 q 507 710 482 726 q 556 675 532 693 q 569 665 561 671 q 587 651 578 658 q 603 635 596 643 q 611 621 610 626 q 610 601 614 610 q 603 582 606 592 q 582 549 594 564 q 553 524 569 533 q 485 531 517 504 q 447 567 464 547 q 411 607 431 588 l 410 608 q 420 551 415 581 q 428 494 425 522 q 427 467 429 482 q 414 444 425 453 z "},"+":{"ha":749,"x_min":42,"x_max":708,"o":"m 432 128 q 374 120 404 119 q 315 128 343 121 q 286 138 300 131 q 265 160 272 146 q 256 188 260 169 q 251 228 253 206 q 250 278 250 251 q 250 331 250 304 q 158 333 201 331 q 97 342 115 335 q 57 378 71 350 q 46 413 50 392 q 42 458 42 435 q 47 501 42 481 q 60 536 51 522 q 82 558 68 550 q 111 572 96 567 q 164 580 138 579 q 217 583 190 581 q 253 588 236 583 q 256 673 254 632 q 265 731 258 714 q 301 771 274 757 q 337 782 315 778 q 381 786 358 786 q 425 781 404 786 q 460 768 446 776 q 481 746 472 760 q 496 717 490 732 q 503 664 503 690 q 506 611 504 638 q 508 595 507 603 q 510 581 508 588 q 528 580 519 581 q 547 579 538 579 q 599 578 574 579 q 649 567 625 578 q 700 508 688 550 q 708 451 708 481 q 700 393 707 421 q 690 363 697 378 q 668 342 682 349 q 601 328 649 331 q 504 326 554 325 q 503 303 503 315 q 503 281 503 292 q 501 228 503 254 q 489 179 500 203 q 432 128 472 142 z "},",":{"ha":458,"x_min":42,"x_max":419,"o":"m 261 -156 q 225 -152 243 -158 q 193 -133 207 -146 q 187 -117 186 -128 q 190 -100 188 -107 q 208 -68 199 -83 q 222 -36 218 -53 q 178 -35 200 -35 q 133 -29 156 -35 q 76 -1 100 -22 q 61 17 67 7 q 51 39 56 28 q 43 88 44 63 q 42 139 42 114 q 56 204 42 175 q 99 260 71 236 q 158 297 126 285 q 222 307 189 308 q 288 297 256 306 q 317 288 303 293 q 343 271 331 282 q 374 238 361 257 q 396 199 386 219 q 408 173 403 186 q 417 144 414 160 q 415 100 419 119 q 398 33 410 65 q 371 -32 386 0 q 367 -43 369 -35 q 363 -54 364 -51 q 339 -93 351 -74 q 311 -128 326 -112 q 288 -145 300 -137 q 261 -156 276 -153 z "},"-":{"ha":693,"x_min":38,"x_max":657,"o":"m 619 353 q 565 342 603 344 q 485 339 528 339 q 403 341 442 339 q 346 343 364 343 q 294 342 331 343 q 217 342 257 342 q 140 345 176 343 q 89 353 104 347 q 51 385 65 361 q 41 417 44 397 q 38 457 38 436 q 42 497 38 478 q 54 528 46 515 q 103 560 71 553 q 151 567 126 567 q 200 569 176 568 q 230 573 215 571 q 260 576 244 575 q 383 573 322 578 q 507 567 444 568 q 555 566 531 567 q 601 556 579 565 q 649 503 635 540 q 656 451 657 478 q 649 399 654 425 q 638 372 646 385 q 619 353 631 360 z "},".":{"ha":438,"x_min":38,"x_max":396,"o":"m 344 50 q 306 19 329 32 q 258 -2 283 6 q 207 -10 233 -10 q 158 -1 181 -10 q 85 49 118 14 q 44 125 53 83 q 45 190 38 156 q 69 253 53 224 q 111 307 86 283 q 167 342 136 331 q 222 351 193 351 q 278 346 250 351 q 323 326 301 342 q 360 290 344 311 q 385 242 375 268 q 394 193 394 217 q 383 117 396 154 q 344 50 369 79 z "},"/":{"ha":626,"x_min":42,"x_max":593,"o":"m 235 -64 q 199 -67 221 -68 q 156 -61 178 -65 q 113 -51 133 -57 q 81 -36 92 -44 q 47 11 56 -17 q 42 42 42 26 q 46 74 43 58 q 57 129 50 101 q 71 185 64 157 q 139 481 106 332 q 226 772 172 629 q 232 790 228 775 q 238 808 236 806 q 271 902 253 856 q 311 993 289 949 q 325 1019 318 1007 q 343 1042 332 1032 q 369 1050 353 1049 q 403 1049 385 1051 q 440 1044 422 1047 q 468 1036 457 1040 q 551 999 511 1024 q 572 981 563 992 q 586 958 582 971 q 592 917 593 939 q 585 875 590 894 q 565 813 578 843 q 539 754 551 783 q 429 474 476 615 q 340 186 382 332 q 327 136 336 169 q 308 66 318 103 q 285 -2 297 29 q 261 -46 272 -33 q 235 -64 253 -57 z "},":":{"ha":475,"x_min":56,"x_max":414,"o":"m 363 508 q 324 477 347 490 q 276 456 301 464 q 225 449 251 449 q 176 457 199 449 q 103 506 136 472 q 63 582 71 540 q 63 648 56 614 q 88 712 71 682 q 129 765 104 742 q 185 800 154 789 q 240 809 211 810 q 296 804 268 808 q 341 785 319 800 q 378 747 363 769 q 403 700 393 725 q 413 650 413 675 q 401 574 414 613 q 363 508 388 536 m 364 50 q 325 19 347 32 q 277 -2 303 6 q 225 -10 251 -10 q 176 -1 199 -10 q 104 49 136 14 q 64 125 72 83 q 65 190 57 156 q 89 253 72 224 q 131 307 106 283 q 186 342 156 331 q 240 351 213 351 q 296 346 268 351 q 342 326 321 342 q 378 290 363 311 q 404 242 394 268 q 414 193 414 217 q 401 117 414 154 q 364 50 389 79 z "},";":{"ha":467,"x_min":54,"x_max":413,"o":"m 361 508 q 323 477 346 490 q 275 456 300 464 q 224 449 250 449 q 175 457 197 449 q 102 506 135 472 q 61 582 69 540 q 62 648 54 614 q 86 712 69 682 q 128 765 103 742 q 183 800 153 789 q 238 809 210 810 q 294 804 267 808 q 340 785 318 800 q 376 747 361 769 q 401 700 392 725 q 411 650 411 675 q 399 574 413 613 q 361 508 386 536 m 257 -117 q 225 -114 242 -119 q 197 -97 208 -108 q 192 -83 192 -92 q 194 -67 192 -74 q 210 -40 201 -53 q 222 -11 219 -26 q 183 -10 203 -10 q 144 -6 164 -10 q 94 19 114 1 q 74 56 81 33 q 65 98 67 76 q 64 142 64 119 q 67 172 65 157 q 76 199 69 186 q 115 248 90 226 q 167 281 139 269 q 222 290 193 292 q 279 281 251 289 q 328 258 308 274 q 355 229 343 246 q 375 194 367 213 q 386 172 382 183 q 393 147 390 160 q 392 108 396 125 q 377 49 388 78 q 353 -8 367 19 q 349 -18 351 -11 q 346 -28 347 -25 q 325 -60 336 -44 q 300 -92 314 -76 q 280 -107 290 -100 q 257 -117 269 -114 z "},"<":{"ha":704,"x_min":36,"x_max":653,"o":"m 531 94 q 474 79 504 81 q 417 89 444 78 q 340 127 376 104 q 269 175 304 150 q 211 220 239 196 q 157 271 183 244 q 118 312 138 292 q 81 356 99 332 q 56 394 65 374 q 40 439 47 415 q 41 478 36 458 q 56 514 46 497 q 92 574 72 546 q 135 632 113 603 q 214 726 172 681 q 300 817 256 772 q 370 888 335 853 q 446 950 406 922 q 484 971 463 963 q 526 976 506 979 q 578 956 554 974 q 621 919 601 939 q 650 861 646 894 q 638 793 653 825 q 621 765 631 778 q 600 739 611 751 q 508 656 558 693 q 411 579 458 619 q 389 557 404 572 q 375 531 374 542 q 388 510 375 522 q 408 492 401 497 q 451 456 429 472 q 496 422 474 439 q 549 383 524 403 q 597 339 575 363 q 622 301 613 322 q 633 258 632 281 q 624 213 633 238 q 599 165 614 189 q 567 122 585 142 q 531 94 549 103 z "},"=":{"ha":668,"x_min":50,"x_max":619,"o":"m 354 511 q 317 510 344 511 q 256 509 289 510 q 196 508 224 508 q 158 508 168 508 q 127 512 143 510 q 99 522 111 514 q 74 556 79 533 q 70 578 71 564 q 70 610 69 593 q 72 641 71 626 q 76 664 74 656 q 108 703 85 688 q 147 721 126 715 q 189 729 168 726 q 269 738 229 736 q 350 742 310 740 q 406 742 371 742 q 476 740 440 743 q 544 728 513 736 q 590 706 575 721 q 608 671 601 693 q 617 633 614 654 q 617 592 619 613 q 608 553 615 571 q 588 526 601 536 q 553 513 572 517 q 515 510 535 510 q 485 510 508 510 q 435 510 461 510 q 385 511 408 511 q 354 511 361 511 m 335 189 q 297 188 325 189 q 237 187 269 188 q 176 186 204 186 q 138 186 147 186 q 107 190 122 188 q 79 200 92 193 q 53 235 60 211 q 50 258 50 243 q 51 289 50 272 q 53 320 51 306 q 57 342 54 335 q 89 382 65 367 q 128 399 107 393 q 169 408 149 406 q 250 417 210 415 q 331 421 290 419 q 386 421 351 421 q 457 418 421 421 q 524 408 493 415 q 571 383 556 400 q 589 349 582 371 q 597 311 594 332 q 598 270 600 290 q 588 233 596 250 q 567 206 581 215 q 533 192 551 194 q 496 188 515 189 q 465 188 489 188 q 415 188 442 188 q 365 189 389 189 q 335 189 342 189 z "},">":{"ha":704,"x_min":51,"x_max":668,"o":"m 288 89 q 230 79 260 78 q 174 94 200 81 q 137 122 156 103 q 103 165 118 142 q 80 213 89 189 q 71 258 71 238 q 82 301 72 281 q 107 339 92 322 q 155 383 129 363 q 207 422 181 403 q 253 456 231 439 q 296 492 275 472 q 316 510 303 497 q 329 531 329 522 q 315 557 331 542 q 293 579 300 572 q 196 656 246 619 q 104 739 146 693 q 83 765 93 751 q 67 793 74 778 q 54 861 51 825 q 64 893 56 878 q 83 919 72 908 q 126 956 103 939 q 178 976 150 974 q 219 971 199 979 q 258 950 240 963 q 334 888 299 922 q 404 817 369 853 q 490 726 449 772 q 569 632 532 681 q 612 574 592 603 q 649 514 632 546 q 663 478 658 497 q 663 439 668 458 q 624 356 651 393 q 586 312 606 332 q 547 271 567 292 q 492 220 519 244 q 435 175 465 196 q 364 127 400 150 q 288 89 328 104 z "},"?":{"ha":900,"x_min":31,"x_max":861,"o":"m 468 318 q 354 314 413 313 q 324 315 339 314 q 293 321 308 317 q 260 347 271 329 q 247 376 250 361 q 240 406 243 390 q 238 438 239 415 q 236 485 236 461 q 238 532 236 510 q 244 564 240 554 q 267 587 250 579 q 303 600 285 594 q 385 615 343 611 q 468 625 426 619 q 503 632 486 628 q 533 644 519 636 q 556 663 547 651 q 572 688 565 675 q 583 728 583 707 q 574 767 583 750 q 547 795 565 785 q 504 801 529 806 q 472 792 488 799 q 443 775 457 785 q 370 713 403 747 q 301 644 338 678 q 262 616 285 629 q 214 603 239 603 q 156 614 185 603 q 102 642 126 625 q 60 683 78 660 q 39 731 43 706 q 50 815 31 774 q 96 892 68 856 q 157 963 124 929 q 306 1052 221 1025 q 479 1074 390 1079 q 650 1032 568 1068 q 790 931 732 996 q 828 879 813 907 q 850 821 843 851 q 853 718 861 771 q 822 617 846 665 q 795 572 811 593 q 756 535 779 550 q 625 489 696 496 q 610 488 619 489 q 592 485 601 486 q 574 481 582 483 q 561 476 565 479 q 555 463 557 472 q 553 444 553 454 q 553 423 553 433 q 553 407 553 413 q 548 371 553 389 q 528 339 543 353 q 501 325 517 329 q 468 318 485 321 m 474 -7 q 420 -25 450 -19 q 359 -28 390 -31 q 300 -17 328 -26 q 254 13 272 -7 q 228 63 235 33 q 226 121 221 93 q 241 164 231 143 q 268 200 251 185 q 304 227 285 215 q 346 244 324 239 q 401 253 374 251 q 457 247 429 254 q 504 220 485 239 q 534 177 524 201 q 546 124 544 153 q 538 69 547 96 q 513 26 531 46 q 474 -7 496 6 z "},"@":{"ha":1401,"x_min":56,"x_max":1349,"o":"m 815 -267 q 619 -259 718 -274 q 432 -204 519 -244 q 274 -107 349 -165 q 149 26 200 -49 q 111 92 126 58 q 85 163 96 126 q 59 305 63 232 q 65 449 56 378 q 94 582 75 515 q 151 706 114 649 q 289 869 210 794 q 464 992 368 944 q 604 1051 531 1026 q 753 1075 678 1076 q 828 1071 790 1075 q 904 1060 867 1067 q 994 1037 950 1053 q 1078 999 1038 1021 q 1144 958 1111 979 q 1204 908 1176 936 q 1253 844 1232 879 q 1293 772 1275 808 q 1324 697 1311 736 q 1342 618 1338 658 q 1340 484 1349 551 q 1308 354 1332 417 q 1237 247 1285 296 q 1128 181 1189 197 q 1071 175 1100 174 q 1015 185 1042 176 q 964 214 988 193 q 928 263 940 235 q 905 240 917 250 q 882 218 893 229 q 844 187 864 201 q 801 163 825 172 q 730 147 769 149 q 651 155 690 146 q 578 183 613 164 q 524 229 544 201 q 488 301 500 261 q 479 381 476 340 q 503 505 482 443 q 564 615 525 567 q 611 660 583 642 q 669 689 639 678 q 731 708 700 700 q 794 719 763 717 q 901 700 850 724 q 979 664 946 689 q 1043 574 1026 629 q 1050 534 1049 554 q 1050 494 1051 514 q 1049 481 1050 490 q 1047 460 1047 471 q 1045 440 1046 449 q 1046 426 1044 431 q 1072 431 1060 421 q 1085 451 1081 438 q 1092 480 1090 464 q 1094 511 1094 496 q 1093 536 1094 526 q 1086 580 1090 558 q 1072 621 1082 601 q 1023 693 1054 661 q 951 744 992 725 q 857 775 904 767 q 718 776 789 786 q 585 733 647 765 q 502 678 540 711 q 436 604 464 646 q 382 465 396 542 q 383 315 368 388 q 408 243 392 278 q 449 178 425 208 q 480 142 464 158 q 517 114 496 125 q 651 69 581 78 q 765 67 708 63 q 876 82 821 72 q 959 99 918 90 q 1040 122 1000 108 q 1089 139 1064 131 q 1139 144 1114 147 q 1165 133 1153 143 q 1183 111 1176 124 q 1199 72 1193 92 q 1208 32 1204 53 q 1215 -31 1215 1 q 1199 -92 1214 -64 q 1133 -160 1179 -129 q 1030 -213 1086 -190 q 915 -250 974 -236 q 815 -267 857 -264 m 715 413 q 743 382 722 390 q 786 382 764 374 q 833 413 813 390 q 860 464 853 436 q 864 490 863 476 q 858 514 865 503 q 835 531 851 525 q 807 536 818 538 q 797 536 804 536 q 786 533 789 536 q 758 510 772 524 q 732 479 743 496 q 715 445 721 463 q 715 413 710 428 z "},"A":{"ha":1040,"x_min":31,"x_max":1000,"o":"m 244 -46 q 178 -42 213 -50 q 117 -14 143 -33 q 59 46 78 14 q 35 114 40 78 q 35 190 31 150 q 49 274 40 229 q 79 417 64 346 q 114 560 94 489 q 174 735 138 649 q 263 897 210 821 q 346 998 299 950 q 454 1069 393 1046 q 513 1088 482 1081 q 575 1090 544 1094 q 635 1072 607 1086 q 688 1039 664 1058 q 784 933 744 994 q 853 807 824 872 q 958 492 921 656 q 1000 163 996 328 q 997 106 1000 135 q 981 51 993 76 q 963 26 974 38 q 938 8 951 15 q 888 -6 914 -3 q 838 -3 863 -10 q 794 19 814 3 q 761 65 774 36 q 717 122 746 103 q 656 147 689 140 q 588 151 622 153 q 524 144 553 149 q 458 124 483 139 q 414 88 433 108 q 377 42 394 67 q 335 -4 360 18 q 292 -32 315 -21 q 244 -46 269 -43 m 511 301 q 551 299 531 299 q 592 303 572 300 q 627 311 610 306 q 657 329 644 317 q 681 368 675 347 q 685 412 688 389 q 676 457 683 435 q 663 500 669 479 q 642 551 656 522 q 612 600 629 581 q 573 620 594 619 q 526 588 551 621 q 485 509 499 551 q 463 424 471 467 q 457 384 458 404 q 460 347 456 364 q 476 317 464 329 q 511 301 488 306 z "},"À":{"ha":1040,"x_min":31,"x_max":1000,"o":"m 244 -46 q 178 -42 213 -50 q 117 -14 143 -33 q 59 46 78 14 q 35 114 40 78 q 35 190 31 150 q 49 274 40 229 q 79 417 64 346 q 114 560 94 489 q 174 735 138 649 q 263 897 210 821 q 346 998 299 950 q 454 1069 393 1046 q 513 1088 482 1081 q 575 1090 544 1094 q 635 1072 607 1086 q 688 1039 664 1058 q 784 933 744 994 q 853 807 824 872 q 958 492 921 656 q 1000 163 996 328 q 997 106 1000 135 q 981 51 993 76 q 963 26 974 38 q 938 8 951 15 q 888 -6 914 -3 q 838 -3 863 -10 q 794 19 814 3 q 761 65 774 36 q 717 122 746 103 q 656 147 689 140 q 588 151 622 153 q 524 144 553 149 q 458 124 483 139 q 414 88 433 108 q 377 42 394 67 q 335 -4 360 18 q 292 -32 315 -21 q 244 -46 269 -43 m 511 301 q 551 299 531 299 q 592 303 572 300 q 627 311 610 306 q 657 329 644 317 q 681 368 675 347 q 685 412 688 389 q 676 457 683 435 q 663 500 669 479 q 642 551 656 522 q 612 600 629 581 q 573 620 594 619 q 526 588 551 621 q 485 509 499 551 q 463 424 471 467 q 457 384 458 404 q 460 347 456 364 q 476 317 464 329 q 511 301 488 306 z "},"Á":{"ha":1040,"x_min":31,"x_max":1000,"o":"m 244 -46 q 178 -42 213 -50 q 117 -14 143 -33 q 59 46 78 14 q 35 114 40 78 q 35 190 31 150 q 49 274 40 229 q 79 417 64 346 q 114 560 94 489 q 174 735 138 649 q 263 897 210 821 q 346 998 299 950 q 454 1069 393 1046 q 513 1088 482 1081 q 575 1090 544 1094 q 635 1072 607 1086 q 688 1039 664 1058 q 784 933 744 994 q 853 807 824 872 q 958 492 921 656 q 1000 163 996 328 q 997 106 1000 135 q 981 51 993 76 q 963 26 974 38 q 938 8 951 15 q 888 -6 914 -3 q 838 -3 863 -10 q 794 19 814 3 q 761 65 774 36 q 717 122 746 103 q 656 147 689 140 q 588 151 622 153 q 524 144 553 149 q 458 124 483 139 q 414 88 433 108 q 377 42 394 67 q 335 -4 360 18 q 292 -32 315 -21 q 244 -46 269 -43 m 511 301 q 551 299 531 299 q 592 303 572 300 q 627 311 610 306 q 657 329 644 317 q 681 368 675 347 q 685 412 688 389 q 676 457 683 435 q 663 500 669 479 q 642 551 656 522 q 612 600 629 581 q 573 620 594 619 q 526 588 551 621 q 485 509 499 551 q 463 424 471 467 q 457 384 458 404 q 460 347 456 364 q 476 317 464 329 q 511 301 488 306 z "},"Â":{"ha":1040,"x_min":31,"x_max":1000,"o":"m 244 -46 q 178 -42 213 -50 q 117 -14 143 -33 q 59 46 78 14 q 35 114 40 78 q 35 190 31 150 q 49 274 40 229 q 79 417 64 346 q 114 560 94 489 q 174 735 138 649 q 263 897 210 821 q 346 998 299 950 q 454 1069 393 1046 q 513 1088 482 1081 q 575 1090 544 1094 q 635 1072 607 1086 q 688 1039 664 1058 q 784 933 744 994 q 853 807 824 872 q 958 492 921 656 q 1000 163 996 328 q 997 106 1000 135 q 981 51 993 76 q 963 26 974 38 q 938 8 951 15 q 888 -6 914 -3 q 838 -3 863 -10 q 794 19 814 3 q 761 65 774 36 q 717 122 746 103 q 656 147 689 140 q 588 151 622 153 q 524 144 553 149 q 458 124 483 139 q 414 88 433 108 q 377 42 394 67 q 335 -4 360 18 q 292 -32 315 -21 q 244 -46 269 -43 m 511 301 q 551 299 531 299 q 592 303 572 300 q 627 311 610 306 q 657 329 644 317 q 681 368 675 347 q 685 412 688 389 q 676 457 683 435 q 663 500 669 479 q 642 551 656 522 q 612 600 629 581 q 573 620 594 619 q 526 588 551 621 q 485 509 499 551 q 463 424 471 467 q 457 384 458 404 q 460 347 456 364 q 476 317 464 329 q 511 301 488 306 z "},"Ã":{"ha":1040,"x_min":31,"x_max":1000,"o":"m 244 -46 q 178 -42 213 -50 q 117 -14 143 -33 q 59 46 78 14 q 35 114 40 78 q 35 190 31 150 q 49 274 40 229 q 79 417 64 346 q 114 560 94 489 q 174 735 138 649 q 263 897 210 821 q 346 998 299 950 q 454 1069 393 1046 q 513 1088 482 1081 q 575 1090 544 1094 q 635 1072 607 1086 q 688 1039 664 1058 q 784 933 744 994 q 853 807 824 872 q 958 492 921 656 q 1000 163 996 328 q 997 106 1000 135 q 981 51 993 76 q 963 26 974 38 q 938 8 951 15 q 888 -6 914 -3 q 838 -3 863 -10 q 794 19 814 3 q 761 65 774 36 q 717 122 746 103 q 656 147 689 140 q 588 151 622 153 q 524 144 553 149 q 458 124 483 139 q 414 88 433 108 q 377 42 394 67 q 335 -4 360 18 q 292 -32 315 -21 q 244 -46 269 -43 m 511 301 q 551 299 531 299 q 592 303 572 300 q 627 311 610 306 q 657 329 644 317 q 681 368 675 347 q 685 412 688 389 q 676 457 683 435 q 663 500 669 479 q 642 551 656 522 q 612 600 629 581 q 573 620 594 619 q 526 588 551 621 q 485 509 499 551 q 463 424 471 467 q 457 384 458 404 q 460 347 456 364 q 476 317 464 329 q 511 301 488 306 z "},"Ä":{"ha":1040,"x_min":31,"x_max":1000,"o":"m 244 -46 q 178 -42 213 -50 q 117 -14 143 -33 q 59 46 78 14 q 35 114 40 78 q 35 190 31 150 q 49 274 40 229 q 79 417 64 346 q 114 560 94 489 q 174 735 138 649 q 263 897 210 821 q 346 998 299 950 q 454 1069 393 1046 q 513 1088 482 1081 q 575 1090 544 1094 q 635 1072 607 1086 q 688 1039 664 1058 q 784 933 744 994 q 853 807 824 872 q 958 492 921 656 q 1000 163 996 328 q 997 106 1000 135 q 981 51 993 76 q 963 26 974 38 q 938 8 951 15 q 888 -6 914 -3 q 838 -3 863 -10 q 794 19 814 3 q 761 65 774 36 q 717 122 746 103 q 656 147 689 140 q 588 151 622 153 q 524 144 553 149 q 458 124 483 139 q 414 88 433 108 q 377 42 394 67 q 335 -4 360 18 q 292 -32 315 -21 q 244 -46 269 -43 m 511 301 q 551 299 531 299 q 592 303 572 300 q 627 311 610 306 q 657 329 644 317 q 681 368 675 347 q 685 412 688 389 q 676 457 683 435 q 663 500 669 479 q 642 551 656 522 q 612 600 629 581 q 573 620 594 619 q 526 588 551 621 q 485 509 499 551 q 463 424 471 467 q 457 384 458 404 q 460 347 456 364 q 476 317 464 329 q 511 301 488 306 z "},"Å":{"ha":1040,"x_min":31,"x_max":1000,"o":"m 244 -46 q 178 -42 213 -50 q 117 -14 143 -33 q 59 46 78 14 q 35 114 40 78 q 35 190 31 150 q 49 274 40 229 q 79 417 64 346 q 114 560 94 489 q 174 735 138 649 q 263 897 210 821 q 346 998 299 950 q 454 1069 393 1046 q 513 1088 482 1081 q 575 1090 544 1094 q 635 1072 607 1086 q 688 1039 664 1058 q 784 933 744 994 q 853 807 824 872 q 958 492 921 656 q 1000 163 996 328 q 997 106 1000 135 q 981 51 993 76 q 963 26 974 38 q 938 8 951 15 q 888 -6 914 -3 q 838 -3 863 -10 q 794 19 814 3 q 761 65 774 36 q 717 122 746 103 q 656 147 689 140 q 588 151 622 153 q 524 144 553 149 q 458 124 483 139 q 414 88 433 108 q 377 42 394 67 q 335 -4 360 18 q 292 -32 315 -21 q 244 -46 269 -43 m 511 301 q 551 299 531 299 q 592 303 572 300 q 627 311 610 306 q 657 329 644 317 q 681 368 675 347 q 685 412 688 389 q 676 457 683 435 q 663 500 669 479 q 642 551 656 522 q 612 600 629 581 q 573 620 594 619 q 526 588 551 621 q 485 509 499 551 q 463 424 471 467 q 457 384 458 404 q 460 347 456 364 q 476 317 464 329 q 511 301 488 306 z "},"B":{"ha":1038,"x_min":56,"x_max":1013,"o":"m 722 4 q 526 -24 626 -19 q 325 -22 425 -29 q 283 -17 308 -21 q 233 -7 258 -14 q 185 10 207 0 q 154 32 163 19 q 144 53 147 42 q 138 75 140 64 q 133 102 135 83 q 128 144 131 121 q 118 206 124 171 q 108 274 113 242 q 99 333 103 307 q 93 368 94 358 q 74 500 82 435 q 60 632 65 565 q 56 736 56 683 q 68 839 56 789 q 119 951 83 900 q 153 985 135 969 q 194 1010 171 1000 q 285 1034 238 1028 q 381 1042 333 1040 q 499 1036 440 1043 q 617 1015 558 1029 q 719 985 668 1004 q 808 933 771 967 q 871 844 850 897 q 890 739 892 792 q 880 688 889 713 q 858 639 871 663 q 815 582 840 608 q 761 532 790 556 q 803 524 792 528 q 899 478 854 511 q 983 375 953 436 q 1008 290 1003 335 q 1001 201 1013 244 q 962 129 990 163 q 897 71 933 96 q 814 30 860 44 q 722 4 768 15 m 356 586 q 382 583 364 583 q 419 585 400 583 q 457 588 439 586 q 485 593 475 590 q 529 606 507 597 q 565 631 551 614 q 574 690 589 658 q 525 738 560 722 q 487 747 507 744 q 447 747 467 749 q 420 743 436 746 q 388 735 404 740 q 358 724 372 731 q 338 711 343 718 q 332 693 333 706 q 331 667 331 681 q 331 642 331 654 q 332 622 332 629 q 340 602 333 614 q 356 586 347 590 m 385 269 q 410 239 389 247 q 459 231 431 231 q 518 236 488 231 q 571 247 549 242 q 596 256 583 250 q 619 268 608 261 q 655 312 644 285 q 646 361 665 339 q 616 378 636 372 q 572 385 596 383 q 526 387 549 388 q 488 385 503 386 q 463 383 478 385 q 432 378 447 381 q 404 369 417 375 q 386 356 392 364 q 379 314 376 340 q 385 269 382 288 z "},"C":{"ha":921,"x_min":40,"x_max":871,"o":"m 771 74 q 653 -6 721 24 q 514 -43 586 -36 q 372 -33 442 -50 q 246 28 301 -17 q 112 189 158 96 q 53 386 65 282 q 57 597 40 490 q 113 801 74 704 q 206 947 147 886 q 335 1040 264 1007 q 484 1079 407 1074 q 631 1058 561 1085 q 760 974 701 1032 q 851 824 818 917 q 867 723 871 768 q 844 647 863 678 q 796 600 825 615 q 735 589 767 585 q 673 620 703 593 q 624 700 643 647 q 549 759 604 753 q 428 718 493 765 q 380 654 400 699 q 354 557 360 610 q 363 453 349 504 q 418 371 376 403 q 460 352 433 360 q 520 347 486 344 q 592 366 554 350 q 668 418 631 382 q 747 461 710 458 q 810 441 783 464 q 852 376 838 418 q 865 281 867 333 q 840 174 863 229 q 771 74 818 119 z "},"Ç":{"ha":921,"x_min":40,"x_max":871,"o":"m 771 74 q 653 -6 721 24 q 514 -43 586 -36 q 372 -33 442 -50 q 246 28 301 -17 q 112 189 158 96 q 53 386 65 282 q 57 597 40 490 q 113 801 74 704 q 206 947 147 886 q 335 1040 264 1007 q 484 1079 407 1074 q 631 1058 561 1085 q 760 974 701 1032 q 851 824 818 917 q 867 723 871 768 q 844 647 863 678 q 796 600 825 615 q 735 589 767 585 q 673 620 703 593 q 624 700 643 647 q 549 759 604 753 q 428 718 493 765 q 380 654 400 699 q 354 557 360 610 q 363 453 349 504 q 418 371 376 403 q 460 352 433 360 q 520 347 486 344 q 592 366 554 350 q 668 418 631 382 q 747 461 710 458 q 810 441 783 464 q 852 376 838 418 q 865 281 867 333 q 840 174 863 229 q 771 74 818 119 z "},"D":{"ha":1040,"x_min":39,"x_max":1003,"o":"m 656 21 q 549 -6 604 1 q 438 -12 493 -12 q 381 -8 410 -12 q 324 -1 351 -4 q 252 10 288 3 q 183 32 217 18 q 162 44 172 38 q 144 60 151 50 q 134 85 136 71 q 132 113 132 99 q 130 229 128 171 q 129 347 132 288 q 128 360 129 350 q 126 374 128 371 q 90 558 110 467 q 54 743 69 650 q 43 824 47 783 q 54 900 39 864 q 76 938 61 921 q 111 969 92 956 q 192 1015 147 997 q 282 1044 236 1033 q 463 1061 369 1065 q 643 1033 556 1057 q 763 983 706 1017 q 863 904 821 950 q 927 813 900 863 q 969 710 954 763 q 1000 529 997 622 q 976 349 1003 436 q 941 266 964 306 q 889 190 918 226 q 785 92 844 136 q 656 21 725 47 m 401 622 q 419 501 406 560 q 438 381 432 442 q 476 383 457 381 q 514 392 496 385 q 551 411 533 399 q 585 439 569 424 q 630 495 610 464 q 653 560 650 526 q 645 619 654 589 q 619 674 636 649 q 577 719 601 700 q 522 743 553 738 q 453 738 489 750 q 408 694 418 725 q 401 659 401 678 q 401 622 400 640 z "},"E":{"ha":835,"x_min":75,"x_max":797,"o":"m 517 57 q 431 40 486 53 q 317 18 376 28 q 205 8 258 8 q 125 24 151 7 q 100 51 110 33 q 86 89 90 69 q 80 129 82 108 q 76 169 78 150 q 76 216 76 183 q 78 292 76 249 q 80 382 79 335 q 82 472 81 429 q 84 548 83 515 q 85 594 85 581 q 85 622 85 601 q 87 666 86 643 q 88 710 88 689 q 86 738 88 731 q 78 828 81 782 q 79 919 75 875 q 86 956 82 938 q 103 985 90 974 q 133 998 115 996 q 165 1000 150 1000 q 322 999 244 1004 q 478 992 399 994 q 517 991 488 992 q 582 990 547 990 q 647 988 617 989 q 686 986 676 986 q 721 983 703 985 q 754 971 739 981 q 782 936 772 960 q 794 884 792 913 q 795 826 797 856 q 790 776 793 797 q 781 729 788 753 q 758 686 774 706 q 696 649 735 658 q 635 646 667 642 q 574 657 604 650 q 539 666 554 661 q 510 675 524 671 q 481 683 496 679 q 446 688 467 686 q 400 685 419 690 q 379 672 388 682 q 372 653 374 664 q 368 632 369 643 q 368 603 367 618 q 381 578 369 589 q 410 561 392 565 q 447 557 429 557 q 481 558 467 557 q 507 560 494 558 q 533 564 519 563 q 565 567 546 565 q 590 565 578 567 q 614 557 603 564 q 628 542 622 551 q 638 524 635 533 q 645 492 644 508 q 646 458 646 475 q 642 428 646 442 q 619 403 635 411 q 583 394 607 396 q 531 393 558 393 q 478 394 503 393 q 439 394 453 396 q 410 389 425 392 q 385 378 396 386 q 366 351 372 368 q 358 316 360 335 q 358 278 356 297 q 364 244 360 258 q 381 225 369 229 q 407 222 393 221 q 435 228 421 224 q 461 235 450 232 q 495 243 481 239 q 523 252 510 247 q 550 262 536 257 q 583 274 564 267 q 617 284 597 278 q 657 294 638 290 q 694 297 676 299 q 722 286 713 296 q 733 265 728 279 q 742 235 738 251 q 748 203 746 218 q 751 179 750 188 q 749 143 753 161 q 735 111 746 125 q 706 90 724 96 q 668 79 688 83 q 639 74 661 78 q 592 67 617 71 q 546 61 568 64 q 517 57 524 58 z "},"È":{"ha":835,"x_min":75,"x_max":797,"o":"m 517 57 q 431 40 486 53 q 317 18 376 28 q 205 8 258 8 q 125 24 151 7 q 100 51 110 33 q 86 89 90 69 q 80 129 82 108 q 76 169 78 150 q 76 216 76 183 q 78 292 76 249 q 80 382 79 335 q 82 472 81 429 q 84 548 83 515 q 85 594 85 581 q 85 622 85 601 q 87 666 86 643 q 88 710 88 689 q 86 738 88 731 q 78 828 81 782 q 79 919 75 875 q 86 956 82 938 q 103 985 90 974 q 133 998 115 996 q 165 1000 150 1000 q 322 999 244 1004 q 478 992 399 994 q 517 991 488 992 q 582 990 547 990 q 647 988 617 989 q 686 986 676 986 q 721 983 703 985 q 754 971 739 981 q 782 936 772 960 q 794 884 792 913 q 795 826 797 856 q 790 776 793 797 q 781 729 788 753 q 758 686 774 706 q 696 649 735 658 q 635 646 667 642 q 574 657 604 650 q 539 666 554 661 q 510 675 524 671 q 481 683 496 679 q 446 688 467 686 q 400 685 419 690 q 379 672 388 682 q 372 653 374 664 q 368 632 369 643 q 368 603 367 618 q 381 578 369 589 q 410 561 392 565 q 447 557 429 557 q 481 558 467 557 q 507 560 494 558 q 533 564 519 563 q 565 567 546 565 q 590 565 578 567 q 614 557 603 564 q 628 542 622 551 q 638 524 635 533 q 645 492 644 508 q 646 458 646 475 q 642 428 646 442 q 619 403 635 411 q 583 394 607 396 q 531 393 558 393 q 478 394 503 393 q 439 394 453 396 q 410 389 425 392 q 385 378 396 386 q 366 351 372 368 q 358 316 360 335 q 358 278 356 297 q 364 244 360 258 q 381 225 369 229 q 407 222 393 221 q 435 228 421 224 q 461 235 450 232 q 495 243 481 239 q 523 252 510 247 q 550 262 536 257 q 583 274 564 267 q 617 284 597 278 q 657 294 638 290 q 694 297 676 299 q 722 286 713 296 q 733 265 728 279 q 742 235 738 251 q 748 203 746 218 q 751 179 750 188 q 749 143 753 161 q 735 111 746 125 q 706 90 724 96 q 668 79 688 83 q 639 74 661 78 q 592 67 617 71 q 546 61 568 64 q 517 57 524 58 z "},"É":{"ha":835,"x_min":75,"x_max":797,"o":"m 517 57 q 431 40 486 53 q 317 18 376 28 q 205 8 258 8 q 125 24 151 7 q 100 51 110 33 q 86 89 90 69 q 80 129 82 108 q 76 169 78 150 q 76 216 76 183 q 78 292 76 249 q 80 382 79 335 q 82 472 81 429 q 84 548 83 515 q 85 594 85 581 q 85 622 85 601 q 87 666 86 643 q 88 710 88 689 q 86 738 88 731 q 78 828 81 782 q 79 919 75 875 q 86 956 82 938 q 103 985 90 974 q 133 998 115 996 q 165 1000 150 1000 q 322 999 244 1004 q 478 992 399 994 q 517 991 488 992 q 582 990 547 990 q 647 988 617 989 q 686 986 676 986 q 721 983 703 985 q 754 971 739 981 q 782 936 772 960 q 794 884 792 913 q 795 826 797 856 q 790 776 793 797 q 781 729 788 753 q 758 686 774 706 q 696 649 735 658 q 635 646 667 642 q 574 657 604 650 q 539 666 554 661 q 510 675 524 671 q 481 683 496 679 q 446 688 467 686 q 400 685 419 690 q 379 672 388 682 q 372 653 374 664 q 368 632 369 643 q 368 603 367 618 q 381 578 369 589 q 410 561 392 565 q 447 557 429 557 q 481 558 467 557 q 507 560 494 558 q 533 564 519 563 q 565 567 546 565 q 590 565 578 567 q 614 557 603 564 q 628 542 622 551 q 638 524 635 533 q 645 492 644 508 q 646 458 646 475 q 642 428 646 442 q 619 403 635 411 q 583 394 607 396 q 531 393 558 393 q 478 394 503 393 q 439 394 453 396 q 410 389 425 392 q 385 378 396 386 q 366 351 372 368 q 358 316 360 335 q 358 278 356 297 q 364 244 360 258 q 381 225 369 229 q 407 222 393 221 q 435 228 421 224 q 461 235 450 232 q 495 243 481 239 q 523 252 510 247 q 550 262 536 257 q 583 274 564 267 q 617 284 597 278 q 657 294 638 290 q 694 297 676 299 q 722 286 713 296 q 733 265 728 279 q 742 235 738 251 q 748 203 746 218 q 751 179 750 188 q 749 143 753 161 q 735 111 746 125 q 706 90 724 96 q 668 79 688 83 q 639 74 661 78 q 592 67 617 71 q 546 61 568 64 q 517 57 524 58 z "},"Ê":{"ha":835,"x_min":75,"x_max":797,"o":"m 517 57 q 431 40 486 53 q 317 18 376 28 q 205 8 258 8 q 125 24 151 7 q 100 51 110 33 q 86 89 90 69 q 80 129 82 108 q 76 169 78 150 q 76 216 76 183 q 78 292 76 249 q 80 382 79 335 q 82 472 81 429 q 84 548 83 515 q 85 594 85 581 q 85 622 85 601 q 87 666 86 643 q 88 710 88 689 q 86 738 88 731 q 78 828 81 782 q 79 919 75 875 q 86 956 82 938 q 103 985 90 974 q 133 998 115 996 q 165 1000 150 1000 q 322 999 244 1004 q 478 992 399 994 q 517 991 488 992 q 582 990 547 990 q 647 988 617 989 q 686 986 676 986 q 721 983 703 985 q 754 971 739 981 q 782 936 772 960 q 794 884 792 913 q 795 826 797 856 q 790 776 793 797 q 781 729 788 753 q 758 686 774 706 q 696 649 735 658 q 635 646 667 642 q 574 657 604 650 q 539 666 554 661 q 510 675 524 671 q 481 683 496 679 q 446 688 467 686 q 400 685 419 690 q 379 672 388 682 q 372 653 374 664 q 368 632 369 643 q 368 603 367 618 q 381 578 369 589 q 410 561 392 565 q 447 557 429 557 q 481 558 467 557 q 507 560 494 558 q 533 564 519 563 q 565 567 546 565 q 590 565 578 567 q 614 557 603 564 q 628 542 622 551 q 638 524 635 533 q 645 492 644 508 q 646 458 646 475 q 642 428 646 442 q 619 403 635 411 q 583 394 607 396 q 531 393 558 393 q 478 394 503 393 q 439 394 453 396 q 410 389 425 392 q 385 378 396 386 q 366 351 372 368 q 358 316 360 335 q 358 278 356 297 q 364 244 360 258 q 381 225 369 229 q 407 222 393 221 q 435 228 421 224 q 461 235 450 232 q 495 243 481 239 q 523 252 510 247 q 550 262 536 257 q 583 274 564 267 q 617 284 597 278 q 657 294 638 290 q 694 297 676 299 q 722 286 713 296 q 733 265 728 279 q 742 235 738 251 q 748 203 746 218 q 751 179 750 188 q 749 143 753 161 q 735 111 746 125 q 706 90 724 96 q 668 79 688 83 q 639 74 661 78 q 592 67 617 71 q 546 61 568 64 q 517 57 524 58 z "},"Ë":{"ha":835,"x_min":75,"x_max":797,"o":"m 517 57 q 431 40 486 53 q 317 18 376 28 q 205 8 258 8 q 125 24 151 7 q 100 51 110 33 q 86 89 90 69 q 80 129 82 108 q 76 169 78 150 q 76 216 76 183 q 78 292 76 249 q 80 382 79 335 q 82 472 81 429 q 84 548 83 515 q 85 594 85 581 q 85 622 85 601 q 87 666 86 643 q 88 710 88 689 q 86 738 88 731 q 78 828 81 782 q 79 919 75 875 q 86 956 82 938 q 103 985 90 974 q 133 998 115 996 q 165 1000 150 1000 q 322 999 244 1004 q 478 992 399 994 q 517 991 488 992 q 582 990 547 990 q 647 988 617 989 q 686 986 676 986 q 721 983 703 985 q 754 971 739 981 q 782 936 772 960 q 794 884 792 913 q 795 826 797 856 q 790 776 793 797 q 781 729 788 753 q 758 686 774 706 q 696 649 735 658 q 635 646 667 642 q 574 657 604 650 q 539 666 554 661 q 510 675 524 671 q 481 683 496 679 q 446 688 467 686 q 400 685 419 690 q 379 672 388 682 q 372 653 374 664 q 368 632 369 643 q 368 603 367 618 q 381 578 369 589 q 410 561 392 565 q 447 557 429 557 q 481 558 467 557 q 507 560 494 558 q 533 564 519 563 q 565 567 546 565 q 590 565 578 567 q 614 557 603 564 q 628 542 622 551 q 638 524 635 533 q 645 492 644 508 q 646 458 646 475 q 642 428 646 442 q 619 403 635 411 q 583 394 607 396 q 531 393 558 393 q 478 394 503 393 q 439 394 453 396 q 410 389 425 392 q 385 378 396 386 q 366 351 372 368 q 358 316 360 335 q 358 278 356 297 q 364 244 360 258 q 381 225 369 229 q 407 222 393 221 q 435 228 421 224 q 461 235 450 232 q 495 243 481 239 q 523 252 510 247 q 550 262 536 257 q 583 274 564 267 q 617 284 597 278 q 657 294 638 290 q 694 297 676 299 q 722 286 713 296 q 733 265 728 279 q 742 235 738 251 q 748 203 746 218 q 751 179 750 188 q 749 143 753 161 q 735 111 746 125 q 706 90 724 96 q 668 79 688 83 q 639 74 661 78 q 592 67 617 71 q 546 61 568 64 q 517 57 524 58 z "},"F":{"ha":940,"x_min":61,"x_max":924,"o":"m 374 -46 q 299 -53 338 -56 q 225 -40 261 -50 q 185 -22 204 -33 q 154 7 167 -10 q 129 48 139 26 q 111 92 119 69 q 70 265 79 175 q 64 443 61 354 q 72 596 67 519 q 86 750 78 672 q 94 817 89 783 q 111 883 100 851 q 147 955 124 921 q 201 1014 169 989 q 293 1056 240 1044 q 376 1065 333 1064 q 460 1063 418 1065 q 520 1059 490 1061 q 581 1054 550 1057 q 667 1051 619 1050 q 758 1048 714 1053 q 839 1026 803 1043 q 893 972 875 1010 q 921 858 918 919 q 903 744 924 797 q 874 692 890 713 q 838 659 858 672 q 790 638 817 646 q 731 622 764 631 q 577 612 656 606 q 424 638 499 618 q 399 643 411 640 q 375 649 388 646 q 371 619 371 633 q 383 501 367 560 q 389 483 386 492 q 394 465 392 475 q 465 474 421 469 q 556 483 510 479 q 640 490 601 488 q 696 490 679 492 q 749 458 728 488 q 771 394 771 428 q 766 361 771 378 q 750 332 761 344 q 692 307 733 313 q 603 302 651 301 q 510 307 556 303 q 440 314 465 311 q 458 278 449 301 q 476 230 467 256 q 494 181 486 204 q 507 143 503 157 q 517 85 518 111 q 501 42 515 63 q 466 3 488 21 q 420 -28 444 -15 q 374 -46 396 -40 z "},"G":{"ha":1053,"x_min":39,"x_max":1015,"o":"m 649 -10 q 474 -11 563 -24 q 307 40 385 1 q 180 132 236 75 q 88 260 124 189 q 58 339 68 297 q 44 422 47 381 q 51 599 39 510 q 100 768 64 688 q 140 845 117 808 q 194 914 164 882 q 344 1017 260 979 q 521 1063 428 1056 q 652 1057 588 1067 q 779 1026 717 1047 q 826 1008 803 1018 q 871 983 850 999 q 890 971 881 976 q 910 958 900 965 q 939 915 931 940 q 944 880 944 899 q 942 843 944 861 q 932 803 939 824 q 914 765 925 783 q 851 722 892 731 q 807 719 829 717 q 763 728 785 722 q 672 747 718 739 q 579 751 625 754 q 515 737 547 749 q 460 704 483 725 q 419 657 436 685 q 396 600 403 629 q 388 507 383 556 q 413 418 393 458 q 443 374 424 394 q 486 339 463 353 q 519 326 501 331 q 554 321 536 322 q 619 332 586 319 q 678 365 653 344 q 703 394 693 376 q 715 431 714 411 q 706 450 715 444 q 680 453 697 454 q 643 450 663 453 q 606 444 624 447 q 579 442 588 442 q 547 444 564 442 q 518 457 531 447 q 502 478 507 465 q 496 506 497 492 q 521 581 496 549 q 549 608 532 596 q 585 628 567 619 q 750 672 665 663 q 824 672 786 676 q 896 653 863 668 q 937 627 918 642 q 969 593 956 613 q 993 547 985 572 q 1004 497 1001 522 q 1001 333 1015 417 q 947 178 988 249 q 899 112 928 142 q 836 58 869 82 q 746 14 794 31 q 649 -10 697 -3 z "},"H":{"ha":996,"x_min":49,"x_max":931,"o":"m 399 36 q 299 -12 356 -1 q 194 -10 243 -24 q 114 41 144 3 q 92 142 83 79 q 99 223 97 182 q 103 304 101 264 q 99 404 104 354 q 86 503 93 454 q 74 568 82 533 q 59 638 65 603 q 51 708 53 674 q 54 774 49 743 q 90 843 61 817 q 156 881 118 869 q 235 891 193 893 q 313 875 278 889 q 372 835 349 861 q 394 774 394 810 q 394 745 394 769 q 394 692 394 721 q 394 636 394 663 q 394 600 394 610 q 435 608 413 604 q 481 615 457 613 q 526 619 504 618 q 567 617 549 621 q 564 676 565 639 q 563 753 563 714 q 563 825 563 792 q 567 874 564 858 q 604 960 574 926 q 676 1009 635 993 q 763 1025 718 1025 q 846 1008 808 1025 q 907 959 883 992 q 928 881 931 926 q 910 553 918 717 q 914 225 903 390 q 916 158 917 192 q 908 92 915 124 q 874 30 900 54 q 813 -6 849 6 q 738 -17 778 -17 q 658 -4 697 -17 q 619 13 639 3 q 588 38 600 22 q 570 70 575 53 q 564 106 565 88 q 567 222 561 164 q 572 339 572 281 q 572 367 572 346 q 571 411 571 389 q 535 412 553 411 q 497 411 517 413 q 467 406 489 410 q 421 400 444 403 q 433 302 426 356 q 440 197 439 249 q 432 101 440 144 q 399 36 424 58 z "},"I":{"ha":533,"x_min":57,"x_max":468,"o":"m 368 -21 q 315 -47 346 -39 q 256 -53 285 -56 q 218 -45 236 -50 q 186 -28 200 -40 q 132 63 149 10 q 106 169 115 117 q 82 323 94 233 q 63 507 69 413 q 61 692 57 601 q 88 849 65 782 q 126 912 99 885 q 190 956 154 939 q 267 978 226 972 q 344 978 307 985 q 410 952 381 972 q 454 899 439 932 q 465 833 468 867 q 464 763 463 799 q 461 562 468 663 q 454 360 454 461 q 451 269 454 325 q 438 157 447 214 q 411 51 428 100 q 368 -21 394 1 z "},"Ì":{"ha":533,"x_min":57,"x_max":468,"o":"m 368 -21 q 315 -47 346 -39 q 256 -53 285 -56 q 218 -45 236 -50 q 186 -28 200 -40 q 132 63 149 10 q 106 169 115 117 q 82 323 94 233 q 63 507 69 413 q 61 692 57 601 q 88 849 65 782 q 126 912 99 885 q 190 956 154 939 q 267 978 226 972 q 344 978 307 985 q 410 952 381 972 q 454 899 439 932 q 465 833 468 867 q 464 763 463 799 q 461 562 468 663 q 454 360 454 461 q 451 269 454 325 q 438 157 447 214 q 411 51 428 100 q 368 -21 394 1 z "},"Í":{"ha":533,"x_min":57,"x_max":468,"o":"m 368 -21 q 315 -47 346 -39 q 256 -53 285 -56 q 218 -45 236 -50 q 186 -28 200 -40 q 132 63 149 10 q 106 169 115 117 q 82 323 94 233 q 63 507 69 413 q 61 692 57 601 q 88 849 65 782 q 126 912 99 885 q 190 956 154 939 q 267 978 226 972 q 344 978 307 985 q 410 952 381 972 q 454 899 439 932 q 465 833 468 867 q 464 763 463 799 q 461 562 468 663 q 454 360 454 461 q 451 269 454 325 q 438 157 447 214 q 411 51 428 100 q 368 -21 394 1 z "},"Î":{"ha":533,"x_min":57,"x_max":468,"o":"m 368 -21 q 315 -47 346 -39 q 256 -53 285 -56 q 218 -45 236 -50 q 186 -28 200 -40 q 132 63 149 10 q 106 169 115 117 q 82 323 94 233 q 63 507 69 413 q 61 692 57 601 q 88 849 65 782 q 126 912 99 885 q 190 956 154 939 q 267 978 226 972 q 344 978 307 985 q 410 952 381 972 q 454 899 439 932 q 465 833 468 867 q 464 763 463 799 q 461 562 468 663 q 454 360 454 461 q 451 269 454 325 q 438 157 447 214 q 411 51 428 100 q 368 -21 394 1 z "},"Ï":{"ha":533,"x_min":57,"x_max":468,"o":"m 368 -21 q 315 -47 346 -39 q 256 -53 285 -56 q 218 -45 236 -50 q 186 -28 200 -40 q 132 63 149 10 q 106 169 115 117 q 82 323 94 233 q 63 507 69 413 q 61 692 57 601 q 88 849 65 782 q 126 912 99 885 q 190 956 154 939 q 267 978 226 972 q 344 978 307 985 q 410 952 381 972 q 454 899 439 932 q 465 833 468 867 q 464 763 463 799 q 461 562 468 663 q 454 360 454 461 q 451 269 454 325 q 438 157 447 214 q 411 51 428 100 q 368 -21 394 1 z "},"J":{"ha":897,"x_min":31,"x_max":858,"o":"m 594 -28 q 493 -49 546 -46 q 390 -43 440 -53 q 285 -11 338 -32 q 190 43 233 10 q 101 141 138 83 q 49 263 64 199 q 36 332 42 290 q 32 416 31 374 q 42 497 33 458 q 71 556 50 535 q 97 572 81 565 q 130 580 113 578 q 165 579 147 582 q 194 568 182 576 q 218 542 211 560 q 234 478 231 511 q 253 417 238 444 q 306 357 278 371 q 362 351 335 343 q 415 383 389 358 q 461 442 440 408 q 496 515 482 476 q 515 586 510 553 q 522 658 522 622 q 519 731 522 694 q 448 700 485 713 q 374 681 411 688 q 336 675 354 676 q 300 678 318 674 q 270 690 285 682 q 246 711 256 699 q 228 743 235 726 q 215 778 221 760 q 206 834 208 806 q 203 890 203 863 q 206 930 204 910 q 217 969 208 950 q 260 1006 231 996 q 322 1018 289 1017 q 386 1022 354 1019 q 556 1043 469 1028 q 601 1051 578 1047 q 647 1047 625 1054 q 688 1015 671 1038 q 714 969 704 993 q 731 928 718 958 q 756 865 743 899 q 781 801 769 831 q 796 761 793 771 q 846 535 833 653 q 832 304 858 417 q 794 178 818 240 q 725 67 769 115 q 665 12 699 36 q 594 -28 632 -12 z "},"K":{"ha":1040,"x_min":36,"x_max":1008,"o":"m 988 72 q 947 27 971 47 q 896 -6 924 7 q 840 -20 868 -18 q 785 -8 811 -22 q 753 17 767 1 q 731 51 740 33 q 706 97 717 74 q 685 143 696 119 q 636 234 661 189 q 583 321 611 279 q 528 393 557 358 q 463 456 499 428 q 461 351 463 403 q 454 247 460 300 q 445 161 451 204 q 428 78 439 118 q 411 39 421 58 q 385 7 401 19 q 343 -12 367 -8 q 296 -17 319 -15 q 245 -14 271 -17 q 199 3 219 -11 q 167 40 179 17 q 149 88 156 64 q 133 203 133 144 q 131 322 132 263 q 117 521 128 422 q 72 713 106 619 q 56 756 64 735 q 43 801 49 778 q 39 864 36 832 q 56 924 42 896 q 90 963 68 947 q 135 989 111 979 q 197 1012 165 1003 q 260 1021 228 1021 q 353 989 310 1021 q 391 948 375 972 q 419 897 407 924 q 449 789 443 846 q 453 674 456 732 q 497 728 474 701 q 546 779 521 754 q 626 853 583 819 q 718 914 669 888 q 786 946 750 933 q 860 957 822 958 q 930 926 901 956 q 953 856 958 897 q 939 819 950 833 q 921 808 935 815 q 891 794 907 801 q 861 781 875 788 q 842 772 847 775 q 733 709 786 742 q 635 633 681 676 q 703 608 671 628 q 764 565 736 589 q 874 459 822 517 q 958 333 925 401 q 991 247 978 292 q 1007 154 1004 201 q 1003 112 1008 133 q 988 72 999 90 z "},"L":{"ha":740,"x_min":44,"x_max":719,"o":"m 511 -8 q 269 -1 392 -18 q 213 9 242 3 q 158 28 185 15 q 106 69 129 43 q 68 125 82 94 q 51 188 56 154 q 46 253 47 221 q 49 344 44 299 q 61 435 54 390 q 85 548 72 492 q 113 660 97 604 l 113 663 q 147 808 128 736 q 196 949 167 879 q 213 987 204 968 q 238 1019 222 1006 q 267 1034 250 1031 q 300 1035 283 1038 q 362 1022 332 1032 q 418 994 392 1013 q 442 961 438 982 q 443 917 446 943 q 420 802 436 858 q 386 689 404 746 q 362 594 372 642 q 346 499 351 547 q 342 457 343 478 q 343 417 340 436 q 348 404 346 410 q 356 394 350 399 q 392 385 367 388 q 444 383 417 383 q 498 385 472 383 q 538 389 524 388 q 590 391 564 390 q 643 389 617 392 q 665 381 650 388 q 686 371 681 375 q 708 328 701 357 q 717 268 715 300 q 717 204 719 236 q 714 151 715 172 q 706 99 711 125 q 685 50 700 72 q 661 29 675 38 q 632 15 647 21 q 573 -1 603 4 q 511 -8 543 -6 z "},"M":{"ha":1313,"x_min":63,"x_max":1251,"o":"m 1106 -22 q 1028 -42 1071 -42 q 946 -35 986 -43 q 913 -26 929 -31 q 881 -11 896 -21 q 850 28 858 4 q 844 67 843 47 q 846 107 844 88 q 856 196 849 151 q 871 285 864 240 q 893 438 885 361 q 903 592 901 514 l 903 597 q 891 570 896 582 q 883 553 886 558 q 835 445 858 499 q 781 340 811 392 q 757 301 772 325 q 723 255 742 278 q 684 215 704 232 q 643 196 664 199 q 594 207 617 193 q 565 230 578 217 q 542 258 553 243 q 468 389 497 321 q 413 526 439 457 q 422 434 418 482 q 429 342 426 386 q 434 264 432 299 q 436 211 436 229 q 428 139 435 175 q 406 71 422 103 q 346 13 386 33 q 269 -6 311 -4 q 186 0 226 -7 q 131 14 158 4 q 89 43 104 24 q 75 69 79 56 q 69 99 71 83 q 69 203 63 151 q 79 308 75 256 q 83 377 81 326 q 90 490 86 428 q 96 617 93 553 q 100 728 99 681 q 88 815 93 772 q 82 903 83 858 q 84 942 82 922 q 99 976 86 961 q 131 999 111 992 q 169 1011 150 1006 q 234 1026 200 1021 q 300 1024 268 1032 q 382 975 346 1011 q 437 901 417 943 q 472 817 457 858 q 535 669 507 721 q 588 601 563 617 q 637 601 613 585 q 690 660 661 617 q 752 767 718 703 q 831 914 786 832 q 863 969 846 942 q 901 1021 881 996 q 920 1041 910 1032 q 944 1057 931 1050 q 969 1066 956 1064 q 994 1068 982 1068 q 1033 1069 1014 1069 q 1072 1065 1053 1068 q 1105 1059 1089 1063 q 1135 1049 1121 1056 q 1169 1013 1158 1036 q 1190 969 1181 990 q 1228 832 1214 919 q 1247 642 1242 744 q 1245 431 1251 539 q 1222 228 1239 322 q 1176 67 1206 135 q 1106 -22 1147 0 z "},"N":{"ha":1133,"x_min":71,"x_max":1114,"o":"m 368 -18 q 281 -35 326 -33 q 192 -35 236 -37 q 170 -33 186 -35 q 150 -29 154 -31 q 125 -24 138 -26 q 101 -14 113 -21 q 87 -1 94 -8 q 76 15 79 7 q 71 51 71 28 q 73 102 71 74 q 79 160 75 131 q 88 214 83 189 q 92 419 93 317 q 88 624 90 521 q 82 742 85 683 q 76 861 79 801 q 77 913 76 888 q 82 965 78 939 q 111 1035 86 1006 q 162 1067 131 1057 q 228 1079 193 1078 q 299 1074 264 1081 q 361 1056 335 1068 q 435 999 404 1036 q 490 922 467 963 q 547 799 524 863 q 592 671 571 736 q 628 550 611 610 q 657 428 644 490 q 660 410 657 424 q 670 458 665 435 q 676 489 675 482 q 721 657 696 574 q 786 817 746 740 q 833 885 806 853 q 896 933 860 918 q 973 946 932 949 q 1051 931 1014 943 q 1085 913 1069 925 q 1107 883 1100 900 q 1112 843 1114 864 q 1106 803 1110 822 q 1094 765 1103 792 q 1072 703 1085 738 q 1046 628 1060 668 q 1019 554 1032 589 q 997 492 1007 519 q 985 453 988 464 q 964 381 974 417 q 947 310 954 346 q 936 218 940 264 q 925 126 932 172 q 915 72 922 99 q 890 24 908 44 q 828 -17 867 -6 q 753 -21 789 -28 q 697 8 719 -17 q 669 42 682 24 q 646 81 657 61 q 573 232 606 156 q 504 383 540 308 q 483 426 493 404 q 461 468 472 447 q 472 364 468 415 q 478 260 476 313 q 481 178 481 219 q 474 96 481 136 q 464 57 471 76 q 443 24 457 38 q 408 -1 428 8 q 368 -18 389 -11 z "},"Ñ":{"ha":1133,"x_min":71,"x_max":1114,"o":"m 368 -18 q 281 -35 326 -33 q 192 -35 236 -37 q 170 -33 186 -35 q 150 -29 154 -31 q 125 -24 138 -26 q 101 -14 113 -21 q 87 -1 94 -8 q 76 15 79 7 q 71 51 71 28 q 73 102 71 74 q 79 160 75 131 q 88 214 83 189 q 92 419 93 317 q 88 624 90 521 q 82 742 85 683 q 76 861 79 801 q 77 913 76 888 q 82 965 78 939 q 111 1035 86 1006 q 162 1067 131 1057 q 228 1079 193 1078 q 299 1074 264 1081 q 361 1056 335 1068 q 435 999 404 1036 q 490 922 467 963 q 547 799 524 863 q 592 671 571 736 q 628 550 611 610 q 657 428 644 490 q 660 410 657 424 q 670 458 665 435 q 676 489 675 482 q 721 657 696 574 q 786 817 746 740 q 833 885 806 853 q 896 933 860 918 q 973 946 932 949 q 1051 931 1014 943 q 1085 913 1069 925 q 1107 883 1100 900 q 1112 843 1114 864 q 1106 803 1110 822 q 1094 765 1103 792 q 1072 703 1085 738 q 1046 628 1060 668 q 1019 554 1032 589 q 997 492 1007 519 q 985 453 988 464 q 964 381 974 417 q 947 310 954 346 q 936 218 940 264 q 925 126 932 172 q 915 72 922 99 q 890 24 908 44 q 828 -17 867 -6 q 753 -21 789 -28 q 697 8 719 -17 q 669 42 682 24 q 646 81 657 61 q 573 232 606 156 q 504 383 540 308 q 483 426 493 404 q 461 468 472 447 q 472 364 468 415 q 478 260 476 313 q 481 178 481 219 q 474 96 481 136 q 464 57 471 76 q 443 24 457 38 q 408 -1 428 8 q 368 -18 389 -11 z "},"O":{"ha":1028,"x_min":28,"x_max":993,"o":"m 979 658 q 986 498 993 579 q 953 341 979 417 q 884 199 928 265 q 781 85 840 133 q 645 12 721 38 q 481 -10 569 -14 q 328 22 400 -6 q 199 94 256 49 q 102 201 142 140 q 45 331 63 261 q 36 476 28 400 q 85 628 44 551 q 185 777 126 708 q 319 891 244 846 q 479 953 393 936 q 661 950 565 971 q 749 925 706 940 q 831 882 793 910 q 884 838 858 863 q 929 785 910 814 q 979 658 968 725 m 408 447 q 444 381 414 407 q 513 363 474 356 q 594 399 558 371 q 650 472 631 428 q 672 536 664 503 q 676 603 681 569 q 652 660 672 638 q 603 692 632 683 q 543 693 575 700 q 485 661 511 686 q 466 640 474 651 q 451 615 458 628 q 415 534 429 578 q 408 447 401 490 z "},"Ò":{"ha":1028,"x_min":28,"x_max":993,"o":"m 979 658 q 986 498 993 579 q 953 341 979 417 q 884 199 928 265 q 781 85 840 133 q 645 12 721 38 q 481 -10 569 -14 q 328 22 400 -6 q 199 94 256 49 q 102 201 142 140 q 45 331 63 261 q 36 476 28 400 q 85 628 44 551 q 185 777 126 708 q 319 891 244 846 q 479 953 393 936 q 661 950 565 971 q 749 925 706 940 q 831 882 793 910 q 884 838 858 863 q 929 785 910 814 q 979 658 968 725 m 408 447 q 444 381 414 407 q 513 363 474 356 q 594 399 558 371 q 650 472 631 428 q 672 536 664 503 q 676 603 681 569 q 652 660 672 638 q 603 692 632 683 q 543 693 575 700 q 485 661 511 686 q 466 640 474 651 q 451 615 458 628 q 415 534 429 578 q 408 447 401 490 z "},"Ó":{"ha":1028,"x_min":28,"x_max":993,"o":"m 979 658 q 986 498 993 579 q 953 341 979 417 q 884 199 928 265 q 781 85 840 133 q 645 12 721 38 q 481 -10 569 -14 q 328 22 400 -6 q 199 94 256 49 q 102 201 142 140 q 45 331 63 261 q 36 476 28 400 q 85 628 44 551 q 185 777 126 708 q 319 891 244 846 q 479 953 393 936 q 661 950 565 971 q 749 925 706 940 q 831 882 793 910 q 884 838 858 863 q 929 785 910 814 q 979 658 968 725 m 408 447 q 444 381 414 407 q 513 363 474 356 q 594 399 558 371 q 650 472 631 428 q 672 536 664 503 q 676 603 681 569 q 652 660 672 638 q 603 692 632 683 q 543 693 575 700 q 485 661 511 686 q 466 640 474 651 q 451 615 458 628 q 415 534 429 578 q 408 447 401 490 z "},"Ô":{"ha":1028,"x_min":28,"x_max":993,"o":"m 979 658 q 986 498 993 579 q 953 341 979 417 q 884 199 928 265 q 781 85 840 133 q 645 12 721 38 q 481 -10 569 -14 q 328 22 400 -6 q 199 94 256 49 q 102 201 142 140 q 45 331 63 261 q 36 476 28 400 q 85 628 44 551 q 185 777 126 708 q 319 891 244 846 q 479 953 393 936 q 661 950 565 971 q 749 925 706 940 q 831 882 793 910 q 884 838 858 863 q 929 785 910 814 q 979 658 968 725 m 408 447 q 444 381 414 407 q 513 363 474 356 q 594 399 558 371 q 650 472 631 428 q 672 536 664 503 q 676 603 681 569 q 652 660 672 638 q 603 692 632 683 q 543 693 575 700 q 485 661 511 686 q 466 640 474 651 q 451 615 458 628 q 415 534 429 578 q 408 447 401 490 z "},"Õ":{"ha":1028,"x_min":28,"x_max":993,"o":"m 979 658 q 986 498 993 579 q 953 341 979 417 q 884 199 928 265 q 781 85 840 133 q 645 12 721 38 q 481 -10 569 -14 q 328 22 400 -6 q 199 94 256 49 q 102 201 142 140 q 45 331 63 261 q 36 476 28 400 q 85 628 44 551 q 185 777 126 708 q 319 891 244 846 q 479 953 393 936 q 661 950 565 971 q 749 925 706 940 q 831 882 793 910 q 884 838 858 863 q 929 785 910 814 q 979 658 968 725 m 408 447 q 444 381 414 407 q 513 363 474 356 q 594 399 558 371 q 650 472 631 428 q 672 536 664 503 q 676 603 681 569 q 652 660 672 638 q 603 692 632 683 q 543 693 575 700 q 485 661 511 686 q 466 640 474 651 q 451 615 458 628 q 415 534 429 578 q 408 447 401 490 z "},"Ö":{"ha":1028,"x_min":28,"x_max":993,"o":"m 979 658 q 986 498 993 579 q 953 341 979 417 q 884 199 928 265 q 781 85 840 133 q 645 12 721 38 q 481 -10 569 -14 q 328 22 400 -6 q 199 94 256 49 q 102 201 142 140 q 45 331 63 261 q 36 476 28 400 q 85 628 44 551 q 185 777 126 708 q 319 891 244 846 q 479 953 393 936 q 661 950 565 971 q 749 925 706 940 q 831 882 793 910 q 884 838 858 863 q 929 785 910 814 q 979 658 968 725 m 408 447 q 444 381 414 407 q 513 363 474 356 q 594 399 558 371 q 650 472 631 428 q 672 536 664 503 q 676 603 681 569 q 652 660 672 638 q 603 692 632 683 q 543 693 575 700 q 485 661 511 686 q 466 640 474 651 q 451 615 458 628 q 415 534 429 578 q 408 447 401 490 z "},"Ø":{"ha":1028,"x_min":28,"x_max":993,"o":"m 979 658 q 986 498 993 579 q 953 341 979 417 q 884 199 928 265 q 781 85 840 133 q 645 12 721 38 q 481 -10 569 -14 q 328 22 400 -6 q 199 94 256 49 q 102 201 142 140 q 45 331 63 261 q 36 476 28 400 q 85 628 44 551 q 185 777 126 708 q 319 891 244 846 q 479 953 393 936 q 661 950 565 971 q 749 925 706 940 q 831 882 793 910 q 884 838 858 863 q 929 785 910 814 q 979 658 968 725 m 408 447 q 444 381 414 407 q 513 363 474 356 q 594 399 558 371 q 650 472 631 428 q 672 536 664 503 q 676 603 681 569 q 652 660 672 638 q 603 692 632 683 q 543 693 575 700 q 485 661 511 686 q 466 640 474 651 q 451 615 458 628 q 415 534 429 578 q 408 447 401 490 z "},"P":{"ha":939,"x_min":65,"x_max":910,"o":"m 358 -18 q 310 -31 339 -26 q 253 -35 282 -35 q 197 -29 224 -35 q 154 -11 171 -24 q 128 24 136 3 q 114 67 119 46 q 92 203 97 135 q 83 342 86 271 q 69 544 72 443 q 71 746 65 644 q 79 848 74 797 q 103 947 85 899 q 154 1004 117 985 q 221 1027 186 1021 q 292 1038 256 1033 q 372 1047 332 1044 q 453 1050 413 1049 q 577 1042 515 1050 q 697 1014 639 1035 q 780 966 742 997 q 844 896 818 935 q 894 792 878 847 q 910 681 910 738 q 894 571 910 625 q 846 469 878 517 q 774 395 818 428 q 681 349 731 363 q 589 333 636 336 q 496 335 542 331 q 433 342 464 338 q 371 358 401 347 q 399 287 385 322 q 432 217 414 251 q 453 175 443 196 q 467 132 464 154 q 463 84 469 108 q 440 42 456 60 q 358 -18 406 0 m 375 638 q 407 608 386 617 q 453 598 428 599 q 504 603 478 597 q 553 618 531 608 q 578 633 565 625 q 597 651 590 640 q 603 669 603 660 q 603 689 604 679 q 558 763 596 733 q 526 781 544 772 q 487 795 507 790 q 447 799 467 800 q 414 789 428 799 q 365 722 378 765 q 375 638 353 678 z "},"Q":{"ha":1032,"x_min":28,"x_max":990,"o":"m 813 -135 q 751 -153 783 -147 q 686 -154 718 -160 q 654 -146 668 -151 q 649 -144 651 -144 q 644 -142 647 -143 q 621 -119 631 -136 q 588 -66 600 -96 q 568 -7 576 -36 q 526 -10 547 -10 q 481 -10 504 -11 q 328 22 400 -6 q 199 94 256 49 q 102 201 142 140 q 45 331 63 261 q 36 476 28 400 q 85 628 44 551 q 185 777 126 708 q 319 891 244 846 q 479 953 393 936 q 661 950 565 971 q 749 925 706 940 q 831 882 793 910 q 884 838 858 863 q 929 785 910 814 q 979 658 968 725 q 988 523 990 592 q 968 389 985 454 q 921 263 951 324 q 849 153 890 203 q 852 145 851 149 q 856 139 853 142 q 888 89 869 113 q 917 38 907 65 q 922 -11 924 14 q 908 -57 919 -36 q 867 -103 893 -85 q 813 -135 840 -121 m 408 447 q 441 384 415 410 q 503 361 467 358 q 497 430 499 397 q 503 479 496 463 q 527 499 510 493 q 558 501 544 504 q 585 489 575 499 q 600 461 590 482 q 613 432 610 440 q 615 427 614 429 q 617 422 615 425 q 650 472 638 443 q 672 536 664 503 q 676 603 681 569 q 652 660 672 638 q 603 692 632 683 q 543 693 575 700 q 485 661 511 686 q 466 640 474 651 q 451 615 458 628 q 415 534 429 578 q 408 447 401 490 z "},"R":{"ha":982,"x_min":61,"x_max":931,"o":"m 300 -35 q 250 -41 281 -39 q 186 -42 219 -43 q 124 -35 153 -40 q 79 -17 94 -29 q 65 6 69 -11 q 64 11 64 7 l 64 15 l 64 18 q 63 41 61 29 q 65 64 64 53 q 80 148 72 106 q 90 232 88 190 q 92 252 92 243 q 92 272 92 261 q 92 447 94 360 q 86 621 90 533 q 81 718 83 669 q 78 815 78 767 q 86 900 79 857 q 117 978 93 943 q 158 1020 133 1003 q 210 1050 183 1038 q 383 1094 292 1088 q 463 1097 424 1097 q 542 1093 501 1096 q 631 1081 586 1089 q 715 1057 675 1074 q 860 949 801 1022 q 902 880 885 917 q 925 803 919 843 q 922 708 931 756 q 894 617 914 660 q 853 548 879 579 q 796 489 826 517 q 774 470 785 479 q 751 454 763 461 q 786 439 769 447 q 811 425 803 431 q 828 410 821 418 q 843 392 836 401 q 908 233 896 322 q 912 189 910 218 q 913 128 914 160 q 909 68 913 96 q 899 26 906 40 q 844 -14 881 -4 q 788 -22 817 -22 q 729 -21 758 -22 q 710 -19 722 -21 q 686 -16 699 -18 q 663 -10 674 -14 q 646 -1 651 -6 q 633 22 636 8 q 629 49 631 36 q 624 101 626 75 q 618 153 622 126 q 608 200 615 176 q 588 243 601 224 q 549 275 572 264 q 508 285 529 283 q 465 288 486 288 q 436 282 454 286 q 413 267 418 278 q 403 227 403 249 q 404 185 404 206 q 405 101 406 143 q 390 18 404 58 q 363 -15 385 -3 q 338 -24 351 -19 q 319 -30 328 -28 q 300 -35 310 -32 m 415 801 q 402 764 406 789 q 399 710 399 739 q 401 653 399 681 q 403 611 403 626 q 467 615 432 611 q 536 630 503 619 q 594 658 569 640 q 628 703 619 675 q 626 764 636 733 q 592 811 615 794 q 552 827 574 824 q 508 829 531 831 q 478 826 493 828 q 447 819 463 825 q 431 813 439 817 q 415 801 422 808 z "},"S":{"ha":831,"x_min":35,"x_max":793,"o":"m 499 14 q 399 -31 451 -14 q 292 -47 346 -49 q 249 -45 271 -47 q 207 -35 226 -43 q 167 -7 186 -26 q 135 37 149 13 q 115 88 122 61 q 110 138 108 114 q 116 174 111 156 q 133 207 121 192 q 159 227 144 219 q 189 242 174 235 q 263 267 225 257 q 338 294 301 278 q 383 321 361 306 q 417 358 404 336 q 422 372 419 364 q 422 385 425 379 q 403 394 418 390 q 382 399 389 397 q 292 406 338 406 q 203 414 247 407 q 158 423 181 417 q 118 443 136 429 q 78 484 94 460 q 50 536 61 508 q 35 618 35 575 q 49 700 36 661 q 111 819 68 764 q 208 913 154 874 q 308 964 254 944 q 417 990 361 983 q 574 995 494 1000 q 729 963 654 990 q 763 942 747 956 q 785 910 778 928 q 792 855 793 883 q 783 800 792 826 q 760 745 774 772 q 725 699 746 718 q 699 681 714 688 q 668 675 683 675 q 615 685 640 674 q 565 707 590 696 q 522 721 544 715 q 476 725 499 726 q 421 709 449 722 q 379 672 393 696 q 369 642 371 658 q 374 611 367 625 q 387 596 378 601 q 406 588 396 590 q 444 578 415 583 q 504 569 472 574 q 564 560 536 564 q 603 554 592 556 q 711 494 676 539 q 751 392 746 450 q 737 274 757 335 q 681 164 717 213 q 597 79 644 115 q 499 14 550 43 z "},"T":{"ha":728,"x_min":19,"x_max":713,"o":"m 532 519 q 549 411 538 471 q 569 289 561 351 q 575 167 576 226 q 552 60 574 107 q 484 -15 531 14 q 356 -43 438 -43 q 215 -5 263 -43 q 151 95 167 33 q 143 235 135 157 q 168 394 151 313 q 203 551 185 475 q 229 683 222 626 q 229 720 232 708 q 217 735 226 732 q 192 737 207 738 q 158 736 178 736 q 80 763 111 738 q 34 824 49 788 q 21 904 19 861 q 40 983 22 947 q 91 1042 57 1018 q 175 1064 125 1065 q 232 1060 190 1064 q 320 1054 274 1057 q 408 1049 367 1051 q 465 1046 450 1046 q 517 1047 492 1046 q 569 1046 543 1047 q 641 1024 611 1044 q 688 974 671 1004 q 708 908 704 944 q 703 840 713 872 q 672 783 694 807 q 611 754 649 760 q 569 751 590 751 q 525 750 547 750 q 521 687 522 710 q 520 643 519 664 q 524 596 521 622 q 532 519 526 569 z "},"U":{"ha":1093,"x_min":39,"x_max":1044,"o":"m 801 53 q 633 -20 726 0 q 449 -33 540 -40 q 353 -13 400 -31 q 263 24 307 4 q 150 117 197 54 q 76 262 103 181 q 44 435 50 343 q 57 614 39 526 q 117 778 75 701 q 229 906 160 854 q 299 936 260 928 q 372 934 338 944 q 428 892 406 924 q 450 806 451 861 q 438 713 449 764 q 417 622 426 663 q 403 549 408 589 q 400 469 397 508 q 417 399 403 431 q 461 353 431 367 q 506 342 482 343 q 554 349 531 342 q 633 399 603 363 q 658 440 649 417 q 671 488 668 464 q 674 555 675 521 q 669 622 674 589 q 643 740 661 682 q 625 858 625 797 q 633 925 624 892 q 663 985 642 958 q 715 1025 683 1013 q 795 1042 753 1040 q 876 1033 838 1044 q 946 995 915 1021 q 990 928 976 969 q 1028 776 1014 856 q 1043 614 1042 696 q 1031 451 1044 532 q 990 297 1018 369 q 915 161 961 224 q 801 53 868 99 z "},"Ù":{"ha":1093,"x_min":39,"x_max":1044,"o":"m 801 53 q 633 -20 726 0 q 449 -33 540 -40 q 353 -13 400 -31 q 263 24 307 4 q 150 117 197 54 q 76 262 103 181 q 44 435 50 343 q 57 614 39 526 q 117 778 75 701 q 229 906 160 854 q 299 936 260 928 q 372 934 338 944 q 428 892 406 924 q 450 806 451 861 q 438 713 449 764 q 417 622 426 663 q 403 549 408 589 q 400 469 397 508 q 417 399 403 431 q 461 353 431 367 q 506 342 482 343 q 554 349 531 342 q 633 399 603 363 q 658 440 649 417 q 671 488 668 464 q 674 555 675 521 q 669 622 674 589 q 643 740 661 682 q 625 858 625 797 q 633 925 624 892 q 663 985 642 958 q 715 1025 683 1013 q 795 1042 753 1040 q 876 1033 838 1044 q 946 995 915 1021 q 990 928 976 969 q 1028 776 1014 856 q 1043 614 1042 696 q 1031 451 1044 532 q 990 297 1018 369 q 915 161 961 224 q 801 53 868 99 z "},"Ú":{"ha":1093,"x_min":39,"x_max":1044,"o":"m 801 53 q 633 -20 726 0 q 449 -33 540 -40 q 353 -13 400 -31 q 263 24 307 4 q 150 117 197 54 q 76 262 103 181 q 44 435 50 343 q 57 614 39 526 q 117 778 75 701 q 229 906 160 854 q 299 936 260 928 q 372 934 338 944 q 428 892 406 924 q 450 806 451 861 q 438 713 449 764 q 417 622 426 663 q 403 549 408 589 q 400 469 397 508 q 417 399 403 431 q 461 353 431 367 q 506 342 482 343 q 554 349 531 342 q 633 399 603 363 q 658 440 649 417 q 671 488 668 464 q 674 555 675 521 q 669 622 674 589 q 643 740 661 682 q 625 858 625 797 q 633 925 624 892 q 663 985 642 958 q 715 1025 683 1013 q 795 1042 753 1040 q 876 1033 838 1044 q 946 995 915 1021 q 990 928 976 969 q 1028 776 1014 856 q 1043 614 1042 696 q 1031 451 1044 532 q 990 297 1018 369 q 915 161 961 224 q 801 53 868 99 z "},"Û":{"ha":1093,"x_min":39,"x_max":1044,"o":"m 801 53 q 633 -20 726 0 q 449 -33 540 -40 q 353 -13 400 -31 q 263 24 307 4 q 150 117 197 54 q 76 262 103 181 q 44 435 50 343 q 57 614 39 526 q 117 778 75 701 q 229 906 160 854 q 299 936 260 928 q 372 934 338 944 q 428 892 406 924 q 450 806 451 861 q 438 713 449 764 q 417 622 426 663 q 403 549 408 589 q 400 469 397 508 q 417 399 403 431 q 461 353 431 367 q 506 342 482 343 q 554 349 531 342 q 633 399 603 363 q 658 440 649 417 q 671 488 668 464 q 674 555 675 521 q 669 622 674 589 q 643 740 661 682 q 625 858 625 797 q 633 925 624 892 q 663 985 642 958 q 715 1025 683 1013 q 795 1042 753 1040 q 876 1033 838 1044 q 946 995 915 1021 q 990 928 976 969 q 1028 776 1014 856 q 1043 614 1042 696 q 1031 451 1044 532 q 990 297 1018 369 q 915 161 961 224 q 801 53 868 99 z "},"Ü":{"ha":1093,"x_min":39,"x_max":1044,"o":"m 801 53 q 633 -20 726 0 q 449 -33 540 -40 q 353 -13 400 -31 q 263 24 307 4 q 150 117 197 54 q 76 262 103 181 q 44 435 50 343 q 57 614 39 526 q 117 778 75 701 q 229 906 160 854 q 299 936 260 928 q 372 934 338 944 q 428 892 406 924 q 450 806 451 861 q 438 713 449 764 q 417 622 426 663 q 403 549 408 589 q 400 469 397 508 q 417 399 403 431 q 461 353 431 367 q 506 342 482 343 q 554 349 531 342 q 633 399 603 363 q 658 440 649 417 q 671 488 668 464 q 674 555 675 521 q 669 622 674 589 q 643 740 661 682 q 625 858 625 797 q 633 925 624 892 q 663 985 642 958 q 715 1025 683 1013 q 795 1042 753 1040 q 876 1033 838 1044 q 946 995 915 1021 q 990 928 976 969 q 1028 776 1014 856 q 1043 614 1042 696 q 1031 451 1044 532 q 990 297 1018 369 q 915 161 961 224 q 801 53 868 99 z "},"V":{"ha":1017,"x_min":28,"x_max":983,"o":"m 572 -46 q 510 -44 542 -50 q 451 -26 479 -37 q 343 47 390 -1 q 260 147 296 94 q 171 309 207 224 q 111 483 135 394 q 76 627 92 556 q 46 771 61 699 q 33 854 38 814 q 33 930 28 894 q 56 997 38 965 q 114 1057 75 1029 q 175 1085 140 1076 q 242 1090 210 1094 q 332 1049 292 1083 q 379 991 360 1024 q 410 922 399 958 q 438 772 432 849 q 460 621 444 696 q 482 535 468 576 q 524 457 496 493 q 549 431 532 446 q 582 419 567 417 q 610 435 597 421 q 631 469 622 450 q 648 509 640 489 q 660 544 656 529 q 699 675 681 610 q 743 804 717 740 q 776 850 756 833 q 822 872 797 867 q 872 874 846 878 q 921 860 897 871 q 946 842 935 853 q 964 817 957 831 q 980 763 976 792 q 982 706 983 733 q 972 620 981 663 q 953 536 964 578 q 908 384 933 458 q 850 236 882 310 q 781 110 821 171 q 685 6 742 50 q 633 -28 661 -14 q 572 -46 604 -42 z "},"W":{"ha":1344,"x_min":47,"x_max":1304,"o":"m 444 35 q 376 8 414 15 q 301 8 338 1 q 173 85 224 26 q 94 220 122 143 q 56 382 65 297 q 53 536 47 467 q 65 639 57 585 q 87 746 72 693 q 124 846 101 799 q 181 928 147 893 q 262 984 215 964 q 372 1003 308 1004 q 408 994 389 1001 q 446 974 428 986 q 478 946 464 961 q 500 915 493 931 q 510 874 508 896 q 508 833 511 853 q 486 715 501 772 q 456 599 471 657 q 438 501 444 551 q 446 406 431 451 q 456 384 449 394 q 474 375 463 374 q 503 397 489 376 q 525 429 518 417 q 563 517 549 472 q 599 606 578 563 q 613 627 604 617 q 632 643 621 638 q 658 645 643 647 q 687 637 672 643 q 714 622 701 631 q 735 604 726 613 q 782 542 763 576 q 824 476 801 508 q 843 449 833 463 q 867 426 853 436 q 919 415 890 408 q 960 447 947 421 q 972 486 971 467 q 978 588 982 538 q 972 690 975 639 q 972 747 969 718 q 985 799 974 775 q 1031 853 1001 833 q 1096 876 1061 874 q 1163 865 1131 879 q 1219 819 1196 851 q 1256 743 1243 785 q 1296 553 1288 651 q 1289 358 1304 454 q 1260 249 1279 303 q 1208 150 1240 194 q 1137 77 1178 110 q 1049 31 1096 44 q 889 29 969 7 q 797 76 840 44 q 726 151 754 108 q 692 209 707 179 q 656 264 678 239 q 645 276 651 269 q 633 278 639 282 q 618 259 626 274 q 600 228 610 244 q 583 197 590 213 q 571 175 575 182 q 516 97 547 135 q 444 35 485 60 z "},"X":{"ha":1017,"x_min":35,"x_max":989,"o":"m 815 21 q 783 3 800 10 q 747 -4 765 -4 q 709 2 728 -4 q 675 19 690 8 q 541 124 603 64 q 426 250 479 183 q 413 268 419 260 q 399 286 406 276 q 348 217 372 251 q 301 144 324 182 q 271 92 286 118 q 236 42 256 65 q 172 7 211 13 q 101 25 132 1 q 79 61 83 39 q 82 115 76 89 q 96 168 88 142 q 147 277 115 225 q 211 379 178 329 q 237 416 224 399 q 264 451 250 433 q 223 497 243 475 q 183 542 203 518 q 95 669 133 600 q 42 814 57 739 q 36 868 35 840 q 49 919 38 896 q 94 975 65 951 q 154 1017 122 999 q 227 1049 188 1036 q 307 1060 267 1063 q 360 1048 333 1058 q 406 1019 386 1038 q 434 981 422 1003 q 453 936 446 960 q 474 860 464 899 q 499 785 485 822 q 507 765 503 775 q 515 746 511 756 q 571 806 542 778 q 629 863 600 835 q 720 944 674 904 q 822 1008 767 983 q 865 1020 842 1017 q 907 1014 888 1024 q 950 983 932 1003 q 978 940 968 964 q 988 890 988 917 q 978 839 989 864 q 952 799 968 817 q 917 765 936 781 q 874 731 896 747 q 829 700 853 715 q 732 624 781 664 q 638 544 683 585 q 765 404 696 469 q 846 331 806 367 q 922 254 886 296 q 944 192 944 228 q 935 144 946 168 q 908 100 924 119 q 865 56 889 76 q 815 21 842 36 z "},"Y":{"ha":894,"x_min":18,"x_max":889,"o":"m 544 31 q 479 -15 515 3 q 403 -37 443 -32 q 324 -37 364 -43 q 250 -10 285 -31 q 201 43 215 11 q 186 115 186 75 q 196 199 186 154 q 219 288 206 243 q 247 376 233 332 q 267 457 260 419 q 265 461 268 460 q 260 464 263 463 q 190 508 224 483 q 125 560 156 532 q 71 622 94 589 q 33 693 47 656 q 20 756 22 724 q 25 815 18 788 q 49 865 32 843 q 90 899 65 886 q 151 915 122 914 q 203 908 179 917 q 247 884 228 900 q 282 847 267 868 q 315 793 300 821 q 347 750 331 765 q 381 740 363 735 q 426 782 400 744 q 457 830 435 794 q 503 906 479 865 q 550 981 528 946 q 581 1031 572 1017 q 644 1082 606 1069 q 724 1086 683 1094 q 802 1053 765 1078 q 861 992 839 1028 q 886 911 883 956 q 860 821 889 867 q 763 686 817 751 q 666 551 710 621 q 599 401 622 481 q 593 221 576 321 q 599 167 597 193 q 592 113 600 140 q 574 69 585 90 q 544 31 563 47 z "},"Ý":{"ha":894,"x_min":18,"x_max":889,"o":"m 544 31 q 479 -15 515 3 q 403 -37 443 -32 q 324 -37 364 -43 q 250 -10 285 -31 q 201 43 215 11 q 186 115 186 75 q 196 199 186 154 q 219 288 206 243 q 247 376 233 332 q 267 457 260 419 q 265 461 268 460 q 260 464 263 463 q 190 508 224 483 q 125 560 156 532 q 71 622 94 589 q 33 693 47 656 q 20 756 22 724 q 25 815 18 788 q 49 865 32 843 q 90 899 65 886 q 151 915 122 914 q 203 908 179 917 q 247 884 228 900 q 282 847 267 868 q 315 793 300 821 q 347 750 331 765 q 381 740 363 735 q 426 782 400 744 q 457 830 435 794 q 503 906 479 865 q 550 981 528 946 q 581 1031 572 1017 q 644 1082 606 1069 q 724 1086 683 1094 q 802 1053 765 1078 q 861 992 839 1028 q 886 911 883 956 q 860 821 889 867 q 763 686 817 751 q 666 551 710 621 q 599 401 622 481 q 593 221 576 321 q 599 167 597 193 q 592 113 600 140 q 574 69 585 90 q 544 31 563 47 z "},"Ÿ":{"ha":894,"x_min":18,"x_max":889,"o":"m 544 31 q 479 -15 515 3 q 403 -37 443 -32 q 324 -37 364 -43 q 250 -10 285 -31 q 201 43 215 11 q 186 115 186 75 q 196 199 186 154 q 219 288 206 243 q 247 376 233 332 q 267 457 260 419 q 265 461 268 460 q 260 464 263 463 q 190 508 224 483 q 125 560 156 532 q 71 622 94 589 q 33 693 47 656 q 20 756 22 724 q 25 815 18 788 q 49 865 32 843 q 90 899 65 886 q 151 915 122 914 q 203 908 179 917 q 247 884 228 900 q 282 847 267 868 q 315 793 300 821 q 347 750 331 765 q 381 740 363 735 q 426 782 400 744 q 457 830 435 794 q 503 906 479 865 q 550 981 528 946 q 581 1031 572 1017 q 644 1082 606 1069 q 724 1086 683 1094 q 802 1053 765 1078 q 861 992 839 1028 q 886 911 883 956 q 860 821 889 867 q 763 686 817 751 q 666 551 710 621 q 599 401 622 481 q 593 221 576 321 q 599 167 597 193 q 592 113 600 140 q 574 69 585 90 q 544 31 563 47 z "},"Z":{"ha":951,"x_min":29,"x_max":908,"o":"m 815 -12 q 767 -24 792 -22 q 717 -26 742 -26 q 611 -20 664 -25 q 506 -8 558 -15 q 414 6 460 -1 q 321 19 368 13 q 249 33 285 26 q 178 54 214 40 q 137 78 157 63 q 110 115 117 93 q 108 149 106 131 q 115 182 110 167 q 165 273 133 231 q 233 353 197 315 q 335 454 282 406 q 439 551 388 503 q 513 620 475 586 q 586 690 550 654 q 608 714 597 701 q 628 740 618 726 q 590 726 608 733 q 553 710 572 718 q 450 661 500 686 q 347 613 400 636 q 288 588 318 599 q 226 571 258 576 q 146 575 185 563 q 92 611 115 588 q 63 651 74 629 q 44 697 51 674 q 35 805 29 749 q 64 908 40 861 q 87 943 74 926 q 118 971 100 960 q 174 994 144 986 q 232 1008 203 1001 q 349 1036 290 1021 q 468 1063 408 1051 q 588 1079 528 1075 q 708 1075 647 1083 q 754 1067 732 1072 q 797 1050 776 1061 q 873 983 844 1026 q 904 888 901 940 q 893 791 908 839 q 854 700 878 743 q 804 621 832 658 q 746 548 776 583 q 684 477 715 513 q 622 407 653 442 q 610 392 618 403 q 593 371 601 382 q 578 349 585 360 q 569 332 571 338 q 576 331 572 332 q 583 328 579 329 q 629 319 594 325 q 703 308 664 314 q 778 295 743 301 q 824 286 813 289 q 853 276 839 282 q 878 260 868 271 q 892 236 888 250 q 897 208 896 222 q 896 162 899 185 q 889 115 893 139 q 879 72 885 93 q 863 31 874 50 q 842 4 854 15 q 815 -12 831 -7 z "},"[":{"ha":742,"x_min":75,"x_max":717,"o":"m 375 -132 q 310 -133 343 -132 q 246 -126 278 -133 q 208 -116 226 -122 q 175 -97 190 -110 q 144 -53 156 -79 q 125 -3 132 -28 q 92 180 101 88 q 79 364 82 272 q 83 676 75 519 q 89 778 86 728 q 99 881 92 829 q 108 938 101 901 q 124 1014 114 975 q 146 1087 133 1053 q 174 1135 158 1121 q 203 1154 186 1149 q 239 1165 221 1160 q 321 1180 279 1176 q 404 1182 363 1183 q 443 1181 414 1182 q 506 1179 472 1181 q 569 1177 539 1178 q 608 1175 599 1176 q 644 1170 626 1172 q 676 1161 661 1168 q 708 1129 700 1149 q 716 1098 715 1114 q 715 1067 717 1082 q 713 1038 715 1056 q 706 1000 710 1019 q 696 964 701 981 q 683 940 690 947 q 645 922 668 925 q 601 918 622 918 q 529 918 565 917 q 457 917 493 919 q 453 917 456 917 q 449 918 451 918 q 440 871 444 894 q 435 839 436 847 q 406 504 406 674 q 408 363 404 433 q 419 221 411 292 q 423 196 421 213 q 428 161 425 179 q 471 160 444 160 q 524 160 497 160 q 574 159 551 160 q 606 158 597 158 q 645 150 625 156 q 678 129 665 144 q 689 100 685 119 q 695 58 693 81 q 697 14 697 35 q 696 -19 697 -7 q 680 -67 693 -49 q 647 -96 667 -85 q 603 -112 626 -107 q 557 -119 579 -117 q 467 -131 513 -129 q 375 -132 421 -132 z "},"\\":{"ha":626,"x_min":33,"x_max":583,"o":"m 546 -36 q 514 -51 535 -44 q 471 -61 493 -57 q 427 -67 449 -65 q 392 -64 406 -68 q 365 -46 374 -57 q 342 -2 354 -33 q 319 66 329 29 q 299 136 308 103 q 286 186 290 169 q 196 474 243 332 q 88 754 149 615 q 61 813 74 783 q 42 875 49 843 q 35 917 36 894 q 40 958 33 939 q 54 981 44 971 q 75 999 64 992 q 115 1020 94 1011 q 157 1036 136 1029 q 186 1044 168 1040 q 222 1049 204 1047 q 257 1050 240 1051 q 283 1042 274 1049 q 301 1019 294 1032 q 315 993 308 1007 q 356 902 338 949 q 389 808 374 856 q 394 790 390 806 q 400 772 399 775 q 486 481 453 629 q 556 185 519 332 q 569 129 563 157 q 579 74 576 101 q 583 42 582 58 q 579 11 583 26 q 566 -15 575 -4 q 546 -36 557 -26 z "},"]":{"ha":743,"x_min":26,"x_max":668,"o":"m 497 -126 q 432 -133 465 -133 q 367 -132 399 -132 q 276 -131 322 -132 q 186 -119 231 -129 q 139 -112 163 -117 q 96 -96 115 -107 q 63 -67 76 -85 q 47 -19 50 -49 q 46 14 46 -7 q 47 58 46 35 q 53 100 49 81 q 65 129 57 119 q 97 150 76 144 q 138 158 118 156 q 169 159 146 158 q 219 160 192 160 q 272 160 246 160 q 315 161 299 160 q 319 196 318 179 q 322 221 321 213 q 335 363 332 292 q 338 504 338 433 q 308 839 338 674 q 301 871 306 847 q 293 918 297 894 q 290 917 292 918 q 286 917 288 917 q 214 918 250 919 q 142 918 178 917 q 97 922 119 918 q 58 940 74 925 q 46 964 51 947 q 36 1000 40 981 q 29 1038 32 1019 q 26 1067 26 1056 q 26 1098 26 1082 q 33 1129 26 1114 q 65 1161 42 1149 q 99 1170 82 1168 q 135 1175 117 1172 q 174 1177 144 1176 q 236 1179 203 1178 q 299 1181 269 1181 q 339 1182 329 1182 q 422 1180 379 1183 q 504 1165 464 1176 q 539 1154 521 1160 q 569 1135 557 1149 q 597 1087 583 1121 q 619 1014 610 1053 q 635 938 629 975 q 644 881 642 901 q 654 778 651 829 q 660 676 657 728 q 664 364 668 519 q 651 180 661 272 q 617 -3 640 88 q 599 -53 610 -28 q 568 -97 588 -79 q 535 -116 553 -110 q 497 -126 517 -122 z "},"^":{"ha":826,"x_min":40,"x_max":789,"o":"m 225 476 q 195 462 214 465 q 160 460 176 458 q 125 467 144 461 q 88 481 106 472 q 58 502 71 490 q 42 529 46 514 q 42 547 40 535 q 46 574 43 560 q 51 599 49 588 q 57 618 54 611 q 98 724 72 672 q 149 826 124 775 q 172 877 161 851 q 199 925 183 903 q 203 935 201 929 q 210 943 206 940 q 257 1009 231 978 q 317 1061 283 1040 q 378 1088 344 1081 q 446 1093 413 1096 q 481 1089 464 1092 q 513 1078 497 1086 q 564 1034 543 1063 q 603 976 585 1006 q 629 930 610 965 q 671 855 649 894 q 713 780 693 815 q 739 732 732 744 q 756 698 746 719 q 774 653 765 676 q 785 610 782 631 q 783 575 789 589 q 766 552 779 564 q 736 528 753 540 q 703 508 719 517 q 676 496 686 500 q 636 483 660 489 q 588 473 613 476 q 540 472 563 469 q 506 486 518 475 q 485 517 492 499 q 470 552 481 526 q 447 610 460 578 q 420 678 435 642 q 392 747 406 714 q 368 804 379 779 q 351 839 357 829 q 322 763 336 801 q 297 683 308 724 q 274 592 283 639 q 243 503 264 546 q 235 490 239 496 q 225 476 232 483 z "},"_":{"ha":818,"x_min":19,"x_max":793,"o":"m 244 -229 q 177 -228 211 -231 q 111 -219 143 -226 q 82 -208 96 -215 q 57 -189 68 -200 q 38 -160 44 -176 q 26 -126 31 -143 q 20 -71 21 -101 q 24 -11 19 -40 q 42 43 29 18 q 76 81 56 68 q 126 99 100 94 q 178 106 151 103 q 197 106 182 106 q 215 108 211 107 q 419 138 315 131 q 626 138 522 146 q 669 133 647 136 q 711 124 690 131 q 748 101 731 117 q 774 67 765 86 q 788 12 783 44 q 792 -54 793 -21 q 784 -119 792 -87 q 760 -168 776 -150 q 714 -197 743 -187 q 674 -207 694 -204 q 632 -212 653 -210 q 592 -214 622 -212 q 529 -217 563 -215 q 466 -219 496 -218 q 426 -219 436 -219 q 335 -225 381 -222 q 244 -229 289 -228 z "},"a":{"ha":1039,"x_min":31,"x_max":1000,"o":"m 244 -46 q 178 -42 213 -50 q 117 -14 143 -33 q 59 46 78 14 q 35 114 40 78 q 35 190 31 150 q 49 274 40 229 q 79 417 64 346 q 114 560 94 489 q 174 735 138 649 q 263 897 210 821 q 346 998 299 950 q 454 1069 393 1046 q 513 1088 482 1081 q 575 1090 544 1094 q 635 1072 607 1086 q 688 1039 664 1058 q 784 933 744 994 q 853 807 824 872 q 958 492 921 656 q 1000 163 996 328 q 997 106 1000 135 q 981 51 993 76 q 963 26 974 38 q 938 8 951 15 q 888 -6 914 -3 q 838 -3 863 -10 q 794 19 814 3 q 761 65 774 36 q 717 122 746 103 q 656 147 689 140 q 588 151 622 153 q 524 144 553 149 q 458 124 483 139 q 414 88 433 108 q 377 42 394 67 q 335 -4 360 18 q 292 -32 315 -21 q 244 -46 269 -43 m 511 301 q 551 299 531 299 q 592 303 572 300 q 627 311 610 306 q 657 329 644 317 q 681 368 675 347 q 685 412 688 389 q 676 457 683 435 q 663 500 669 479 q 642 551 656 522 q 612 600 629 581 q 573 620 594 619 q 526 588 551 621 q 485 509 499 551 q 463 424 471 467 q 457 384 458 404 q 460 347 456 364 q 476 317 464 329 q 511 301 488 306 z "},"à":{"ha":1039,"x_min":31,"x_max":1000,"o":"m 244 -46 q 178 -42 213 -50 q 117 -14 143 -33 q 59 46 78 14 q 35 114 40 78 q 35 190 31 150 q 49 274 40 229 q 79 417 64 346 q 114 560 94 489 q 174 735 138 649 q 263 897 210 821 q 346 998 299 950 q 454 1069 393 1046 q 513 1088 482 1081 q 575 1090 544 1094 q 635 1072 607 1086 q 688 1039 664 1058 q 784 933 744 994 q 853 807 824 872 q 958 492 921 656 q 1000 163 996 328 q 997 106 1000 135 q 981 51 993 76 q 963 26 974 38 q 938 8 951 15 q 888 -6 914 -3 q 838 -3 863 -10 q 794 19 814 3 q 761 65 774 36 q 717 122 746 103 q 656 147 689 140 q 588 151 622 153 q 524 144 553 149 q 458 124 483 139 q 414 88 433 108 q 377 42 394 67 q 335 -4 360 18 q 292 -32 315 -21 q 244 -46 269 -43 m 511 301 q 551 299 531 299 q 592 303 572 300 q 627 311 610 306 q 657 329 644 317 q 681 368 675 347 q 685 412 688 389 q 676 457 683 435 q 663 500 669 479 q 642 551 656 522 q 612 600 629 581 q 573 620 594 619 q 526 588 551 621 q 485 509 499 551 q 463 424 471 467 q 457 384 458 404 q 460 347 456 364 q 476 317 464 329 q 511 301 488 306 z "},"á":{"ha":1039,"x_min":31,"x_max":1000,"o":"m 244 -46 q 178 -42 213 -50 q 117 -14 143 -33 q 59 46 78 14 q 35 114 40 78 q 35 190 31 150 q 49 274 40 229 q 79 417 64 346 q 114 560 94 489 q 174 735 138 649 q 263 897 210 821 q 346 998 299 950 q 454 1069 393 1046 q 513 1088 482 1081 q 575 1090 544 1094 q 635 1072 607 1086 q 688 1039 664 1058 q 784 933 744 994 q 853 807 824 872 q 958 492 921 656 q 1000 163 996 328 q 997 106 1000 135 q 981 51 993 76 q 963 26 974 38 q 938 8 951 15 q 888 -6 914 -3 q 838 -3 863 -10 q 794 19 814 3 q 761 65 774 36 q 717 122 746 103 q 656 147 689 140 q 588 151 622 153 q 524 144 553 149 q 458 124 483 139 q 414 88 433 108 q 377 42 394 67 q 335 -4 360 18 q 292 -32 315 -21 q 244 -46 269 -43 m 511 301 q 551 299 531 299 q 592 303 572 300 q 627 311 610 306 q 657 329 644 317 q 681 368 675 347 q 685 412 688 389 q 676 457 683 435 q 663 500 669 479 q 642 551 656 522 q 612 600 629 581 q 573 620 594 619 q 526 588 551 621 q 485 509 499 551 q 463 424 471 467 q 457 384 458 404 q 460 347 456 364 q 476 317 464 329 q 511 301 488 306 z "},"â":{"ha":1039,"x_min":31,"x_max":1000,"o":"m 244 -46 q 178 -42 213 -50 q 117 -14 143 -33 q 59 46 78 14 q 35 114 40 78 q 35 190 31 150 q 49 274 40 229 q 79 417 64 346 q 114 560 94 489 q 174 735 138 649 q 263 897 210 821 q 346 998 299 950 q 454 1069 393 1046 q 513 1088 482 1081 q 575 1090 544 1094 q 635 1072 607 1086 q 688 1039 664 1058 q 784 933 744 994 q 853 807 824 872 q 958 492 921 656 q 1000 163 996 328 q 997 106 1000 135 q 981 51 993 76 q 963 26 974 38 q 938 8 951 15 q 888 -6 914 -3 q 838 -3 863 -10 q 794 19 814 3 q 761 65 774 36 q 717 122 746 103 q 656 147 689 140 q 588 151 622 153 q 524 144 553 149 q 458 124 483 139 q 414 88 433 108 q 377 42 394 67 q 335 -4 360 18 q 292 -32 315 -21 q 244 -46 269 -43 m 511 301 q 551 299 531 299 q 592 303 572 300 q 627 311 610 306 q 657 329 644 317 q 681 368 675 347 q 685 412 688 389 q 676 457 683 435 q 663 500 669 479 q 642 551 656 522 q 612 600 629 581 q 573 620 594 619 q 526 588 551 621 q 485 509 499 551 q 463 424 471 467 q 457 384 458 404 q 460 347 456 364 q 476 317 464 329 q 511 301 488 306 z "},"ã":{"ha":1039,"x_min":31,"x_max":1000,"o":"m 244 -46 q 178 -42 213 -50 q 117 -14 143 -33 q 59 46 78 14 q 35 114 40 78 q 35 190 31 150 q 49 274 40 229 q 79 417 64 346 q 114 560 94 489 q 174 735 138 649 q 263 897 210 821 q 346 998 299 950 q 454 1069 393 1046 q 513 1088 482 1081 q 575 1090 544 1094 q 635 1072 607 1086 q 688 1039 664 1058 q 784 933 744 994 q 853 807 824 872 q 958 492 921 656 q 1000 163 996 328 q 997 106 1000 135 q 981 51 993 76 q 963 26 974 38 q 938 8 951 15 q 888 -6 914 -3 q 838 -3 863 -10 q 794 19 814 3 q 761 65 774 36 q 717 122 746 103 q 656 147 689 140 q 588 151 622 153 q 524 144 553 149 q 458 124 483 139 q 414 88 433 108 q 377 42 394 67 q 335 -4 360 18 q 292 -32 315 -21 q 244 -46 269 -43 m 511 301 q 551 299 531 299 q 592 303 572 300 q 627 311 610 306 q 657 329 644 317 q 681 368 675 347 q 685 412 688 389 q 676 457 683 435 q 663 500 669 479 q 642 551 656 522 q 612 600 629 581 q 573 620 594 619 q 526 588 551 621 q 485 509 499 551 q 463 424 471 467 q 457 384 458 404 q 460 347 456 364 q 476 317 464 329 q 511 301 488 306 z "},"ä":{"ha":1039,"x_min":31,"x_max":1000,"o":"m 244 -46 q 178 -42 213 -50 q 117 -14 143 -33 q 59 46 78 14 q 35 114 40 78 q 35 190 31 150 q 49 274 40 229 q 79 417 64 346 q 114 560 94 489 q 174 735 138 649 q 263 897 210 821 q 346 998 299 950 q 454 1069 393 1046 q 513 1088 482 1081 q 575 1090 544 1094 q 635 1072 607 1086 q 688 1039 664 1058 q 784 933 744 994 q 853 807 824 872 q 958 492 921 656 q 1000 163 996 328 q 997 106 1000 135 q 981 51 993 76 q 963 26 974 38 q 938 8 951 15 q 888 -6 914 -3 q 838 -3 863 -10 q 794 19 814 3 q 761 65 774 36 q 717 122 746 103 q 656 147 689 140 q 588 151 622 153 q 524 144 553 149 q 458 124 483 139 q 414 88 433 108 q 377 42 394 67 q 335 -4 360 18 q 292 -32 315 -21 q 244 -46 269 -43 m 511 301 q 551 299 531 299 q 592 303 572 300 q 627 311 610 306 q 657 329 644 317 q 681 368 675 347 q 685 412 688 389 q 676 457 683 435 q 663 500 669 479 q 642 551 656 522 q 612 600 629 581 q 573 620 594 619 q 526 588 551 621 q 485 509 499 551 q 463 424 471 467 q 457 384 458 404 q 460 347 456 364 q 476 317 464 329 q 511 301 488 306 z "},"å":{"ha":1039,"x_min":31,"x_max":1000,"o":"m 244 -46 q 178 -42 213 -50 q 117 -14 143 -33 q 59 46 78 14 q 35 114 40 78 q 35 190 31 150 q 49 274 40 229 q 79 417 64 346 q 114 560 94 489 q 174 735 138 649 q 263 897 210 821 q 346 998 299 950 q 454 1069 393 1046 q 513 1088 482 1081 q 575 1090 544 1094 q 635 1072 607 1086 q 688 1039 664 1058 q 784 933 744 994 q 853 807 824 872 q 958 492 921 656 q 1000 163 996 328 q 997 106 1000 135 q 981 51 993 76 q 963 26 974 38 q 938 8 951 15 q 888 -6 914 -3 q 838 -3 863 -10 q 794 19 814 3 q 761 65 774 36 q 717 122 746 103 q 656 147 689 140 q 588 151 622 153 q 524 144 553 149 q 458 124 483 139 q 414 88 433 108 q 377 42 394 67 q 335 -4 360 18 q 292 -32 315 -21 q 244 -46 269 -43 m 511 301 q 551 299 531 299 q 592 303 572 300 q 627 311 610 306 q 657 329 644 317 q 681 368 675 347 q 685 412 688 389 q 676 457 683 435 q 663 500 669 479 q 642 551 656 522 q 612 600 629 581 q 573 620 594 619 q 526 588 551 621 q 485 509 499 551 q 463 424 471 467 q 457 384 458 404 q 460 347 456 364 q 476 317 464 329 q 511 301 488 306 z "},"b":{"ha":1031,"x_min":50,"x_max":1007,"o":"m 717 4 q 520 -24 621 -19 q 319 -22 419 -29 q 278 -17 303 -21 q 227 -7 253 -14 q 179 10 201 0 q 149 32 157 19 q 138 53 142 42 q 132 75 135 64 q 127 102 129 83 q 122 144 125 121 q 113 206 118 171 q 102 274 107 242 q 93 333 97 307 q 88 368 89 358 q 68 500 76 435 q 54 632 60 565 q 50 736 50 683 q 63 839 50 789 q 114 951 78 900 q 147 985 129 969 q 189 1010 165 1000 q 280 1034 232 1028 q 375 1042 328 1040 q 494 1036 435 1043 q 611 1015 553 1029 q 714 985 663 1004 q 803 933 765 967 q 865 844 844 897 q 885 739 886 792 q 874 688 883 713 q 853 639 865 663 q 810 582 835 608 q 756 532 785 556 q 797 524 786 528 q 893 478 849 511 q 978 375 947 436 q 1002 290 997 335 q 996 201 1007 244 q 956 129 985 163 q 892 71 928 96 q 808 30 854 44 q 717 4 763 15 m 350 586 q 376 583 358 583 q 414 585 394 583 q 451 588 433 586 q 479 593 469 590 q 524 606 501 597 q 560 631 546 614 q 569 690 583 658 q 519 738 554 722 q 481 747 501 744 q 442 747 461 749 q 415 743 431 746 q 383 735 399 740 q 352 724 367 731 q 332 711 338 718 q 326 693 328 706 q 325 667 325 681 q 326 642 325 654 q 326 622 326 629 q 335 602 328 614 q 350 586 342 590 m 379 269 q 404 239 383 247 q 453 231 425 231 q 513 236 482 231 q 565 247 543 242 q 590 256 578 250 q 614 268 603 261 q 649 312 639 285 q 640 361 660 339 q 610 378 631 372 q 567 385 590 383 q 520 387 543 388 q 482 385 497 386 q 457 383 472 385 q 426 378 442 381 q 399 369 411 375 q 381 356 386 364 q 374 314 371 340 q 379 269 376 288 z "},"c":{"ha":910,"x_min":35,"x_max":865,"o":"m 765 74 q 648 -6 715 24 q 508 -43 581 -36 q 366 -33 436 -50 q 240 28 296 -17 q 106 189 153 96 q 47 386 60 282 q 51 597 35 490 q 107 801 68 704 q 200 947 142 886 q 330 1040 258 1007 q 478 1079 401 1074 q 626 1058 556 1085 q 754 974 696 1032 q 846 824 813 917 q 861 723 865 768 q 838 647 857 678 q 790 600 819 615 q 729 589 761 585 q 667 620 697 593 q 618 700 638 647 q 543 759 599 753 q 422 718 488 765 q 374 654 394 699 q 349 557 354 610 q 357 453 343 504 q 413 371 371 403 q 454 352 428 360 q 515 347 481 344 q 587 366 549 350 q 663 418 625 382 q 741 461 704 458 q 805 441 778 464 q 847 376 832 418 q 859 281 861 333 q 835 174 857 229 q 765 74 813 119 z "},"ç":{"ha":910,"x_min":35,"x_max":865,"o":"m 765 74 q 648 -6 715 24 q 508 -43 581 -36 q 366 -33 436 -50 q 240 28 296 -17 q 106 189 153 96 q 47 386 60 282 q 51 597 35 490 q 107 801 68 704 q 200 947 142 886 q 330 1040 258 1007 q 478 1079 401 1074 q 626 1058 556 1085 q 754 974 696 1032 q 846 824 813 917 q 861 723 865 768 q 838 647 857 678 q 790 600 819 615 q 729 589 761 585 q 667 620 697 593 q 618 700 638 647 q 543 759 599 753 q 422 718 488 765 q 374 654 394 699 q 349 557 354 610 q 357 453 343 504 q 413 371 371 403 q 454 352 428 360 q 515 347 481 344 q 587 366 549 350 q 663 418 625 382 q 741 461 704 458 q 805 441 778 464 q 847 376 832 418 q 859 281 861 333 q 835 174 857 229 q 765 74 813 119 z "},"d":{"ha":1033,"x_min":35,"x_max":999,"o":"m 651 21 q 544 -6 600 1 q 433 -12 489 -12 q 376 -8 406 -12 q 319 -1 347 -4 q 248 10 283 3 q 179 32 213 18 q 158 44 168 38 q 140 60 147 50 q 130 85 132 71 q 128 113 128 99 q 126 229 124 171 q 125 347 128 288 q 124 360 125 350 q 122 374 124 371 q 85 558 106 467 q 50 743 65 650 q 39 824 43 783 q 50 900 35 864 q 72 938 57 921 q 107 969 88 956 q 188 1015 143 997 q 278 1044 232 1033 q 458 1061 365 1065 q 639 1033 551 1057 q 759 983 701 1017 q 858 904 817 950 q 923 813 896 863 q 965 710 950 763 q 996 529 993 622 q 972 349 999 436 q 937 266 960 306 q 885 190 914 226 q 781 92 840 136 q 651 21 721 47 m 397 622 q 415 501 401 560 q 433 381 428 442 q 472 383 453 381 q 510 392 492 385 q 547 411 529 399 q 581 439 565 424 q 626 495 606 464 q 649 560 646 526 q 641 619 650 589 q 615 674 632 649 q 573 719 597 700 q 518 743 549 738 q 449 738 485 750 q 404 694 414 725 q 397 659 397 678 q 397 622 396 640 z "},"e":{"ha":824,"x_min":67,"x_max":789,"o":"m 508 57 q 423 40 478 53 q 309 18 368 28 q 197 8 250 8 q 117 24 143 7 q 92 51 101 33 q 78 89 82 69 q 72 129 74 108 q 68 169 69 150 q 68 216 68 183 q 69 292 68 249 q 72 382 71 335 q 74 472 72 429 q 76 548 75 515 q 76 594 76 581 q 77 622 76 601 q 78 666 78 643 q 79 710 79 689 q 78 738 79 731 q 69 828 72 782 q 71 919 67 875 q 78 956 74 938 q 94 985 82 974 q 124 998 107 996 q 157 1000 142 1000 q 313 999 236 1004 q 469 992 390 994 q 509 991 479 992 q 574 990 539 990 q 638 988 608 989 q 678 986 668 986 q 713 983 694 985 q 746 971 731 981 q 774 936 764 960 q 786 884 783 913 q 787 826 789 856 q 782 776 785 797 q 772 729 779 753 q 750 686 765 706 q 688 649 726 658 q 627 646 658 642 q 565 657 596 650 q 531 666 546 661 q 501 675 515 671 q 473 683 488 679 q 438 688 458 686 q 392 685 411 690 q 371 672 379 682 q 363 653 365 664 q 360 632 361 643 q 360 603 358 618 q 372 578 361 589 q 402 561 383 565 q 439 557 421 557 q 472 558 458 557 q 499 560 486 558 q 524 564 511 563 q 557 567 538 565 q 582 565 569 567 q 606 557 594 564 q 620 542 614 551 q 629 524 626 533 q 637 492 636 508 q 638 458 638 475 q 633 428 638 442 q 611 403 626 411 q 574 394 599 396 q 522 393 550 393 q 469 394 494 393 q 431 394 444 396 q 402 389 417 392 q 376 378 388 386 q 358 351 364 368 q 349 316 351 335 q 349 278 347 297 q 356 244 351 258 q 373 225 361 229 q 399 222 385 221 q 427 228 413 224 q 453 235 442 232 q 487 243 472 239 q 515 252 501 247 q 542 262 528 257 q 575 274 556 267 q 609 284 589 278 q 649 294 629 290 q 686 297 668 299 q 714 286 704 296 q 724 265 719 279 q 733 235 729 251 q 740 203 738 218 q 743 179 742 188 q 741 143 744 161 q 726 111 738 125 q 697 90 715 96 q 660 79 679 83 q 631 74 653 78 q 584 67 608 71 q 538 61 560 64 q 508 57 515 58 z "},"è":{"ha":824,"x_min":67,"x_max":789,"o":"m 508 57 q 423 40 478 53 q 309 18 368 28 q 197 8 250 8 q 117 24 143 7 q 92 51 101 33 q 78 89 82 69 q 72 129 74 108 q 68 169 69 150 q 68 216 68 183 q 69 292 68 249 q 72 382 71 335 q 74 472 72 429 q 76 548 75 515 q 76 594 76 581 q 77 622 76 601 q 78 666 78 643 q 79 710 79 689 q 78 738 79 731 q 69 828 72 782 q 71 919 67 875 q 78 956 74 938 q 94 985 82 974 q 124 998 107 996 q 157 1000 142 1000 q 313 999 236 1004 q 469 992 390 994 q 509 991 479 992 q 574 990 539 990 q 638 988 608 989 q 678 986 668 986 q 713 983 694 985 q 746 971 731 981 q 774 936 764 960 q 786 884 783 913 q 787 826 789 856 q 782 776 785 797 q 772 729 779 753 q 750 686 765 706 q 688 649 726 658 q 627 646 658 642 q 565 657 596 650 q 531 666 546 661 q 501 675 515 671 q 473 683 488 679 q 438 688 458 686 q 392 685 411 690 q 371 672 379 682 q 363 653 365 664 q 360 632 361 643 q 360 603 358 618 q 372 578 361 589 q 402 561 383 565 q 439 557 421 557 q 472 558 458 557 q 499 560 486 558 q 524 564 511 563 q 557 567 538 565 q 582 565 569 567 q 606 557 594 564 q 620 542 614 551 q 629 524 626 533 q 637 492 636 508 q 638 458 638 475 q 633 428 638 442 q 611 403 626 411 q 574 394 599 396 q 522 393 550 393 q 469 394 494 393 q 431 394 444 396 q 402 389 417 392 q 376 378 388 386 q 358 351 364 368 q 349 316 351 335 q 349 278 347 297 q 356 244 351 258 q 373 225 361 229 q 399 222 385 221 q 427 228 413 224 q 453 235 442 232 q 487 243 472 239 q 515 252 501 247 q 542 262 528 257 q 575 274 556 267 q 609 284 589 278 q 649 294 629 290 q 686 297 668 299 q 714 286 704 296 q 724 265 719 279 q 733 235 729 251 q 740 203 738 218 q 743 179 742 188 q 741 143 744 161 q 726 111 738 125 q 697 90 715 96 q 660 79 679 83 q 631 74 653 78 q 584 67 608 71 q 538 61 560 64 q 508 57 515 58 z "},"é":{"ha":824,"x_min":67,"x_max":789,"o":"m 508 57 q 423 40 478 53 q 309 18 368 28 q 197 8 250 8 q 117 24 143 7 q 92 51 101 33 q 78 89 82 69 q 72 129 74 108 q 68 169 69 150 q 68 216 68 183 q 69 292 68 249 q 72 382 71 335 q 74 472 72 429 q 76 548 75 515 q 76 594 76 581 q 77 622 76 601 q 78 666 78 643 q 79 710 79 689 q 78 738 79 731 q 69 828 72 782 q 71 919 67 875 q 78 956 74 938 q 94 985 82 974 q 124 998 107 996 q 157 1000 142 1000 q 313 999 236 1004 q 469 992 390 994 q 509 991 479 992 q 574 990 539 990 q 638 988 608 989 q 678 986 668 986 q 713 983 694 985 q 746 971 731 981 q 774 936 764 960 q 786 884 783 913 q 787 826 789 856 q 782 776 785 797 q 772 729 779 753 q 750 686 765 706 q 688 649 726 658 q 627 646 658 642 q 565 657 596 650 q 531 666 546 661 q 501 675 515 671 q 473 683 488 679 q 438 688 458 686 q 392 685 411 690 q 371 672 379 682 q 363 653 365 664 q 360 632 361 643 q 360 603 358 618 q 372 578 361 589 q 402 561 383 565 q 439 557 421 557 q 472 558 458 557 q 499 560 486 558 q 524 564 511 563 q 557 567 538 565 q 582 565 569 567 q 606 557 594 564 q 620 542 614 551 q 629 524 626 533 q 637 492 636 508 q 638 458 638 475 q 633 428 638 442 q 611 403 626 411 q 574 394 599 396 q 522 393 550 393 q 469 394 494 393 q 431 394 444 396 q 402 389 417 392 q 376 378 388 386 q 358 351 364 368 q 349 316 351 335 q 349 278 347 297 q 356 244 351 258 q 373 225 361 229 q 399 222 385 221 q 427 228 413 224 q 453 235 442 232 q 487 243 472 239 q 515 252 501 247 q 542 262 528 257 q 575 274 556 267 q 609 284 589 278 q 649 294 629 290 q 686 297 668 299 q 714 286 704 296 q 724 265 719 279 q 733 235 729 251 q 740 203 738 218 q 743 179 742 188 q 741 143 744 161 q 726 111 738 125 q 697 90 715 96 q 660 79 679 83 q 631 74 653 78 q 584 67 608 71 q 538 61 560 64 q 508 57 515 58 z "},"ê":{"ha":824,"x_min":67,"x_max":789,"o":"m 508 57 q 423 40 478 53 q 309 18 368 28 q 197 8 250 8 q 117 24 143 7 q 92 51 101 33 q 78 89 82 69 q 72 129 74 108 q 68 169 69 150 q 68 216 68 183 q 69 292 68 249 q 72 382 71 335 q 74 472 72 429 q 76 548 75 515 q 76 594 76 581 q 77 622 76 601 q 78 666 78 643 q 79 710 79 689 q 78 738 79 731 q 69 828 72 782 q 71 919 67 875 q 78 956 74 938 q 94 985 82 974 q 124 998 107 996 q 157 1000 142 1000 q 313 999 236 1004 q 469 992 390 994 q 509 991 479 992 q 574 990 539 990 q 638 988 608 989 q 678 986 668 986 q 713 983 694 985 q 746 971 731 981 q 774 936 764 960 q 786 884 783 913 q 787 826 789 856 q 782 776 785 797 q 772 729 779 753 q 750 686 765 706 q 688 649 726 658 q 627 646 658 642 q 565 657 596 650 q 531 666 546 661 q 501 675 515 671 q 473 683 488 679 q 438 688 458 686 q 392 685 411 690 q 371 672 379 682 q 363 653 365 664 q 360 632 361 643 q 360 603 358 618 q 372 578 361 589 q 402 561 383 565 q 439 557 421 557 q 472 558 458 557 q 499 560 486 558 q 524 564 511 563 q 557 567 538 565 q 582 565 569 567 q 606 557 594 564 q 620 542 614 551 q 629 524 626 533 q 637 492 636 508 q 638 458 638 475 q 633 428 638 442 q 611 403 626 411 q 574 394 599 396 q 522 393 550 393 q 469 394 494 393 q 431 394 444 396 q 402 389 417 392 q 376 378 388 386 q 358 351 364 368 q 349 316 351 335 q 349 278 347 297 q 356 244 351 258 q 373 225 361 229 q 399 222 385 221 q 427 228 413 224 q 453 235 442 232 q 487 243 472 239 q 515 252 501 247 q 542 262 528 257 q 575 274 556 267 q 609 284 589 278 q 649 294 629 290 q 686 297 668 299 q 714 286 704 296 q 724 265 719 279 q 733 235 729 251 q 740 203 738 218 q 743 179 742 188 q 741 143 744 161 q 726 111 738 125 q 697 90 715 96 q 660 79 679 83 q 631 74 653 78 q 584 67 608 71 q 538 61 560 64 q 508 57 515 58 z "},"ë":{"ha":824,"x_min":67,"x_max":789,"o":"m 508 57 q 423 40 478 53 q 309 18 368 28 q 197 8 250 8 q 117 24 143 7 q 92 51 101 33 q 78 89 82 69 q 72 129 74 108 q 68 169 69 150 q 68 216 68 183 q 69 292 68 249 q 72 382 71 335 q 74 472 72 429 q 76 548 75 515 q 76 594 76 581 q 77 622 76 601 q 78 666 78 643 q 79 710 79 689 q 78 738 79 731 q 69 828 72 782 q 71 919 67 875 q 78 956 74 938 q 94 985 82 974 q 124 998 107 996 q 157 1000 142 1000 q 313 999 236 1004 q 469 992 390 994 q 509 991 479 992 q 574 990 539 990 q 638 988 608 989 q 678 986 668 986 q 713 983 694 985 q 746 971 731 981 q 774 936 764 960 q 786 884 783 913 q 787 826 789 856 q 782 776 785 797 q 772 729 779 753 q 750 686 765 706 q 688 649 726 658 q 627 646 658 642 q 565 657 596 650 q 531 666 546 661 q 501 675 515 671 q 473 683 488 679 q 438 688 458 686 q 392 685 411 690 q 371 672 379 682 q 363 653 365 664 q 360 632 361 643 q 360 603 358 618 q 372 578 361 589 q 402 561 383 565 q 439 557 421 557 q 472 558 458 557 q 499 560 486 558 q 524 564 511 563 q 557 567 538 565 q 582 565 569 567 q 606 557 594 564 q 620 542 614 551 q 629 524 626 533 q 637 492 636 508 q 638 458 638 475 q 633 428 638 442 q 611 403 626 411 q 574 394 599 396 q 522 393 550 393 q 469 394 494 393 q 431 394 444 396 q 402 389 417 392 q 376 378 388 386 q 358 351 364 368 q 349 316 351 335 q 349 278 347 297 q 356 244 351 258 q 373 225 361 229 q 399 222 385 221 q 427 228 413 224 q 453 235 442 232 q 487 243 472 239 q 515 252 501 247 q 542 262 528 257 q 575 274 556 267 q 609 284 589 278 q 649 294 629 290 q 686 297 668 299 q 714 286 704 296 q 724 265 719 279 q 733 235 729 251 q 740 203 738 218 q 743 179 742 188 q 741 143 744 161 q 726 111 738 125 q 697 90 715 96 q 660 79 679 83 q 631 74 653 78 q 584 67 608 71 q 538 61 560 64 q 508 57 515 58 z "},"f":{"ha":938,"x_min":54,"x_max":917,"o":"m 367 -46 q 292 -53 331 -56 q 218 -40 254 -50 q 178 -22 197 -33 q 147 7 160 -10 q 122 48 132 26 q 104 92 113 69 q 63 265 72 175 q 57 443 54 354 q 65 596 60 519 q 79 750 71 672 q 88 817 82 783 q 104 883 93 851 q 140 955 117 921 q 194 1014 163 989 q 286 1056 233 1044 q 369 1065 326 1064 q 453 1063 411 1065 q 513 1059 483 1061 q 574 1054 543 1057 q 660 1051 613 1050 q 751 1048 707 1053 q 832 1026 796 1043 q 886 972 868 1010 q 914 858 911 919 q 896 744 917 797 q 867 692 883 713 q 831 659 851 672 q 783 638 810 646 q 724 622 757 631 q 570 612 649 606 q 417 638 492 618 q 392 643 404 640 q 368 649 381 646 q 364 619 364 633 q 376 501 360 560 q 382 483 379 492 q 388 465 385 475 q 458 474 414 469 q 549 483 503 479 q 633 490 594 488 q 689 490 672 492 q 742 458 721 488 q 764 394 764 428 q 759 361 764 378 q 743 332 754 344 q 685 307 726 313 q 597 302 644 301 q 503 307 549 303 q 433 314 458 311 q 451 278 442 301 q 469 230 460 256 q 488 181 479 204 q 500 143 496 157 q 510 85 511 111 q 494 42 508 63 q 459 3 481 21 q 413 -28 438 -15 q 367 -46 389 -40 z "},"g":{"ha":1044,"x_min":35,"x_max":1011,"o":"m 644 -10 q 469 -11 558 -24 q 303 40 381 1 q 176 132 232 75 q 83 260 119 189 q 53 339 64 297 q 40 422 43 381 q 47 599 35 510 q 96 768 60 688 q 136 845 113 808 q 190 914 160 882 q 340 1017 256 979 q 517 1063 424 1056 q 648 1057 583 1067 q 775 1026 713 1047 q 822 1008 799 1018 q 867 983 846 999 q 886 971 876 976 q 906 958 896 965 q 935 915 926 940 q 940 880 940 899 q 938 843 940 861 q 928 803 935 824 q 910 765 921 783 q 847 722 888 731 q 803 719 825 717 q 758 728 781 722 q 667 747 714 739 q 575 751 621 754 q 511 737 543 749 q 456 704 479 725 q 415 657 432 685 q 392 600 399 629 q 384 507 379 556 q 408 418 389 458 q 439 374 419 394 q 482 339 458 353 q 515 326 497 331 q 550 321 532 322 q 615 332 582 319 q 674 365 649 344 q 699 394 689 376 q 711 431 710 411 q 701 450 711 444 q 676 453 693 454 q 639 450 658 453 q 601 444 619 447 q 575 442 583 442 q 543 444 560 442 q 514 457 526 447 q 498 478 503 465 q 492 506 493 492 q 517 581 492 549 q 545 608 528 596 q 581 628 563 619 q 746 672 661 663 q 820 672 782 676 q 892 653 858 668 q 933 627 914 642 q 965 593 951 613 q 989 547 981 572 q 1000 497 997 522 q 997 333 1011 417 q 943 178 983 249 q 894 112 924 142 q 832 58 865 82 q 742 14 790 31 q 644 -10 693 -3 z "},"h":{"ha":985,"x_min":44,"x_max":926,"o":"m 394 36 q 295 -12 351 -1 q 190 -10 239 -24 q 110 41 140 3 q 88 142 79 79 q 95 223 93 182 q 99 304 97 264 q 94 404 100 354 q 82 503 89 454 q 69 568 78 533 q 55 638 61 603 q 47 708 49 674 q 50 774 44 743 q 85 843 57 817 q 151 881 114 869 q 231 891 189 893 q 309 875 274 889 q 367 835 344 861 q 390 774 390 810 q 390 745 390 769 q 390 692 390 721 q 390 636 390 663 q 390 600 390 610 q 431 608 408 604 q 476 615 453 613 q 522 619 500 618 q 563 617 544 621 q 560 676 561 639 q 558 753 558 714 q 559 825 558 792 q 563 874 560 858 q 600 960 569 926 q 672 1009 631 993 q 759 1025 714 1025 q 842 1008 804 1025 q 903 959 879 992 q 924 881 926 926 q 906 553 914 717 q 910 225 899 390 q 912 158 913 192 q 904 92 911 124 q 870 30 896 54 q 809 -6 844 6 q 733 -17 774 -17 q 654 -4 693 -17 q 615 13 635 3 q 583 38 596 22 q 566 70 571 53 q 560 106 561 88 q 563 222 557 164 q 568 339 568 281 q 567 367 568 346 q 567 411 567 389 q 531 412 549 411 q 493 411 513 413 q 463 406 485 410 q 417 400 440 403 q 428 302 422 356 q 435 197 435 249 q 428 101 436 144 q 394 36 419 58 z "},"i":{"ha":519,"x_min":50,"x_max":461,"o":"m 361 -21 q 308 -47 339 -39 q 249 -53 278 -56 q 211 -45 229 -50 q 179 -28 193 -40 q 125 63 142 10 q 99 169 108 117 q 75 323 88 233 q 56 507 63 413 q 54 692 50 601 q 81 849 58 782 q 119 912 92 885 q 183 956 147 939 q 260 978 219 972 q 337 978 300 985 q 403 952 374 972 q 447 899 432 932 q 458 833 461 867 q 457 763 456 799 q 454 562 461 663 q 447 360 447 461 q 444 269 447 325 q 431 157 440 214 q 404 51 421 100 q 361 -21 388 1 z "},"ì":{"ha":519,"x_min":50,"x_max":461,"o":"m 361 -21 q 308 -47 339 -39 q 249 -53 278 -56 q 211 -45 229 -50 q 179 -28 193 -40 q 125 63 142 10 q 99 169 108 117 q 75 323 88 233 q 56 507 63 413 q 54 692 50 601 q 81 849 58 782 q 119 912 92 885 q 183 956 147 939 q 260 978 219 972 q 337 978 300 985 q 403 952 374 972 q 447 899 432 932 q 458 833 461 867 q 457 763 456 799 q 454 562 461 663 q 447 360 447 461 q 444 269 447 325 q 431 157 440 214 q 404 51 421 100 q 361 -21 388 1 z "},"í":{"ha":519,"x_min":50,"x_max":461,"o":"m 361 -21 q 308 -47 339 -39 q 249 -53 278 -56 q 211 -45 229 -50 q 179 -28 193 -40 q 125 63 142 10 q 99 169 108 117 q 75 323 88 233 q 56 507 63 413 q 54 692 50 601 q 81 849 58 782 q 119 912 92 885 q 183 956 147 939 q 260 978 219 972 q 337 978 300 985 q 403 952 374 972 q 447 899 432 932 q 458 833 461 867 q 457 763 456 799 q 454 562 461 663 q 447 360 447 461 q 444 269 447 325 q 431 157 440 214 q 404 51 421 100 q 361 -21 388 1 z "},"î":{"ha":519,"x_min":50,"x_max":461,"o":"m 361 -21 q 308 -47 339 -39 q 249 -53 278 -56 q 211 -45 229 -50 q 179 -28 193 -40 q 125 63 142 10 q 99 169 108 117 q 75 323 88 233 q 56 507 63 413 q 54 692 50 601 q 81 849 58 782 q 119 912 92 885 q 183 956 147 939 q 260 978 219 972 q 337 978 300 985 q 403 952 374 972 q 447 899 432 932 q 458 833 461 867 q 457 763 456 799 q 454 562 461 663 q 447 360 447 461 q 444 269 447 325 q 431 157 440 214 q 404 51 421 100 q 361 -21 388 1 z "},"ï":{"ha":519,"x_min":50,"x_max":461,"o":"m 361 -21 q 308 -47 339 -39 q 249 -53 278 -56 q 211 -45 229 -50 q 179 -28 193 -40 q 125 63 142 10 q 99 169 108 117 q 75 323 88 233 q 56 507 63 413 q 54 692 50 601 q 81 849 58 782 q 119 912 92 885 q 183 956 147 939 q 260 978 219 972 q 337 978 300 985 q 403 952 374 972 q 447 899 432 932 q 458 833 461 867 q 457 763 456 799 q 454 562 461 663 q 447 360 447 461 q 444 269 447 325 q 431 157 440 214 q 404 51 421 100 q 361 -21 388 1 z "},"j":{"ha":892,"x_min":31,"x_max":858,"o":"m 594 -28 q 493 -49 546 -46 q 390 -43 440 -53 q 285 -11 338 -32 q 190 43 233 10 q 101 141 138 83 q 49 263 64 199 q 36 332 42 290 q 32 416 31 374 q 42 497 33 458 q 71 556 50 535 q 97 572 81 565 q 130 580 113 578 q 165 579 147 582 q 194 568 182 576 q 218 542 211 560 q 234 478 231 511 q 253 417 238 444 q 306 357 278 371 q 362 351 335 343 q 415 383 389 358 q 461 442 440 408 q 496 515 482 476 q 515 586 510 553 q 522 658 522 622 q 519 731 522 694 q 448 700 485 713 q 374 681 411 688 q 336 675 354 676 q 300 678 318 674 q 270 690 285 682 q 246 711 256 699 q 228 743 235 726 q 215 778 221 760 q 206 834 208 806 q 203 890 203 863 q 206 930 204 910 q 217 969 208 950 q 260 1006 231 996 q 322 1018 289 1017 q 386 1022 354 1019 q 556 1043 469 1028 q 601 1051 578 1047 q 647 1047 625 1054 q 688 1015 671 1038 q 714 969 704 993 q 731 928 718 958 q 756 865 743 899 q 781 801 769 831 q 796 761 793 771 q 846 535 833 653 q 832 304 858 417 q 794 178 818 240 q 725 67 769 115 q 665 12 699 36 q 594 -28 632 -12 z "},"k":{"ha":1035,"x_min":32,"x_max":1004,"o":"m 983 72 q 943 27 967 47 q 892 -6 919 7 q 835 -20 864 -18 q 781 -8 807 -22 q 749 17 763 1 q 726 51 736 33 q 702 97 713 74 q 681 143 692 119 q 632 234 657 189 q 579 321 607 279 q 524 393 553 358 q 458 456 494 428 q 457 351 458 403 q 450 247 456 300 q 441 161 447 204 q 424 78 435 118 q 407 39 417 58 q 381 7 397 19 q 339 -12 363 -8 q 292 -17 315 -15 q 241 -14 267 -17 q 194 3 215 -11 q 163 40 175 17 q 144 88 151 64 q 128 203 129 144 q 126 322 128 263 q 113 521 124 422 q 68 713 101 619 q 52 756 60 735 q 39 801 44 778 q 35 864 32 832 q 51 924 38 896 q 85 963 64 947 q 131 989 107 979 q 192 1012 161 1003 q 256 1021 224 1021 q 349 989 306 1021 q 387 948 371 972 q 415 897 403 924 q 445 789 439 846 q 449 674 451 732 q 493 728 469 701 q 542 779 517 754 q 622 853 579 819 q 714 914 665 888 q 782 946 746 933 q 856 957 818 958 q 926 926 897 956 q 949 856 954 897 q 935 819 946 833 q 917 808 931 815 q 887 794 903 801 q 857 781 871 788 q 838 772 843 775 q 729 709 782 742 q 631 633 676 676 q 699 608 667 628 q 760 565 732 589 q 869 459 818 517 q 954 333 921 401 q 987 247 974 292 q 1003 154 1000 201 q 999 112 1004 133 q 983 72 994 90 z "},"l":{"ha":742,"x_min":40,"x_max":715,"o":"m 507 -8 q 265 -1 388 -18 q 209 9 238 3 q 154 28 181 15 q 101 69 125 43 q 64 125 78 94 q 47 188 51 154 q 42 253 43 221 q 45 344 40 299 q 57 435 50 390 q 81 548 68 492 q 108 660 93 604 l 108 663 q 143 808 124 736 q 192 949 163 879 q 209 987 200 968 q 233 1019 218 1006 q 263 1034 246 1031 q 296 1035 279 1038 q 358 1022 328 1032 q 414 994 388 1013 q 438 961 433 982 q 439 917 442 943 q 416 802 432 858 q 382 689 400 746 q 358 594 368 642 q 342 499 347 547 q 338 457 339 478 q 339 417 336 436 q 344 404 342 410 q 351 394 346 399 q 388 385 363 388 q 440 383 413 383 q 494 385 468 383 q 533 389 519 388 q 586 391 560 390 q 639 389 613 392 q 661 381 646 388 q 682 371 676 375 q 704 328 697 357 q 713 268 711 300 q 713 204 715 236 q 710 151 711 172 q 701 99 707 125 q 681 50 696 72 q 657 29 671 38 q 628 15 643 21 q 569 -1 599 4 q 507 -8 539 -6 z "},"m":{"ha":1299,"x_min":56,"x_max":1244,"o":"m 1099 -22 q 1022 -42 1064 -42 q 939 -35 979 -43 q 906 -26 922 -31 q 874 -11 889 -21 q 843 28 851 4 q 837 67 836 47 q 839 107 838 88 q 849 196 842 151 q 864 285 857 240 q 886 438 878 361 q 896 592 894 514 l 896 597 q 884 570 889 582 q 876 553 879 558 q 828 445 851 499 q 774 340 804 392 q 750 301 765 325 q 716 255 735 278 q 677 215 697 232 q 636 196 657 199 q 588 207 610 193 q 558 230 571 217 q 535 258 546 243 q 461 389 490 321 q 406 526 432 457 q 415 434 411 482 q 422 342 419 386 q 427 264 425 299 q 429 211 429 229 q 422 139 428 175 q 399 71 415 103 q 339 13 379 33 q 262 -6 304 -4 q 179 0 219 -7 q 124 14 151 4 q 82 43 97 24 q 68 69 72 56 q 63 99 64 83 q 62 203 56 151 q 72 308 68 256 q 76 377 74 326 q 83 490 79 428 q 89 617 86 553 q 93 728 92 681 q 81 815 86 772 q 75 903 76 858 q 77 942 75 922 q 92 976 79 961 q 124 999 104 992 q 163 1011 143 1006 q 227 1026 193 1021 q 293 1024 261 1032 q 375 975 339 1011 q 430 901 410 943 q 465 817 450 858 q 528 669 500 721 q 581 601 556 617 q 630 601 606 585 q 683 660 654 617 q 745 767 711 703 q 824 914 779 832 q 856 969 839 942 q 894 1021 874 996 q 913 1041 903 1032 q 938 1057 924 1050 q 962 1066 949 1064 q 988 1068 975 1068 q 1026 1069 1007 1069 q 1065 1065 1046 1068 q 1098 1059 1082 1063 q 1128 1049 1114 1056 q 1163 1013 1151 1036 q 1183 969 1174 990 q 1221 832 1207 919 q 1240 642 1235 744 q 1238 431 1244 539 q 1215 228 1232 322 q 1169 67 1199 135 q 1099 -22 1140 0 z "},"n":{"ha":1128,"x_min":64,"x_max":1107,"o":"m 361 -18 q 274 -35 319 -33 q 185 -35 229 -37 q 163 -33 179 -35 q 143 -29 147 -31 q 118 -24 131 -26 q 94 -14 106 -21 q 80 -1 88 -8 q 69 15 72 7 q 64 51 64 28 q 66 102 64 74 q 72 160 68 131 q 81 214 76 189 q 85 419 86 317 q 81 624 83 521 q 75 742 78 683 q 69 861 72 801 q 70 913 69 888 q 75 965 71 939 q 104 1035 79 1006 q 155 1067 124 1057 q 222 1079 186 1078 q 292 1074 257 1081 q 354 1056 328 1068 q 428 999 397 1036 q 483 922 460 963 q 540 799 517 863 q 585 671 564 736 q 621 550 604 610 q 650 428 638 490 q 653 410 650 424 q 663 458 658 435 q 669 489 668 482 q 714 657 689 574 q 779 817 739 740 q 826 885 799 853 q 889 933 853 918 q 966 946 925 949 q 1044 931 1007 943 q 1078 913 1063 925 q 1100 883 1093 900 q 1105 843 1107 864 q 1099 803 1103 822 q 1087 765 1096 792 q 1065 703 1078 738 q 1039 628 1053 668 q 1013 554 1025 589 q 990 492 1000 519 q 978 453 981 464 q 957 381 967 417 q 940 310 947 346 q 929 218 933 264 q 918 126 925 172 q 908 72 915 99 q 883 24 901 44 q 821 -17 860 -6 q 746 -21 782 -28 q 690 8 713 -17 q 663 42 675 24 q 639 81 650 61 q 566 232 599 156 q 497 383 533 308 q 476 426 486 404 q 454 468 465 447 q 465 364 461 415 q 471 260 469 313 q 474 178 474 219 q 467 96 474 136 q 457 57 464 76 q 436 24 450 38 q 401 -1 421 8 q 361 -18 382 -11 z "},"ñ":{"ha":1128,"x_min":64,"x_max":1107,"o":"m 361 -18 q 274 -35 319 -33 q 185 -35 229 -37 q 163 -33 179 -35 q 143 -29 147 -31 q 118 -24 131 -26 q 94 -14 106 -21 q 80 -1 88 -8 q 69 15 72 7 q 64 51 64 28 q 66 102 64 74 q 72 160 68 131 q 81 214 76 189 q 85 419 86 317 q 81 624 83 521 q 75 742 78 683 q 69 861 72 801 q 70 913 69 888 q 75 965 71 939 q 104 1035 79 1006 q 155 1067 124 1057 q 222 1079 186 1078 q 292 1074 257 1081 q 354 1056 328 1068 q 428 999 397 1036 q 483 922 460 963 q 540 799 517 863 q 585 671 564 736 q 621 550 604 610 q 650 428 638 490 q 653 410 650 424 q 663 458 658 435 q 669 489 668 482 q 714 657 689 574 q 779 817 739 740 q 826 885 799 853 q 889 933 853 918 q 966 946 925 949 q 1044 931 1007 943 q 1078 913 1063 925 q 1100 883 1093 900 q 1105 843 1107 864 q 1099 803 1103 822 q 1087 765 1096 792 q 1065 703 1078 738 q 1039 628 1053 668 q 1013 554 1025 589 q 990 492 1000 519 q 978 453 981 464 q 957 381 967 417 q 940 310 947 346 q 929 218 933 264 q 918 126 925 172 q 908 72 915 99 q 883 24 901 44 q 821 -17 860 -6 q 746 -21 782 -28 q 690 8 713 -17 q 663 42 675 24 q 639 81 650 61 q 566 232 599 156 q 497 383 533 308 q 476 426 486 404 q 454 468 465 447 q 465 364 461 415 q 471 260 469 313 q 474 178 474 219 q 467 96 474 136 q 457 57 464 76 q 436 24 450 38 q 401 -1 421 8 q 361 -18 382 -11 z "},"o":{"ha":1024,"x_min":26,"x_max":990,"o":"m 978 658 q 984 498 990 579 q 952 341 978 417 q 883 199 926 265 q 779 85 839 133 q 644 12 719 38 q 479 -10 568 -14 q 326 22 399 -6 q 197 94 254 49 q 101 201 140 140 q 44 331 61 261 q 35 476 26 400 q 83 628 43 551 q 184 777 125 708 q 317 891 243 846 q 478 953 392 936 q 660 950 564 971 q 748 925 704 940 q 829 882 792 910 q 883 838 857 863 q 928 785 908 814 q 978 658 967 725 m 407 447 q 442 381 413 407 q 511 363 472 356 q 593 399 557 371 q 649 472 629 428 q 671 536 663 503 q 675 603 679 569 q 651 660 671 638 q 602 692 631 683 q 542 693 574 700 q 483 661 510 686 q 465 640 472 651 q 450 615 457 628 q 414 534 428 578 q 407 447 400 490 z "},"ò":{"ha":1024,"x_min":26,"x_max":990,"o":"m 978 658 q 984 498 990 579 q 952 341 978 417 q 883 199 926 265 q 779 85 839 133 q 644 12 719 38 q 479 -10 568 -14 q 326 22 399 -6 q 197 94 254 49 q 101 201 140 140 q 44 331 61 261 q 35 476 26 400 q 83 628 43 551 q 184 777 125 708 q 317 891 243 846 q 478 953 392 936 q 660 950 564 971 q 748 925 704 940 q 829 882 792 910 q 883 838 857 863 q 928 785 908 814 q 978 658 967 725 m 407 447 q 442 381 413 407 q 511 363 472 356 q 593 399 557 371 q 649 472 629 428 q 671 536 663 503 q 675 603 679 569 q 651 660 671 638 q 602 692 631 683 q 542 693 574 700 q 483 661 510 686 q 465 640 472 651 q 450 615 457 628 q 414 534 428 578 q 407 447 400 490 z "},"ó":{"ha":1024,"x_min":26,"x_max":990,"o":"m 978 658 q 984 498 990 579 q 952 341 978 417 q 883 199 926 265 q 779 85 839 133 q 644 12 719 38 q 479 -10 568 -14 q 326 22 399 -6 q 197 94 254 49 q 101 201 140 140 q 44 331 61 261 q 35 476 26 400 q 83 628 43 551 q 184 777 125 708 q 317 891 243 846 q 478 953 392 936 q 660 950 564 971 q 748 925 704 940 q 829 882 792 910 q 883 838 857 863 q 928 785 908 814 q 978 658 967 725 m 407 447 q 442 381 413 407 q 511 363 472 356 q 593 399 557 371 q 649 472 629 428 q 671 536 663 503 q 675 603 679 569 q 651 660 671 638 q 602 692 631 683 q 542 693 574 700 q 483 661 510 686 q 465 640 472 651 q 450 615 457 628 q 414 534 428 578 q 407 447 400 490 z "},"ô":{"ha":1024,"x_min":26,"x_max":990,"o":"m 978 658 q 984 498 990 579 q 952 341 978 417 q 883 199 926 265 q 779 85 839 133 q 644 12 719 38 q 479 -10 568 -14 q 326 22 399 -6 q 197 94 254 49 q 101 201 140 140 q 44 331 61 261 q 35 476 26 400 q 83 628 43 551 q 184 777 125 708 q 317 891 243 846 q 478 953 392 936 q 660 950 564 971 q 748 925 704 940 q 829 882 792 910 q 883 838 857 863 q 928 785 908 814 q 978 658 967 725 m 407 447 q 442 381 413 407 q 511 363 472 356 q 593 399 557 371 q 649 472 629 428 q 671 536 663 503 q 675 603 679 569 q 651 660 671 638 q 602 692 631 683 q 542 693 574 700 q 483 661 510 686 q 465 640 472 651 q 450 615 457 628 q 414 534 428 578 q 407 447 400 490 z "},"õ":{"ha":1024,"x_min":26,"x_max":990,"o":"m 978 658 q 984 498 990 579 q 952 341 978 417 q 883 199 926 265 q 779 85 839 133 q 644 12 719 38 q 479 -10 568 -14 q 326 22 399 -6 q 197 94 254 49 q 101 201 140 140 q 44 331 61 261 q 35 476 26 400 q 83 628 43 551 q 184 777 125 708 q 317 891 243 846 q 478 953 392 936 q 660 950 564 971 q 748 925 704 940 q 829 882 792 910 q 883 838 857 863 q 928 785 908 814 q 978 658 967 725 m 407 447 q 442 381 413 407 q 511 363 472 356 q 593 399 557 371 q 649 472 629 428 q 671 536 663 503 q 675 603 679 569 q 651 660 671 638 q 602 692 631 683 q 542 693 574 700 q 483 661 510 686 q 465 640 472 651 q 450 615 457 628 q 414 534 428 578 q 407 447 400 490 z "},"ö":{"ha":1024,"x_min":26,"x_max":990,"o":"m 978 658 q 984 498 990 579 q 952 341 978 417 q 883 199 926 265 q 779 85 839 133 q 644 12 719 38 q 479 -10 568 -14 q 326 22 399 -6 q 197 94 254 49 q 101 201 140 140 q 44 331 61 261 q 35 476 26 400 q 83 628 43 551 q 184 777 125 708 q 317 891 243 846 q 478 953 392 936 q 660 950 564 971 q 748 925 704 940 q 829 882 792 910 q 883 838 857 863 q 928 785 908 814 q 978 658 967 725 m 407 447 q 442 381 413 407 q 511 363 472 356 q 593 399 557 371 q 649 472 629 428 q 671 536 663 503 q 675 603 679 569 q 651 660 671 638 q 602 692 631 683 q 542 693 574 700 q 483 661 510 686 q 465 640 472 651 q 450 615 457 628 q 414 534 428 578 q 407 447 400 490 z "},"ø":{"ha":1024,"x_min":26,"x_max":990,"o":"m 978 658 q 984 498 990 579 q 952 341 978 417 q 883 199 926 265 q 779 85 839 133 q 644 12 719 38 q 479 -10 568 -14 q 326 22 399 -6 q 197 94 254 49 q 101 201 140 140 q 44 331 61 261 q 35 476 26 400 q 83 628 43 551 q 184 777 125 708 q 317 891 243 846 q 478 953 392 936 q 660 950 564 971 q 748 925 704 940 q 829 882 792 910 q 883 838 857 863 q 928 785 908 814 q 978 658 967 725 m 407 447 q 442 381 413 407 q 511 363 472 356 q 593 399 557 371 q 649 472 629 428 q 671 536 663 503 q 675 603 679 569 q 651 660 671 638 q 602 692 631 683 q 542 693 574 700 q 483 661 510 686 q 465 640 472 651 q 450 615 457 628 q 414 534 428 578 q 407 447 400 490 z "},"p":{"ha":933,"x_min":58,"x_max":903,"o":"m 351 -18 q 303 -31 332 -26 q 246 -35 275 -35 q 190 -29 217 -35 q 147 -11 164 -24 q 121 24 129 3 q 107 67 113 46 q 85 203 90 135 q 76 342 79 271 q 62 544 65 443 q 64 746 58 644 q 72 848 67 797 q 96 947 78 899 q 147 1004 110 985 q 214 1027 179 1021 q 285 1038 249 1033 q 365 1047 325 1044 q 446 1050 406 1049 q 570 1042 508 1050 q 690 1014 632 1035 q 773 966 735 997 q 838 896 811 935 q 887 792 871 847 q 903 681 903 738 q 887 571 903 625 q 839 469 871 517 q 767 395 811 428 q 674 349 724 363 q 582 333 629 336 q 489 335 535 331 q 426 342 457 338 q 364 358 394 347 q 392 287 378 322 q 425 217 407 251 q 447 175 436 196 q 460 132 457 154 q 456 84 463 108 q 433 42 449 60 q 351 -18 399 0 m 368 638 q 400 608 379 617 q 446 598 421 599 q 497 603 471 597 q 546 618 524 608 q 571 633 558 625 q 590 651 583 640 q 597 669 596 660 q 596 689 597 679 q 551 763 589 733 q 519 781 538 772 q 480 795 500 790 q 440 799 460 800 q 407 789 421 799 q 358 722 371 765 q 368 638 346 678 z "},"q":{"ha":1026,"x_min":26,"x_max":989,"o":"m 811 -135 q 749 -153 782 -147 q 685 -154 717 -160 q 653 -146 667 -151 q 648 -144 650 -144 q 643 -142 646 -143 q 619 -119 629 -136 q 587 -66 599 -96 q 567 -7 575 -36 q 524 -10 546 -10 q 479 -10 503 -11 q 326 22 399 -6 q 197 94 254 49 q 101 201 140 140 q 44 331 61 261 q 35 476 26 400 q 83 628 43 551 q 184 777 125 708 q 317 891 243 846 q 478 953 392 936 q 660 950 564 971 q 748 925 704 940 q 829 882 792 910 q 883 838 857 863 q 928 785 908 814 q 978 658 967 725 q 986 523 989 592 q 967 389 983 454 q 919 263 950 324 q 847 153 889 203 q 851 145 850 149 q 854 139 851 142 q 887 89 868 113 q 915 38 906 65 q 920 -11 922 14 q 907 -57 918 -36 q 865 -103 892 -85 q 811 -135 839 -121 m 407 447 q 440 384 414 410 q 501 361 465 358 q 496 430 497 397 q 501 479 494 463 q 526 499 508 493 q 557 501 543 504 q 583 489 574 499 q 599 461 589 482 q 611 432 608 440 q 613 427 613 429 q 615 422 614 425 q 649 472 636 443 q 671 536 663 503 q 675 603 679 569 q 651 660 671 638 q 602 692 631 683 q 542 693 574 700 q 483 661 510 686 q 465 640 472 651 q 450 615 457 628 q 414 534 428 578 q 407 447 400 490 z "},"r":{"ha":971,"x_min":56,"x_max":925,"o":"m 294 -35 q 244 -41 275 -39 q 181 -42 214 -43 q 118 -35 147 -40 q 74 -17 89 -29 q 60 6 64 -11 q 58 11 58 7 l 58 15 l 58 18 q 57 41 56 29 q 60 64 58 53 q 74 148 67 106 q 85 232 82 190 q 86 252 86 243 q 86 272 86 261 q 87 447 89 360 q 81 621 85 533 q 75 718 78 669 q 72 815 72 767 q 81 900 74 857 q 111 978 88 943 q 153 1020 128 1003 q 204 1050 178 1038 q 378 1094 286 1088 q 457 1097 418 1097 q 536 1093 496 1096 q 625 1081 581 1089 q 710 1057 669 1074 q 854 949 796 1022 q 897 880 879 917 q 919 803 914 843 q 917 708 925 756 q 889 617 908 660 q 847 548 874 579 q 790 489 821 517 q 768 470 779 479 q 746 454 757 461 q 781 439 764 447 q 806 425 797 431 q 823 410 815 418 q 838 392 831 401 q 903 233 890 322 q 906 189 904 218 q 908 128 908 160 q 903 68 907 96 q 893 26 900 40 q 839 -14 875 -4 q 782 -22 811 -22 q 724 -21 753 -22 q 705 -19 717 -21 q 681 -16 693 -18 q 657 -10 668 -14 q 640 -1 646 -6 q 628 22 631 8 q 624 49 625 36 q 619 101 621 75 q 613 153 617 126 q 603 200 610 176 q 582 243 596 224 q 543 275 567 264 q 502 285 524 283 q 460 288 481 288 q 431 282 449 286 q 407 267 413 278 q 398 227 397 249 q 399 185 399 206 q 399 101 400 143 q 385 18 399 58 q 357 -15 379 -3 q 332 -24 346 -19 q 313 -30 322 -28 q 294 -35 304 -32 m 410 801 q 397 764 400 789 q 393 710 393 739 q 395 653 393 681 q 397 611 397 626 q 462 615 426 611 q 531 630 497 619 q 589 658 564 640 q 622 703 614 675 q 620 764 631 733 q 586 811 610 794 q 547 827 568 824 q 503 829 525 831 q 472 826 488 828 q 442 819 457 825 q 425 813 433 817 q 410 801 417 808 z "},"s":{"ha":824,"x_min":31,"x_max":789,"o":"m 494 14 q 394 -31 447 -14 q 288 -47 342 -49 q 244 -45 267 -47 q 203 -35 222 -43 q 163 -7 182 -26 q 131 37 144 13 q 111 88 118 61 q 106 138 104 114 q 112 174 107 156 q 129 207 117 192 q 155 227 140 219 q 185 242 169 235 q 259 267 221 257 q 333 294 297 278 q 378 321 357 306 q 413 358 400 336 q 418 372 415 364 q 418 385 421 379 q 399 394 414 390 q 378 399 385 397 q 288 406 333 406 q 199 414 243 407 q 154 423 176 417 q 114 443 132 429 q 74 484 90 460 q 46 536 57 508 q 31 618 31 575 q 44 700 32 661 q 107 819 64 764 q 204 913 150 874 q 303 964 250 944 q 413 990 357 983 q 570 995 490 1000 q 725 963 650 990 q 758 942 743 956 q 781 910 774 928 q 788 855 789 883 q 779 800 788 826 q 756 745 769 772 q 721 699 742 718 q 694 681 710 688 q 664 675 679 675 q 611 685 636 674 q 561 707 586 696 q 517 721 540 715 q 472 725 494 726 q 417 709 444 722 q 375 672 389 696 q 365 642 367 658 q 369 611 363 625 q 383 596 374 601 q 401 588 392 590 q 440 578 411 583 q 500 569 468 574 q 560 560 532 564 q 599 554 588 556 q 707 494 672 539 q 747 392 742 450 q 733 274 753 335 q 676 164 713 213 q 593 79 640 115 q 494 14 546 43 z "},"t":{"ha":729,"x_min":19,"x_max":713,"o":"m 532 519 q 549 411 538 471 q 569 289 561 351 q 575 167 576 226 q 552 60 574 107 q 484 -15 531 14 q 356 -43 438 -43 q 215 -5 263 -43 q 151 95 167 33 q 143 235 135 157 q 168 394 151 313 q 203 551 185 475 q 229 683 222 626 q 229 720 232 708 q 217 735 226 732 q 192 737 207 738 q 158 736 178 736 q 80 763 111 738 q 34 824 49 788 q 21 904 19 861 q 40 983 22 947 q 91 1042 57 1018 q 175 1064 125 1065 q 232 1060 190 1064 q 320 1054 274 1057 q 408 1049 367 1051 q 465 1046 450 1046 q 517 1047 492 1046 q 569 1046 543 1047 q 641 1024 611 1044 q 688 974 671 1004 q 708 908 704 944 q 703 840 713 872 q 672 783 694 807 q 611 754 649 760 q 569 751 590 751 q 525 750 547 750 q 521 687 522 710 q 520 643 519 664 q 524 596 521 622 q 532 519 526 569 z "},"u":{"ha":1086,"x_min":36,"x_max":1042,"o":"m 799 53 q 631 -20 724 0 q 446 -33 538 -40 q 351 -13 397 -31 q 260 24 304 4 q 147 117 194 54 q 74 262 100 181 q 42 435 47 343 q 54 614 36 526 q 115 778 72 701 q 226 906 157 854 q 296 936 257 928 q 369 934 335 944 q 426 892 403 924 q 447 806 449 861 q 435 713 446 764 q 414 622 424 663 q 400 549 406 589 q 397 469 394 508 q 414 399 400 431 q 458 353 428 367 q 503 342 479 343 q 551 349 528 342 q 631 399 600 363 q 656 440 646 417 q 668 488 665 464 q 672 555 672 521 q 667 622 671 589 q 640 740 658 682 q 622 858 622 797 q 630 925 621 892 q 660 985 639 958 q 713 1025 681 1013 q 792 1042 750 1040 q 874 1033 835 1044 q 943 995 913 1021 q 988 928 974 969 q 1025 776 1011 856 q 1040 614 1039 696 q 1028 451 1042 532 q 987 297 1015 369 q 912 161 958 224 q 799 53 865 99 z "},"ù":{"ha":1086,"x_min":36,"x_max":1042,"o":"m 799 53 q 631 -20 724 0 q 446 -33 538 -40 q 351 -13 397 -31 q 260 24 304 4 q 147 117 194 54 q 74 262 100 181 q 42 435 47 343 q 54 614 36 526 q 115 778 72 701 q 226 906 157 854 q 296 936 257 928 q 369 934 335 944 q 426 892 403 924 q 447 806 449 861 q 435 713 446 764 q 414 622 424 663 q 400 549 406 589 q 397 469 394 508 q 414 399 400 431 q 458 353 428 367 q 503 342 479 343 q 551 349 528 342 q 631 399 600 363 q 656 440 646 417 q 668 488 665 464 q 672 555 672 521 q 667 622 671 589 q 640 740 658 682 q 622 858 622 797 q 630 925 621 892 q 660 985 639 958 q 713 1025 681 1013 q 792 1042 750 1040 q 874 1033 835 1044 q 943 995 913 1021 q 988 928 974 969 q 1025 776 1011 856 q 1040 614 1039 696 q 1028 451 1042 532 q 987 297 1015 369 q 912 161 958 224 q 799 53 865 99 z "},"ú":{"ha":1086,"x_min":36,"x_max":1042,"o":"m 799 53 q 631 -20 724 0 q 446 -33 538 -40 q 351 -13 397 -31 q 260 24 304 4 q 147 117 194 54 q 74 262 100 181 q 42 435 47 343 q 54 614 36 526 q 115 778 72 701 q 226 906 157 854 q 296 936 257 928 q 369 934 335 944 q 426 892 403 924 q 447 806 449 861 q 435 713 446 764 q 414 622 424 663 q 400 549 406 589 q 397 469 394 508 q 414 399 400 431 q 458 353 428 367 q 503 342 479 343 q 551 349 528 342 q 631 399 600 363 q 656 440 646 417 q 668 488 665 464 q 672 555 672 521 q 667 622 671 589 q 640 740 658 682 q 622 858 622 797 q 630 925 621 892 q 660 985 639 958 q 713 1025 681 1013 q 792 1042 750 1040 q 874 1033 835 1044 q 943 995 913 1021 q 988 928 974 969 q 1025 776 1011 856 q 1040 614 1039 696 q 1028 451 1042 532 q 987 297 1015 369 q 912 161 958 224 q 799 53 865 99 z "},"û":{"ha":1086,"x_min":36,"x_max":1042,"o":"m 799 53 q 631 -20 724 0 q 446 -33 538 -40 q 351 -13 397 -31 q 260 24 304 4 q 147 117 194 54 q 74 262 100 181 q 42 435 47 343 q 54 614 36 526 q 115 778 72 701 q 226 906 157 854 q 296 936 257 928 q 369 934 335 944 q 426 892 403 924 q 447 806 449 861 q 435 713 446 764 q 414 622 424 663 q 400 549 406 589 q 397 469 394 508 q 414 399 400 431 q 458 353 428 367 q 503 342 479 343 q 551 349 528 342 q 631 399 600 363 q 656 440 646 417 q 668 488 665 464 q 672 555 672 521 q 667 622 671 589 q 640 740 658 682 q 622 858 622 797 q 630 925 621 892 q 660 985 639 958 q 713 1025 681 1013 q 792 1042 750 1040 q 874 1033 835 1044 q 943 995 913 1021 q 988 928 974 969 q 1025 776 1011 856 q 1040 614 1039 696 q 1028 451 1042 532 q 987 297 1015 369 q 912 161 958 224 q 799 53 865 99 z "},"ü":{"ha":1086,"x_min":36,"x_max":1042,"o":"m 799 53 q 631 -20 724 0 q 446 -33 538 -40 q 351 -13 397 -31 q 260 24 304 4 q 147 117 194 54 q 74 262 100 181 q 42 435 47 343 q 54 614 36 526 q 115 778 72 701 q 226 906 157 854 q 296 936 257 928 q 369 934 335 944 q 426 892 403 924 q 447 806 449 861 q 435 713 446 764 q 414 622 424 663 q 400 549 406 589 q 397 469 394 508 q 414 399 400 431 q 458 353 428 367 q 503 342 479 343 q 551 349 528 342 q 631 399 600 363 q 656 440 646 417 q 668 488 665 464 q 672 555 672 521 q 667 622 671 589 q 640 740 658 682 q 622 858 622 797 q 630 925 621 892 q 660 985 639 958 q 713 1025 681 1013 q 792 1042 750 1040 q 874 1033 835 1044 q 943 995 913 1021 q 988 928 974 969 q 1025 776 1011 856 q 1040 614 1039 696 q 1028 451 1042 532 q 987 297 1015 369 q 912 161 958 224 q 799 53 865 99 z "},"v":{"ha":1017,"x_min":29,"x_max":985,"o":"m 574 -46 q 512 -44 543 -50 q 453 -26 481 -37 q 344 47 392 -1 q 261 147 297 94 q 172 309 208 224 q 113 483 136 394 q 78 627 93 556 q 47 771 63 699 q 34 854 39 814 q 34 930 29 894 q 58 997 39 965 q 115 1057 76 1029 q 176 1085 142 1076 q 243 1090 211 1094 q 333 1049 293 1083 q 381 991 361 1024 q 411 922 400 958 q 440 772 433 849 q 461 621 446 696 q 483 535 469 576 q 525 457 497 493 q 551 431 533 446 q 583 419 568 417 q 611 435 599 421 q 633 469 624 450 q 649 509 642 489 q 661 544 657 529 q 700 675 682 610 q 744 804 718 740 q 778 850 757 833 q 823 872 799 867 q 873 874 847 878 q 922 860 899 871 q 947 842 936 853 q 965 817 958 831 q 981 763 978 792 q 983 706 985 733 q 974 620 982 663 q 954 536 965 578 q 909 384 935 458 q 851 236 883 310 q 783 110 822 171 q 686 6 743 50 q 634 -28 663 -14 q 574 -46 606 -42 z "},"w":{"ha":1335,"x_min":42,"x_max":1299,"o":"m 439 35 q 370 8 408 15 q 296 8 332 1 q 167 85 218 26 q 88 220 117 143 q 51 382 60 297 q 47 536 42 467 q 59 639 51 585 q 81 746 67 693 q 119 846 96 799 q 176 928 142 893 q 256 984 210 964 q 367 1003 303 1004 q 403 994 383 1001 q 440 974 422 986 q 473 946 458 961 q 494 915 488 931 q 504 874 503 896 q 503 833 506 853 q 481 715 496 772 q 450 599 465 657 q 432 501 439 551 q 440 406 425 451 q 450 384 443 394 q 468 375 457 374 q 498 397 483 376 q 519 429 513 417 q 558 517 543 472 q 593 606 572 563 q 607 627 599 617 q 626 643 615 638 q 652 645 638 647 q 681 637 667 643 q 708 622 696 631 q 729 604 721 613 q 776 542 757 576 q 818 476 796 508 q 838 449 828 463 q 861 426 847 436 q 913 415 885 408 q 954 447 942 421 q 967 486 965 467 q 973 588 976 538 q 967 690 969 639 q 966 747 964 718 q 979 799 968 775 q 1026 853 996 833 q 1090 876 1056 874 q 1158 865 1125 879 q 1214 819 1190 851 q 1250 743 1238 785 q 1290 553 1282 651 q 1283 358 1299 454 q 1254 249 1274 303 q 1203 150 1235 194 q 1131 77 1172 110 q 1043 31 1090 44 q 883 29 964 7 q 792 76 835 44 q 721 151 749 108 q 687 209 701 179 q 650 264 672 239 q 640 276 646 269 q 628 278 633 282 q 613 259 621 274 q 594 228 604 244 q 577 197 585 213 q 565 175 569 182 q 510 97 542 135 q 439 35 479 60 z "},"x":{"ha":1014,"x_min":32,"x_max":986,"o":"m 813 21 q 780 3 797 10 q 744 -4 763 -4 q 706 2 725 -4 q 672 19 688 8 q 538 124 600 64 q 424 250 476 183 q 410 268 417 260 q 396 286 403 276 q 345 217 369 251 q 299 144 321 182 q 268 92 283 118 q 233 42 253 65 q 169 7 208 13 q 99 25 129 1 q 76 61 81 39 q 79 115 74 89 q 93 168 85 142 q 144 277 113 225 q 208 379 175 329 q 234 416 221 399 q 261 451 247 433 q 220 497 240 475 q 181 542 200 518 q 92 669 131 600 q 39 814 54 739 q 33 868 32 840 q 46 919 35 896 q 91 975 63 951 q 151 1017 119 999 q 224 1049 185 1036 q 304 1060 264 1063 q 357 1048 331 1058 q 403 1019 383 1038 q 431 981 419 1003 q 450 936 443 960 q 472 860 461 899 q 496 785 482 822 q 504 765 500 775 q 513 746 508 756 q 568 806 539 778 q 626 863 597 835 q 717 944 671 904 q 819 1008 764 983 q 862 1020 839 1017 q 904 1014 885 1024 q 947 983 929 1003 q 975 940 965 964 q 985 890 985 917 q 975 839 986 864 q 949 799 965 817 q 914 765 933 781 q 872 731 893 747 q 826 700 850 715 q 729 624 778 664 q 635 544 681 585 q 763 404 693 469 q 843 331 803 367 q 919 254 883 296 q 942 192 942 228 q 932 144 943 168 q 906 100 921 119 q 863 56 886 76 q 813 21 839 36 z "},"y":{"ha":908,"x_min":22,"x_max":893,"o":"m 549 31 q 483 -15 519 3 q 408 -37 447 -32 q 328 -37 368 -43 q 254 -10 289 -31 q 205 43 219 11 q 190 115 190 75 q 200 199 190 154 q 224 288 210 243 q 251 376 238 332 q 271 457 264 419 q 269 461 272 460 q 264 464 267 463 q 194 508 228 483 q 129 560 160 532 q 75 622 99 589 q 38 693 51 656 q 24 756 26 724 q 29 815 22 788 q 53 865 36 843 q 94 899 69 886 q 155 915 126 914 q 208 908 183 917 q 251 884 232 900 q 286 847 271 868 q 319 793 304 821 q 351 750 335 765 q 385 740 367 735 q 431 782 404 744 q 461 830 439 794 q 508 906 483 865 q 554 981 532 946 q 585 1031 576 1017 q 649 1082 610 1069 q 728 1086 688 1094 q 806 1053 769 1078 q 865 992 843 1028 q 890 911 888 956 q 864 821 893 867 q 767 686 821 751 q 670 551 714 621 q 603 401 626 481 q 597 221 581 321 q 603 167 601 193 q 596 113 604 140 q 578 69 589 90 q 549 31 567 47 z "},"ý":{"ha":908,"x_min":22,"x_max":893,"o":"m 549 31 q 483 -15 519 3 q 408 -37 447 -32 q 328 -37 368 -43 q 254 -10 289 -31 q 205 43 219 11 q 190 115 190 75 q 200 199 190 154 q 224 288 210 243 q 251 376 238 332 q 271 457 264 419 q 269 461 272 460 q 264 464 267 463 q 194 508 228 483 q 129 560 160 532 q 75 622 99 589 q 38 693 51 656 q 24 756 26 724 q 29 815 22 788 q 53 865 36 843 q 94 899 69 886 q 155 915 126 914 q 208 908 183 917 q 251 884 232 900 q 286 847 271 868 q 319 793 304 821 q 351 750 335 765 q 385 740 367 735 q 431 782 404 744 q 461 830 439 794 q 508 906 483 865 q 554 981 532 946 q 585 1031 576 1017 q 649 1082 610 1069 q 728 1086 688 1094 q 806 1053 769 1078 q 865 992 843 1028 q 890 911 888 956 q 864 821 893 867 q 767 686 821 751 q 670 551 714 621 q 603 401 626 481 q 597 221 581 321 q 603 167 601 193 q 596 113 604 140 q 578 69 589 90 q 549 31 567 47 z "},"ÿ":{"ha":908,"x_min":22,"x_max":893,"o":"m 549 31 q 483 -15 519 3 q 408 -37 447 -32 q 328 -37 368 -43 q 254 -10 289 -31 q 205 43 219 11 q 190 115 190 75 q 200 199 190 154 q 224 288 210 243 q 251 376 238 332 q 271 457 264 419 q 269 461 272 460 q 264 464 267 463 q 194 508 228 483 q 129 560 160 532 q 75 622 99 589 q 38 693 51 656 q 24 756 26 724 q 29 815 22 788 q 53 865 36 843 q 94 899 69 886 q 155 915 126 914 q 208 908 183 917 q 251 884 232 900 q 286 847 271 868 q 319 793 304 821 q 351 750 335 765 q 385 740 367 735 q 431 782 404 744 q 461 830 439 794 q 508 906 483 865 q 554 981 532 946 q 585 1031 576 1017 q 649 1082 610 1069 q 728 1086 688 1094 q 806 1053 769 1078 q 865 992 843 1028 q 890 911 888 956 q 864 821 893 867 q 767 686 821 751 q 670 551 714 621 q 603 401 626 481 q 597 221 581 321 q 603 167 601 193 q 596 113 604 140 q 578 69 589 90 q 549 31 567 47 z "},"z":{"ha":947,"x_min":28,"x_max":907,"o":"m 814 -12 q 765 -24 790 -22 q 715 -26 740 -26 q 610 -20 663 -25 q 504 -8 557 -15 q 413 6 458 -1 q 319 19 367 13 q 248 33 283 26 q 176 54 213 40 q 135 78 156 63 q 108 115 115 93 q 106 149 104 131 q 114 182 108 167 q 164 273 132 231 q 232 353 196 315 q 333 454 281 406 q 438 551 386 503 q 511 620 474 586 q 585 690 549 654 q 606 714 596 701 q 626 740 617 726 q 589 726 607 733 q 551 710 571 718 q 449 661 499 686 q 346 613 399 636 q 287 588 317 599 q 225 571 257 576 q 144 575 183 563 q 90 611 114 588 q 61 651 72 629 q 43 697 50 674 q 33 805 28 749 q 63 908 39 861 q 85 943 72 926 q 117 971 99 960 q 172 994 143 986 q 231 1008 201 1001 q 348 1036 289 1021 q 467 1063 407 1051 q 586 1079 526 1075 q 707 1075 646 1083 q 753 1067 731 1072 q 796 1050 775 1061 q 872 983 843 1026 q 903 888 900 940 q 892 791 907 839 q 853 700 876 743 q 803 621 831 658 q 744 548 775 583 q 683 477 714 513 q 621 407 651 442 q 608 392 617 403 q 592 371 600 382 q 576 349 583 360 q 568 332 569 338 q 574 331 571 332 q 582 328 578 329 q 628 319 593 325 q 702 308 663 314 q 776 295 742 301 q 822 286 811 289 q 852 276 838 282 q 876 260 867 271 q 890 236 886 250 q 896 208 894 222 q 894 162 897 185 q 888 115 892 139 q 878 72 883 93 q 861 31 872 50 q 841 4 853 15 q 814 -12 829 -7 z "},"{":{"ha":844,"x_min":35,"x_max":808,"o":"m 736 -54 q 671 -79 707 -74 q 599 -85 635 -85 q 435 -69 518 -83 q 283 -8 351 -54 q 224 39 251 13 q 176 97 196 65 q 154 151 161 122 q 144 208 147 179 q 144 292 142 250 q 150 376 147 335 q 148 414 150 396 q 135 447 146 432 q 108 469 124 461 q 78 483 93 476 q 64 488 75 485 q 50 494 53 492 q 44 519 35 504 q 53 527 47 525 q 64 532 58 529 q 96 549 81 540 q 126 569 111 558 q 157 625 153 594 q 158 690 161 657 q 151 756 154 724 q 147 869 147 813 q 161 982 147 926 q 180 1035 168 1010 q 206 1086 192 1061 q 234 1128 217 1108 q 271 1163 251 1147 q 329 1201 299 1183 q 393 1228 360 1218 q 473 1247 425 1238 q 571 1258 521 1256 q 665 1254 621 1261 q 735 1225 710 1247 q 774 1165 761 1199 q 787 1103 783 1138 q 785 1035 790 1068 q 765 974 781 1003 q 725 931 750 946 q 676 914 704 917 q 594 911 636 908 q 513 911 553 914 q 467 905 489 908 q 425 893 444 901 q 376 854 393 879 q 363 822 367 839 q 358 788 360 804 q 358 713 354 750 q 360 639 363 676 q 333 554 356 594 q 317 533 326 543 q 299 513 308 524 q 295 508 297 511 q 293 503 293 506 q 294 499 292 501 q 299 496 297 497 q 319 476 308 485 q 340 457 331 468 q 354 425 350 444 q 362 358 361 392 q 374 292 363 324 q 393 260 381 275 q 422 239 406 246 q 484 228 451 228 q 549 228 517 228 q 647 228 597 228 q 743 208 697 228 q 768 195 756 203 q 789 176 781 188 q 804 138 800 161 q 807 90 808 115 q 800 41 806 65 q 786 0 794 17 q 736 -54 769 -35 z "},"}":{"ha":844,"x_min":36,"x_max":810,"o":"m 246 -85 q 174 -79 210 -85 q 108 -54 138 -74 q 58 0 75 -35 q 44 41 50 17 q 38 90 39 65 q 40 138 36 115 q 56 176 44 161 q 76 195 64 188 q 101 208 89 203 q 197 228 147 228 q 296 228 247 228 q 360 228 328 228 q 422 239 393 228 q 451 260 439 246 q 471 292 464 275 q 483 358 482 324 q 490 425 483 392 q 504 457 494 444 q 525 476 514 468 q 546 496 536 485 q 550 499 547 497 q 551 503 553 501 q 549 508 551 506 q 546 513 547 511 q 527 533 536 524 q 511 554 518 543 q 485 639 489 594 q 486 713 482 676 q 486 788 490 750 q 481 822 485 804 q 468 854 478 839 q 419 893 451 879 q 378 905 400 901 q 332 911 356 908 q 250 911 292 914 q 168 914 208 908 q 119 931 140 917 q 79 974 94 946 q 59 1035 64 1003 q 57 1103 54 1068 q 71 1165 60 1138 q 110 1225 83 1199 q 179 1254 135 1247 q 274 1258 224 1261 q 372 1247 324 1256 q 451 1228 419 1238 q 515 1201 485 1218 q 574 1163 546 1183 q 610 1128 593 1147 q 639 1086 628 1108 q 665 1035 653 1061 q 683 982 676 1010 q 697 869 697 926 q 693 756 697 813 q 687 690 690 724 q 688 625 683 657 q 718 569 692 594 q 749 549 733 558 q 781 532 764 540 q 792 527 786 529 q 800 519 797 525 q 794 494 810 504 q 781 488 792 492 q 767 483 769 485 q 736 469 751 476 q 710 447 721 461 q 697 414 699 432 q 694 376 694 396 q 700 292 697 335 q 700 208 703 250 q 690 151 697 179 q 668 97 683 122 q 621 39 649 65 q 561 -8 593 13 q 410 -69 493 -54 q 246 -85 326 -83 z "},"~":{"ha":903,"x_min":39,"x_max":860,"o":"m 844 343 q 799 288 831 314 q 729 242 767 261 q 653 210 692 222 q 588 197 615 199 q 525 205 556 194 q 467 232 494 215 q 444 248 460 236 q 413 273 429 260 q 381 297 396 286 q 358 310 365 307 q 337 311 347 313 q 315 306 326 310 q 256 265 283 290 q 196 226 228 240 q 115 232 153 208 q 83 263 99 244 q 56 303 67 282 q 42 349 46 325 q 47 396 39 374 q 66 431 54 415 q 90 461 78 447 q 124 494 106 479 q 157 528 142 510 q 215 578 183 557 q 283 607 247 600 q 363 601 324 615 q 436 561 403 586 q 501 509 468 536 q 572 476 533 482 q 658 492 615 471 q 742 532 700 513 q 781 545 760 540 q 818 539 801 550 q 841 509 833 529 q 853 469 849 489 q 859 405 860 439 q 844 343 858 371 z "}," ":{"ha":347,"x_min":0,"x_max":0,"o":""},"¢":{"ha":936,"x_min":49,"x_max":879,"o":"m 622 -64 q 591 -73 610 -69 q 551 -76 572 -76 q 512 -74 531 -76 q 482 -65 493 -72 q 460 -40 465 -56 q 451 -1 453 -22 q 447 39 450 19 q 445 51 446 46 q 443 63 444 56 q 343 80 392 65 q 254 121 294 94 q 120 251 167 176 q 61 411 74 326 q 65 583 49 496 q 121 750 82 671 q 215 869 156 821 q 347 946 275 918 q 341 966 343 957 q 338 979 339 975 q 331 1012 333 994 q 336 1044 329 1029 q 357 1066 343 1058 q 386 1078 371 1074 q 411 1085 396 1081 q 443 1091 426 1089 q 475 1093 460 1093 q 499 1089 490 1093 q 511 1074 507 1083 q 518 1054 515 1064 q 524 1022 521 1044 q 531 976 528 1000 q 631 960 582 974 q 724 922 681 947 q 801 857 767 896 q 860 767 836 818 q 875 685 879 722 q 852 624 871 649 q 804 585 833 599 q 743 576 775 572 q 681 602 711 581 q 632 667 651 624 q 557 715 613 711 q 436 682 501 719 q 388 630 408 667 q 363 551 368 593 q 371 467 357 508 q 426 400 385 425 q 468 384 442 390 q 528 380 494 378 q 601 395 563 382 q 676 438 639 408 q 755 472 718 469 q 819 456 792 475 q 860 403 846 438 q 873 326 875 368 q 849 239 871 283 q 779 157 826 194 q 642 86 722 113 q 646 70 644 78 q 649 57 647 63 q 653 13 651 35 q 650 -29 656 -8 q 640 -49 647 -40 q 622 -64 633 -58 z "},"£":{"ha":958,"x_min":47,"x_max":900,"o":"m 421 -26 q 326 -37 374 -32 q 231 -36 279 -42 q 193 -27 211 -33 q 161 -7 175 -21 q 138 23 149 4 q 120 63 126 42 q 113 106 114 85 q 118 143 111 126 q 151 181 126 167 q 177 192 164 188 q 204 200 190 196 q 227 207 213 203 q 244 219 242 211 q 246 247 247 226 q 242 274 244 267 q 215 356 231 315 q 186 436 200 396 q 165 436 175 435 q 144 438 156 438 q 107 440 125 439 q 74 451 89 442 q 57 472 63 458 q 49 500 51 485 q 48 531 47 515 q 51 560 49 547 q 74 599 56 586 q 107 606 89 608 q 124 601 111 604 q 151 596 136 599 q 149 719 143 660 q 180 829 156 776 q 240 926 204 882 q 283 970 260 950 q 332 1006 306 990 q 395 1033 361 1024 q 464 1047 429 1043 q 560 1052 510 1053 q 659 1042 610 1051 q 753 1013 708 1032 q 835 963 799 994 q 855 938 846 951 q 868 908 864 924 q 875 844 878 878 q 860 782 872 811 q 835 740 849 760 q 804 704 822 719 q 713 682 763 669 q 659 708 683 690 q 607 736 635 726 q 528 721 561 751 q 498 670 507 701 q 486 601 489 639 q 579 606 533 604 q 672 606 625 608 q 706 603 689 606 q 735 590 724 601 q 748 569 746 582 q 750 542 750 556 q 749 522 750 535 q 747 494 749 508 q 743 468 746 481 q 736 450 740 456 q 718 438 731 443 q 691 430 706 433 q 662 424 676 426 q 639 422 647 422 q 617 422 632 422 q 583 420 601 421 q 544 419 564 419 q 510 419 525 419 q 525 377 517 397 q 549 340 533 357 q 576 319 560 328 q 610 307 593 311 q 700 297 654 296 q 792 297 746 299 q 828 294 810 297 q 863 282 847 292 q 888 247 881 271 q 898 194 896 222 q 898 136 900 165 q 893 86 896 107 q 890 61 892 74 q 882 38 888 49 q 847 -4 871 11 q 809 -16 829 -14 q 769 -18 789 -18 q 742 -18 763 -18 q 697 -17 721 -18 q 651 -16 672 -17 q 622 -15 629 -15 q 522 -18 572 -15 q 421 -26 471 -21 z "},"¤":{"ha":1079,"x_min":64,"x_max":1022,"o":"m 281 47 q 263 30 274 38 q 240 22 251 22 q 209 27 228 21 q 170 42 190 33 q 132 62 150 51 q 104 79 114 72 q 84 99 93 88 q 71 124 75 110 q 72 165 64 144 q 95 205 79 186 q 131 240 111 224 q 169 267 151 256 q 183 275 176 274 q 183 276 183 276 q 182 278 182 276 q 146 322 161 297 q 119 375 131 347 q 99 475 104 424 q 101 576 93 526 q 133 697 110 636 q 145 728 139 713 q 161 756 151 743 q 160 757 161 756 q 122 799 140 778 q 88 846 103 821 q 67 901 68 874 q 72 931 65 917 q 89 957 78 946 q 123 982 101 968 q 169 1007 144 996 q 217 1024 193 1018 q 258 1029 242 1031 q 276 1024 268 1028 q 292 1013 285 1019 q 307 990 301 1001 q 318 965 313 978 q 325 946 321 958 q 335 917 329 933 q 345 885 340 901 q 354 854 350 868 q 357 856 356 856 q 444 886 399 875 q 535 900 489 897 q 610 897 572 903 q 682 878 647 890 q 700 871 689 875 q 721 861 711 867 q 745 906 732 885 q 775 947 758 928 q 795 972 785 960 q 821 990 806 983 q 867 997 840 1001 q 890 988 879 994 q 911 974 900 981 q 942 949 924 965 q 979 913 961 932 q 1010 875 997 894 q 1022 839 1022 856 q 1011 805 1022 822 q 983 771 1000 788 q 947 739 967 754 q 908 713 926 724 q 915 697 911 706 q 921 682 918 689 q 947 538 944 614 q 922 396 950 463 q 907 363 918 386 q 886 328 896 340 l 906 308 q 945 274 925 290 q 981 238 965 258 q 993 218 988 229 q 999 196 999 207 q 984 156 997 175 q 954 124 971 138 q 916 97 939 111 q 869 73 893 83 q 822 60 846 63 q 782 68 799 57 q 760 94 769 76 q 750 114 757 100 q 736 143 743 128 q 723 173 729 158 q 715 194 717 188 q 688 182 706 188 q 663 174 671 176 q 450 157 560 142 q 411 165 431 160 q 372 178 392 171 q 351 186 364 179 q 336 153 344 169 q 325 129 328 136 q 306 87 315 107 q 281 47 296 67 m 499 433 q 547 431 524 428 q 590 446 571 435 q 624 476 610 457 q 643 519 639 494 q 644 558 646 539 q 639 597 643 578 q 595 649 629 633 q 525 654 561 664 q 487 635 504 649 q 454 606 469 621 q 448 594 451 601 q 441 577 444 586 q 435 559 438 568 q 433 546 433 550 q 435 502 431 525 q 453 461 439 479 q 474 443 461 450 q 499 433 486 436 z "},"¥":{"ha":969,"x_min":58,"x_max":929,"o":"m 585 31 q 519 -15 556 3 q 444 -37 483 -32 q 365 -37 404 -43 q 290 -10 325 -31 q 231 74 239 21 q 235 189 222 126 q 206 187 219 188 q 185 188 193 186 q 147 192 167 189 q 114 208 128 194 q 96 256 99 225 q 104 307 93 288 q 122 325 111 318 q 144 335 133 332 q 200 340 172 340 q 256 342 228 340 q 265 342 260 342 q 276 343 269 342 q 282 360 279 351 q 288 379 285 369 q 282 378 286 378 q 246 374 269 376 q 197 372 222 372 q 149 374 171 372 q 115 383 126 376 q 96 426 96 396 q 104 478 96 456 q 122 503 108 494 q 166 512 136 511 q 225 511 196 513 q 135 592 175 547 q 74 693 94 638 q 60 756 63 724 q 65 815 58 788 q 89 865 72 843 q 131 899 106 886 q 191 915 163 914 q 244 908 219 917 q 288 884 268 900 q 322 847 307 868 q 356 793 340 821 q 387 750 371 765 q 422 740 403 735 q 467 782 440 744 q 497 830 475 794 q 544 906 519 865 q 590 981 568 946 q 621 1031 613 1017 q 685 1082 646 1069 q 765 1086 724 1094 q 842 1053 806 1078 q 901 992 879 1028 q 926 911 924 956 q 900 821 929 867 q 847 744 875 782 q 790 669 818 707 q 734 592 761 631 q 686 513 707 554 q 724 515 704 514 q 763 514 744 515 q 796 509 781 513 q 819 500 811 506 q 831 486 826 494 q 836 469 835 478 q 838 452 838 463 q 838 430 839 442 q 836 408 838 418 q 831 393 835 399 q 810 379 824 385 q 782 371 797 374 q 751 366 767 368 q 725 364 735 364 q 686 365 714 364 q 633 367 658 365 q 630 343 631 356 q 628 318 629 331 l 631 318 q 678 319 654 318 q 728 318 703 321 q 753 315 740 318 q 775 304 765 311 q 790 265 790 290 q 779 221 789 239 q 753 194 771 203 q 731 188 744 190 q 701 185 717 186 q 668 185 685 185 q 638 186 651 185 q 632 113 642 146 q 614 69 625 90 q 585 31 603 47 z "},"­":{"ha":0,"x_min":0,"x_max":0,"o":""},"±":{"ha":776,"x_min":56,"x_max":722,"o":"m 446 319 q 388 311 418 310 q 329 319 357 313 q 300 330 314 322 q 279 351 286 338 q 270 379 274 361 q 265 420 267 397 q 264 469 264 443 q 264 521 264 496 q 172 524 215 522 q 111 532 129 525 q 71 569 83 543 q 60 605 64 583 q 56 649 56 626 q 60 693 56 672 q 74 728 65 714 q 96 749 82 740 q 125 764 110 758 q 178 772 151 771 q 231 774 204 772 q 249 776 240 775 q 267 778 258 776 q 270 865 268 824 q 279 921 272 906 q 315 963 288 949 q 351 974 329 969 q 395 978 372 978 q 439 973 418 978 q 474 960 460 968 q 510 907 499 942 q 517 856 517 882 q 519 801 518 829 l 524 772 q 542 771 533 771 q 561 771 551 771 q 613 769 588 771 q 663 757 639 768 q 714 700 700 742 q 722 642 722 672 q 714 583 721 613 q 703 554 711 568 q 682 533 696 540 q 615 519 663 522 q 518 518 568 517 q 517 495 517 507 q 517 472 517 483 q 515 419 517 446 q 503 369 514 393 q 446 319 486 333 m 660 21 q 606 10 643 13 q 526 7 568 7 q 444 9 483 7 q 386 11 406 11 q 334 10 371 11 q 257 10 297 10 q 181 13 217 11 q 131 21 144 15 q 92 54 104 31 q 81 86 85 67 q 78 126 78 106 q 82 165 78 146 q 94 196 86 183 q 116 217 103 208 q 143 229 129 225 q 192 236 167 236 q 242 239 217 236 q 272 242 257 240 q 301 244 286 244 q 425 242 364 247 q 549 236 486 236 q 597 235 572 236 q 642 224 621 233 q 689 172 678 208 q 697 120 697 147 q 690 67 696 93 q 680 41 688 54 q 660 21 672 28 z "},"×":{"ha":679,"x_min":46,"x_max":635,"o":"m 239 174 q 161 175 201 157 q 114 208 135 186 q 76 253 93 229 q 62 281 67 265 q 60 311 57 296 q 97 372 65 335 q 164 447 128 410 q 99 510 129 479 q 60 557 68 542 q 54 613 46 585 q 70 647 58 628 q 97 682 82 665 q 130 710 113 699 q 163 726 147 722 q 194 728 178 731 q 225 718 211 725 q 269 690 249 707 q 311 656 290 672 q 326 644 318 649 q 340 633 333 639 q 401 695 372 667 q 446 732 431 724 q 472 739 457 738 q 500 738 486 740 q 534 722 515 733 q 569 694 553 710 q 599 660 586 678 q 615 628 611 643 q 606 565 621 597 q 577 522 594 542 q 543 481 560 501 q 533 468 538 474 q 525 456 529 463 l 551 429 q 589 393 571 411 q 618 351 607 375 q 617 274 635 314 q 583 226 604 247 q 539 189 563 206 q 511 174 526 179 q 481 172 496 169 q 422 208 458 178 q 349 272 385 238 q 333 256 340 264 q 317 239 325 247 q 281 201 299 219 q 239 174 263 183 z "},"÷":{"ha":757,"x_min":39,"x_max":718,"o":"m 446 660 q 399 642 424 647 q 351 642 374 638 q 308 661 328 647 q 279 699 289 675 q 274 713 276 706 q 271 728 271 721 q 297 803 272 768 q 360 853 322 839 q 411 858 385 863 q 458 838 438 853 q 492 799 479 822 q 504 749 504 776 q 487 697 504 721 q 446 660 469 674 m 438 318 q 308 314 372 318 q 179 314 244 310 q 135 320 157 317 q 93 335 113 324 q 53 379 67 350 q 40 426 42 401 q 43 475 39 451 q 51 505 46 490 q 68 531 57 519 q 94 553 79 544 q 126 567 110 561 q 185 576 156 574 q 246 578 215 578 q 272 580 251 578 q 316 584 293 582 q 359 589 339 586 q 386 592 379 592 q 513 596 449 594 q 639 588 576 597 q 668 578 654 585 q 692 560 682 571 q 708 522 704 543 q 715 482 713 501 q 706 407 718 446 q 667 344 694 368 q 627 326 649 332 q 585 319 606 321 q 512 317 549 317 q 438 318 475 318 m 424 68 q 376 50 401 54 q 328 50 351 46 q 285 68 304 54 q 257 106 267 82 q 251 120 254 113 q 249 136 247 128 q 274 211 249 176 q 336 260 300 246 q 388 265 361 269 q 435 245 414 260 q 469 207 456 231 q 482 156 482 183 q 465 105 482 129 q 424 68 447 81 z "},"€":{"ha":943,"x_min":40,"x_max":888,"o":"m 733 11 q 640 -1 688 0 q 546 3 592 -3 q 433 31 490 11 q 346 82 386 50 q 274 154 306 114 q 200 281 229 213 q 160 422 171 350 q 157 439 157 433 q 103 450 132 442 q 63 469 75 458 q 44 501 49 483 q 42 528 40 514 q 47 554 43 542 q 74 601 56 579 q 118 618 93 624 q 137 613 128 615 q 156 608 146 611 q 160 635 158 622 q 165 663 163 649 q 144 664 154 663 q 131 665 135 665 q 113 670 121 668 q 97 679 104 672 q 87 693 90 685 q 82 710 83 701 q 85 757 81 733 q 106 796 90 781 q 130 808 115 806 q 158 810 144 811 q 188 806 174 808 q 217 800 201 803 q 294 911 247 860 q 317 935 306 924 q 340 958 329 946 q 378 995 358 978 q 419 1026 397 1013 q 556 1078 482 1064 q 701 1089 629 1092 q 768 1081 735 1086 q 831 1058 801 1075 q 852 1042 842 1051 q 869 1022 863 1033 q 883 982 879 1004 q 885 938 888 960 q 874 895 883 915 q 850 861 865 875 q 796 842 826 842 q 744 849 769 842 q 693 858 719 856 q 634 863 664 864 q 576 849 604 861 q 545 826 558 842 q 521 796 532 811 q 515 786 518 790 q 508 776 511 782 q 572 777 540 776 q 635 772 604 778 q 661 765 649 769 q 685 753 674 761 q 703 725 699 742 q 702 671 710 700 q 671 631 694 642 q 640 625 661 626 q 596 624 619 624 q 551 627 572 625 q 518 631 529 629 q 500 632 513 631 q 474 636 488 633 q 474 608 474 622 q 475 581 474 594 q 546 576 511 578 q 615 572 581 575 q 644 568 631 571 q 669 558 658 565 q 685 545 679 554 q 693 525 690 536 q 692 474 699 501 q 665 436 686 447 q 636 431 656 432 q 594 432 617 431 q 551 435 572 433 q 521 439 531 438 q 508 440 514 439 q 535 393 519 415 q 596 346 558 361 q 634 337 614 339 q 674 335 654 335 q 715 338 694 336 q 756 340 736 340 q 803 338 779 340 q 846 321 826 335 q 871 289 863 310 q 882 247 879 268 q 888 187 888 218 q 879 128 888 156 q 840 65 868 92 q 790 31 818 44 q 733 11 763 18 z "},"™":{"ha":1097,"x_min":38,"x_max":1049,"o":"m 601 494 q 563 488 583 489 q 528 499 543 488 q 504 530 511 510 q 494 569 497 550 q 488 740 482 653 q 521 906 494 826 q 548 956 529 935 q 589 986 567 976 q 633 993 611 996 q 672 972 656 990 q 708 914 696 947 q 735 849 719 881 q 759 926 746 888 q 797 996 772 964 q 850 1025 818 1021 q 892 1022 869 1028 q 931 1006 914 1017 q 957 972 949 993 q 974 931 965 950 q 1013 799 997 865 q 1039 664 1028 732 q 1043 631 1040 651 q 1047 590 1046 611 q 1047 549 1049 568 q 1036 521 1044 531 q 1014 505 1028 510 q 986 497 1000 500 q 942 491 964 493 q 900 493 921 489 q 871 505 885 496 q 850 528 857 514 q 842 554 843 540 q 839 583 840 568 q 840 663 838 624 q 839 740 843 701 q 822 700 831 725 q 803 651 814 675 q 778 608 792 626 q 749 588 765 589 q 715 594 731 585 q 688 618 700 603 q 666 652 675 633 q 651 688 657 671 q 653 655 651 676 q 657 609 656 633 q 658 563 658 585 q 653 532 657 542 q 631 508 646 517 q 601 494 617 499 m 321 492 q 279 474 301 478 q 236 474 257 469 q 197 493 215 479 q 169 528 179 507 q 152 591 157 558 q 147 656 147 624 q 150 756 146 706 q 161 854 154 806 l 150 854 q 115 858 133 854 q 80 868 96 861 q 52 887 64 875 q 39 915 40 899 q 44 955 38 932 q 64 986 50 978 q 81 990 69 990 q 103 987 92 989 q 126 981 115 985 q 144 976 138 978 q 292 969 219 961 q 340 977 315 972 q 390 982 365 982 q 421 976 406 982 q 447 958 436 969 q 453 919 460 943 q 435 879 447 894 q 406 858 424 865 q 372 844 389 850 q 351 838 365 842 q 322 831 336 833 q 325 818 325 819 q 331 785 326 810 q 342 732 336 760 q 351 679 347 704 q 357 644 356 654 q 361 594 360 619 q 356 543 363 568 q 321 492 346 511 z "},"−":{"ha":693,"x_min":38,"x_max":657,"o":"m 619 353 q 565 342 603 344 q 485 339 528 339 q 403 341 442 339 q 346 343 364 343 q 294 342 331 343 q 217 342 257 342 q 140 345 176 343 q 89 353 104 347 q 51 385 65 361 q 41 417 44 397 q 38 457 38 436 q 42 497 38 478 q 54 528 46 515 q 103 560 71 553 q 151 567 126 567 q 200 569 176 568 q 230 573 215 571 q 260 576 244 575 q 383 573 322 578 q 507 567 444 568 q 555 566 531 567 q 601 556 579 565 q 649 503 635 540 q 656 451 657 478 q 649 399 654 425 q 638 372 646 385 q 619 353 631 360 z "},"|":{"ha":483,"x_min":74,"x_max":432,"o":"m 339 -86 q 276 -103 308 -97 q 213 -108 244 -110 q 175 -100 193 -107 q 142 -81 157 -93 q 119 -53 128 -69 q 104 -21 111 -37 q 82 74 89 22 q 75 165 76 119 q 74 257 74 211 q 78 423 74 340 q 88 589 82 506 q 93 642 89 607 q 103 719 97 676 q 117 807 108 761 q 133 894 125 853 q 150 969 142 936 q 167 1019 158 1003 q 176 1033 171 1026 q 190 1043 182 1040 q 210 1047 200 1047 q 231 1049 219 1047 q 286 1042 258 1050 q 332 1015 314 1035 q 350 975 347 999 q 351 929 353 951 q 349 899 351 922 q 345 849 347 875 q 341 800 343 824 q 339 769 339 776 q 340 506 333 638 q 376 243 347 374 q 390 191 381 226 q 410 116 400 156 q 426 41 419 76 q 429 -11 432 6 q 403 -56 425 -40 q 372 -74 389 -67 q 339 -86 356 -81 z "},"`":{"ha":393,"x_min":33,"x_max":354,"o":"m 315 690 q 288 673 303 681 q 257 669 272 665 q 228 685 246 671 q 193 716 211 699 q 159 750 175 733 q 135 775 143 767 q 125 782 132 776 q 110 794 118 788 q 94 805 101 800 q 85 811 88 810 q 59 832 72 822 q 39 857 46 842 q 36 881 33 868 q 46 906 39 894 q 69 938 54 921 q 103 972 85 956 q 143 998 122 988 q 181 1008 164 1008 q 217 995 199 1008 q 253 962 236 982 q 283 919 269 942 q 306 881 297 897 q 318 852 310 871 q 335 813 326 833 q 349 772 343 792 q 354 742 354 751 q 340 713 353 726 q 315 690 328 700 z "},"\n":{"ha":0,"x_min":0,"x_max":0,"o":""}}}
